Gelasio.glyphspackage
{
glyphname = exclam;
kernLeft = exclam;
kernRight = exclam;
layers = (
{
layerId = "DD6F9F34-BC40-4E8F-B1D3-DF3B42A9710F";
shapes = (
{
closed = 1;
nodes = (
(379,432,l),
(407,1013,o),
(470,1322,o),
(470,1389,cs),
(470,1467,o),
(412,1528,o),
(339,1528,cs),
(265,1528,o),
(208,1467,o),
(208,1389,cs),
(208,1322,o),
(255,1013,o),
(299,432,c)
);
},
{
closed = 1;
nodes = (
(418,-20,o),
(480,47,o),
(480,122,cs),
(480,197,o),
(418,257,o),
(339,257,cs),
(260,257,o),
(199,197,o),
(199,122,cs),
(199,47,o),
(260,-20,o),
(339,-20,cs)
);
}
);
width = 678;
},
{
layerId = "62CA62AF-CD91-478A-AB8B-28A62CC47DA0";
shapes = (
{
closed = 1;
nodes = (
(441,542,l),
(472,1093,o),
(609,1129,o),
(609,1293,cs),
(609,1426,o),
(510,1530,o),
(386,1530,cs),
(260,1530,o),
(163,1426,o),
(163,1293,cs),
(163,1129,o),
(282,1093,o),
(329,542,c,{
name = hr00;
})
);
},
{
closed = 1;
nodes = (
(494,-20,o),
(580,72,o),
(580,176,cs),
(580,279,o),
(494,362,o),
(385,362,cs),
(276,362,o),
(192,279,o),
(192,176,cs),
(192,72,o),
(276,-20,o),
(385,-20,cs)
);
}
);
width = 771;
}
);
unicode = 33;
}
{
glyphname = parenleft;
kernLeft = parenleft;
kernRight = parenleft;
layers = (
{
layerId = "DD6F9F34-BC40-4E8F-B1D3-DF3B42A9710F";
shapes = (
{
closed = 1;
nodes = (
(678,-257,l),
(573,-257,o),
(300,-164,o),
(300,596,cs),
(300,1356,o),
(573,1449,o),
(678,1449,c),
(678,1532,l),
(460,1532,o),
(95,1307,o),
(95,596,cs),
(95,-115,o),
(460,-340,o),
(678,-340,c)
);
}
);
width = 768;
},
{
layerId = "62CA62AF-CD91-478A-AB8B-28A62CC47DA0";
shapes = (
{
closed = 1;
nodes = (
(808,-237,l),
(703,-237,o),
(430,-164,o),
(430,596,cs),
(430,1356,o),
(703,1429,o),
(808,1429,c),
(808,1532,l),
(541,1532,o),
(95,1307,o),
(95,596,cs,{
name = hr00;
}),
(95,-115,o),
(541,-340,o),
(808,-340,c)
);
}
);
width = 915;
}
);
unicode = 40;
userData = {
com.typemytype.robofont.mark = (
0.967,
0.6,
1,
1
);
};
}
{
glyphname = plus;
kernLeft = plus;
kernRight = plus;
layers = (
{
layerId = "DD6F9F34-BC40-4E8F-B1D3-DF3B42A9710F";
shapes = (
{
closed = 1;
nodes = (
(742,75,l),
(742,501,l),
(1144,501,l),
(1144,647,l),
(742,647,l),
(742,1062,l),
(576,1062,l),
(576,647,l),
(173,647,l),
(173,501,l,{
name = hr00;
}),
(576,501,l),
(576,75,l)
);
}
);
width = 1317;
},
{
layerId = "62CA62AF-CD91-478A-AB8B-28A62CC47DA0";
shapes = (
{
closed = 1;
nodes = (
(803,75,l),
(803,501,l),
(1205,501,l),
(1205,647,l),
(803,647,l),
(803,1062,l),
(637,1062,l),
(637,647,l),
(235,647,l),
(235,501,l,{
name = hr00;
}),
(637,501,l),
(637,75,l)
);
}
);
width = 1440;
}
);
unicode = 43;
}
{
glyphname = period;
kernLeft = period;
kernRight = period;
layers = (
{
layerId = "DD6F9F34-BC40-4E8F-B1D3-DF3B42A9710F";
shapes = (
{
closed = 1;
nodes = (
(136,47,o),
(197,-20,o),
(276,-20,cs),
(355,-20,o),
(417,47,o),
(417,122,cs),
(417,197,o),
(355,257,o),
(276,257,cs),
(197,257,o),
(136,197,o),
(136,122,cs)
);
}
);
width = 552;
},
{
layerId = "62CA62AF-CD91-478A-AB8B-28A62CC47DA0";
shapes = (
{
closed = 1;
nodes = (
(142,72,o),
(226,-20,o),
(335,-20,cs),
(444,-20,o),
(530,72,o),
(530,176,cs),
(530,279,o),
(444,362,o),
(335,362,cs),
(226,362,o),
(142,279,o),
(142,176,cs,{
name = hr00;
})
);
}
);
width = 672;
}
);
unicode = 46;
}
{
glyphname = slash;
kernLeft = slash;
kernRight = slash;
layers = (
{
layerId = "DD6F9F34-BC40-4E8F-B1D3-DF3B42A9710F";
shapes = (
{
closed = 1;
nodes = (
(309,-440,l),
(786,1600,l),
(649,1600,l),
(174,-440,l)
);
}
);
width = 960;
},
{
layerId = "62CA62AF-CD91-478A-AB8B-28A62CC47DA0";
shapes = (
{
closed = 1;
nodes = (
(271,-440,l),
(850,1600,l),
(693,1600,l),
(116,-440,l,{
name = hr00;
})
);
}
);
width = 966;
}
);
unicode = 47;
}
{
glyphname = three;
kernLeft = three;
kernRight = three;
layers = (
{
layerId = "DD6F9F34-BC40-4E8F-B1D3-DF3B42A9710F";
shapes = (
{
closed = 1;
nodes = (
(828,-394,o),
(1044,-211,o),
(1044,63,cs),
(1044,353,o),
(832,454,o),
(652,456,c),
(783,486,o),
(981,634,o),
(981,840,cs),
(981,1068,o),
(819,1205,o),
(567,1205,cs),
(366,1205,o),
(137,1068,o),
(137,892,cs),
(137,796,o),
(227,774,o),
(264,774,cs),
(304,774,o),
(324,808,o),
(331,849,cs),
(338,889,o),
(347,950,o),
(358,1002,c),
(385,1045,o),
(397,1109,o),
(552,1109,cs),
(742,1109,o),
(772,922,o),
(772,821,cs),
(772,606,o),
(587,505,o),
(486,505,cs),
(423,505,l),
(415,505,o),
(414,467,o),
(414,448,cs),
(414,429,o),
(417,391,o),
(423,391,c),
(486,391,ls),
(609,391,o),
(847,325,o),
(847,46,cs),
(847,-179,o),
(709,-299,o),
(519,-299,cs),
(366,-299,o),
(293,-226,o),
(267,-166,c),
(314,6,l),
(314,71,o),
(259,90,o),
(220,90,cs),
(158,90,o),
(91,22,o),
(91,-68,cs),
(91,-303,o),
(358,-394,o),
(534,-394,cs)
);
}
);
width = 1130;
},
{
layerId = "62CA62AF-CD91-478A-AB8B-28A62CC47DA0";
shapes = (
{
closed = 1;
nodes = (
(977,-392,o),
(1197,-181,o),
(1197,73,cs),
(1197,307,o),
(1021,454,o),
(761,456,c),
(964,486,o),
(1116,634,o),
(1116,840,cs,{
name = hr02;
}),
(1116,1058,o),
(927,1205,o),
(606,1205,cs),
(338,1205,o),
(94,1079,o),
(94,896,cs),
(94,814,o),
(168,755,o),
(238,755,cs),
(282,755,o),
(324,778,o),
(344,834,cs),
(358,873,o),
(374,940,o),
(394,1002,c),
(434,1084,o),
(489,1108,o),
(560,1108,cs),
(742,1108,o),
(784,922,o),
(784,821,cs),
(784,606,o),
(636,505,o),
(495,505,cs),
(422,505,ls),
(406,505,o),
(398,496,o),
(398,449,cs),
(398,401,o),
(406,393,o),
(422,393,cs),
(515,393,ls),
(696,393,o),
(830,312,o),
(830,46,cs),
(830,-155,o),
(732,-297,o),
(538,-297,cs),
(358,-297,o),
(295,-197,o),
(295,-197,c),
(358,46,l),
(348,79,o),
(312,117,o),
(226,117,cs),
(167,117,o),
(65,49,o),
(65,-78,cs,{
name = hr01;
}),
(65,-277,o),
(295,-392,o),
(547,-392,cs)
);
}
);
width = 1279;
}
);
unicode = 51;
}
{
glyphname = four;
kernLeft = four;
kernRight = four;
layers = (
{
layerId = "DD6F9F34-BC40-4E8F-B1D3-DF3B42A9710F";
shapes = (
{
closed = 1;
nodes = (
(880,-328,l),
(880,0,l),
(1104,0,l),
(1114,164,l),
(880,164,l),
(880,556,l),
(717,546,l),
(717,164,l),
(241,164,l),
(801,1095,l),
(801,1150,o),
(733,1203,o),
(670,1203,cs),
(635,1203,o),
(614,1182,o),
(609,1170,c),
(75,135,l),
(66,122,o),
(57,99,o),
(57,73,cs),
(57,35,o),
(75,0,o),
(90,0,c),
(717,0,l),
(717,-328,l)
);
}
);
width = 1157;
},
{
layerId = "62CA62AF-CD91-478A-AB8B-28A62CC47DA0";
shapes = (
{
closed = 1;
nodes = (
(1019,-328,l),
(1019,0,l),
(1256,0,l),
(1269,164,l),
(1019,164,l),
(1019,510,l),
(763,478,l),
(743,164,l),
(293,164,l),
(953,1028,l),
(953,1087,o),
(807,1204,o),
(693,1204,cs),
(661,1204,o),
(635,1193,o),
(609,1158,c),
(86,125,ls),
(74,101,o),
(75,83,o),
(75,62,cs),
(75,31,o),
(89,0,o),
(98,0,c),
(743,0,l),
(743,-328,l)
);
}
);
width = 1330;
}
);
unicode = 52;
}
{
glyphname = five;
kernLeft = five;
kernRight = five;
layers = (
{
layerId = "DD6F9F34-BC40-4E8F-B1D3-DF3B42A9710F";
shapes = (
{
closed = 1;
nodes = (
(771,-392,o),
(999,-166,o),
(999,187,cs),
(999,447,o),
(837,627,o),
(554,627,cs),
(475,627,o),
(360,592,o),
(289,543,c),
(333,1020,l),
(942,1020,l),
(952,1189,l),
(185,1189,l),
(153,413,l),
(221,380,l),
(283,477,o),
(418,516,o),
(522,516,cs),
(666,516,o),
(779,406,o),
(779,170,cs),
(779,-53,o),
(710,-298,o),
(495,-298,cs),
(402,-298,o),
(320,-282,o),
(273,-230,c),
(313,0,l),
(304,48,o),
(247,57,o),
(195,57,cs),
(149,57,o),
(64,-4,o),
(64,-111,cs),
(64,-281,o),
(294,-392,o),
(470,-392,cs)
);
}
);
width = 1082;
},
{
layerId = "62CA62AF-CD91-478A-AB8B-28A62CC47DA0";
shapes = (
{
closed = 1;
nodes = (
(923,-392,o),
(1155,-149,o),
(1155,160,cs),
(1155,421,o),
(992,607,o),
(671,607,cs),
(528,607,o),
(390,557,o),
(305,499,c),
(347,911,l),
(1083,911,l),
(1099,1190,l),
(238,1190,l),
(169,373,l),
(237,340,l),
(315,427,o),
(421,486,o),
(542,486,cs),
(732,486,o),
(808,311,o),
(808,136,cs),
(808,-130,o),
(728,-297,o),
(549,-297,cs),
(380,-297,o),
(316,-233,o),
(286,-197,c),
(349,46,l),
(339,79,o),
(303,117,o),
(217,117,cs),
(158,117,o),
(66,49,o),
(66,-78,cs,{
name = hr00;
}),
(66,-277,o),
(334,-392,o),
(536,-392,cs)
);
}
);
width = 1227;
}
);
unicode = 53;
}
{
glyphname = seven;
kernLeft = seven;
kernRight = seven;
layers = (
{
layerId = "DD6F9F34-BC40-4E8F-B1D3-DF3B42A9710F";
shapes = (
{
closed = 1;
nodes = (
(440,-350,l),
(992,1122,l),
(939,1189,l),
(102,1190,l),
(67,786,l),
(67,763,o),
(93,752,o),
(108,752,cs),
(129,752,o),
(152,759,o),
(155,785,cs),
(160,824,o),
(217,1028,o),
(339,1028,c),
(835,1028,l),
(218,-349,l)
);
}
);
width = 1029;
},
{
layerId = "62CA62AF-CD91-478A-AB8B-28A62CC47DA0";
shapes = (
{
closed = 1;
nodes = (
(556,-350,l),
(1108,1152,l),
(1065,1190,l),
(128,1190,l),
(93,716,l),
(93,693,o),
(129,682,o),
(144,682,cs),
(165,682,o),
(193,690,o),
(200,715,cs),
(229,817,o),
(234,911,o),
(356,911,c),
(872,911,l),
(314,-349,l,{
name = hr00;
})
);
}
);
width = 1135;
}
);
unicode = 55;
}
{
glyphname = eight;
kernLeft = eight;
kernRight = eight;
layers = (
{
layerId = "DD6F9F34-BC40-4E8F-B1D3-DF3B42A9710F";
shapes = (
{
closed = 1;
nodes = (
(933,-30,o),
(1083,146,o),
(1083,358,cs),
(1083,552,o),
(950,665,o),
(797,756,c),
(908,818,o),
(1030,934,o),
(1030,1091,cs),
(1030,1285,o),
(915,1449,o),
(626,1449,cs),
(361,1449,o),
(209,1265,o),
(209,1102,cs),
(209,941,o),
(300,830,o),
(416,742,c),
(290,691,o),
(139,566,o),
(139,373,cs),
(139,154,o),
(296,-30,o),
(616,-30,cs)
);
},
{
closed = 1;
nodes = (
(479,927,o),
(406,993,o),
(406,1107,cs),
(406,1260,o),
(478,1354,o),
(623,1354,cs),
(785,1354,o),
(844,1233,o),
(844,1102,cs),
(844,927,o),
(785,847,o),
(713,803,c)
);
},
{
closed = 1;
nodes = (
(392,65,o),
(328,251,o),
(328,362,cs),
(328,529,o),
(399,640,o),
(494,688,c),
(531,666,o),
(567,644,o),
(604,625,cs),
(731,556,o),
(886,488,o),
(886,314,cs),
(886,159,o),
(789,65,o),
(619,65,cs)
);
}
);
width = 1221;
},
{
layerId = "62CA62AF-CD91-478A-AB8B-28A62CC47DA0";
shapes = (
{
closed = 1;
nodes = (
(1035,-30,o),
(1270,141,o),
(1270,358,cs),
(1270,594,o),
(1107,702,o),
(908,800,c),
(1049,849,o),
(1197,954,o),
(1197,1111,cs,{
name = hr02;
}),
(1197,1305,o),
(1039,1449,o),
(693,1449,cs),
(362,1449,o),
(176,1271,o),
(176,1082,cs),
(176,913,o),
(291,818,o),
(431,723,c),
(299,690,o),
(106,581,o),
(106,373,cs,{
name = hr01;
}),
(106,124,o),
(314,-30,o),
(691,-30,cs)
);
},
{
closed = 1;
nodes = (
(559,960,o),
(463,1029,o),
(463,1147,cs,{
name = hr04;
}),
(463,1290,o),
(547,1354,o),
(690,1354,cs),
(852,1354,o),
(915,1243,o),
(915,1122,cs),
(915,959,o),
(868,884,o),
(809,846,c)
);
},
{
closed = 1;
nodes = (
(509,65,o),
(408,215,o),
(408,386,cs,{
name = hr05;
}),
(418,540,o),
(456,630,o),
(507,678,c),
(569,644,o),
(635,614,o),
(699,586,c),
(825,534,o),
(973,447,o),
(973,303,cs),
(973,148,o),
(870,65,o),
(704,65,cs)
);
}
);
width = 1385;
}
);
unicode = 56;
}
{
glyphname = at;
kernLeft = at;
kernRight = at;
layers = (
{
layerId = "DD6F9F34-BC40-4E8F-B1D3-DF3B42A9710F";
shapes = (
{
closed = 1;
nodes = (
(1258,-338,o),
(1434,-198,o),
(1525,-92,c),
(1461,-30,l),
(1461,-30,o),
(1289,-237,o),
(945,-237,cs),
(740,-237,o),
(284,-141,o),
(258,357,cs),
(257,375,o),
(256,394,o),
(257,412,cs),
(257,896,o),
(599,1290,o),
(1073,1290,cs),
(1348,1290,o),
(1627,1132,o),
(1644,807,cs),
(1644,795,o),
(1644,784,o),
(1645,772,cs),
(1645,428,o),
(1373,221,o),
(1252,221,cs),
(1189,221,o),
(1172,251,o),
(1172,284,cs,{
name = hr02;
}),
(1172,318,o),
(1182,353,o),
(1188,369,cs),
(1402,977,l),
(1210,977,l,{
name = hr03;
}),
(1171,838,l),
(1171,907,o),
(1107,1003,o),
(992,1003,cs),
(709,1003,o),
(540,695,o),
(540,423,cs),
(540,412,o),
(540,400,o),
(541,389,cs),
(552,181,o),
(681,100,o),
(799,100,cs),
(878,100,o),
(992,177,o),
(1027,259,c,{
name = hr04;
}),
(1033,180,o),
(1085,92,o),
(1207,92,cs,{
name = hr05;
}),
(1396,92,o),
(1767,331,o),
(1767,778,cs),
(1767,793,o),
(1767,807,o),
(1766,822,cs),
(1744,1241,o),
(1399,1398,o),
(1087,1398,cs),
(632,1398,o),
(136,1051,o),
(136,417,cs),
(136,396,o),
(137,373,o),
(138,351,cs,{
name = hr01;
}),
(165,-162,o),
(602,-338,o),
(936,-338,cs)
);
},
{
closed = 1;
nodes = (
(745,231,o),
(733,314,o),
(729,403,cs,{
name = hr07;
}),
(723,516,o),
(816,874,o),
(1002,874,cs),
(1098,874,o),
(1116,798,o),
(1117,744,cs),
(1117,738,o),
(1116,732,o),
(1116,726,c),
(1013,416,ls),
(995,361,o),
(900,231,o),
(821,231,cs)
);
}
);
width = 1902;
},
{
layerId = "62CA62AF-CD91-478A-AB8B-28A62CC47DA0";
shapes = (
{
closed = 1;
nodes = (
(1296,-338,o),
(1472,-198,o),
(1564,-92,c),
(1499,-50,l),
(1499,-50,o),
(1328,-227,o),
(984,-227,cs),
(779,-227,o),
(350,-147,o),
(324,351,cs),
(323,370,o),
(323,389,o),
(323,408,cs),
(323,891,o),
(639,1280,o),
(1112,1280,cs),
(1387,1280,o),
(1665,1132,o),
(1682,807,cs),
(1683,794,o),
(1683,782,o),
(1683,770,cs),
(1683,427,o),
(1421,201,o),
(1300,201,cs),
(1236,201,o),
(1221,233,o),
(1221,268,cs,{
name = hr02;
}),
(1221,300,o),
(1230,333,o),
(1236,349,cs),
(1451,957,l),
(1249,957,l,{
name = hr03;
}),
(1210,818,l),
(1209,887,o),
(1145,983,o),
(1030,983,cs),
(747,983,o),
(578,693,o),
(578,421,cs),
(578,410,o),
(578,400,o),
(579,389,cs),
(590,181,o),
(720,80,o),
(838,80,cs),
(917,80,o),
(1030,157,o),
(1065,239,c,{
name = hr04;
}),
(1071,160,o),
(1124,72,o),
(1246,72,cs,{
name = hr05;
}),
(1436,72,o),
(1806,331,o),
(1806,778,cs),
(1806,793,o),
(1806,807,o),
(1805,822,cs),
(1783,1241,o),
(1438,1398,o),
(1126,1398,cs),
(671,1398,o),
(174,1051,o),
(174,416,cs),
(174,394,o),
(175,373,o),
(176,351,cs,{
name = hr01;
}),
(203,-162,o),
(640,-338,o),
(974,-338,cs)
);
},
{
closed = 1;
nodes = (
(794,211,o),
(782,294,o),
(778,383,cs,{
name = hr07;
}),
(773,496,o),
(865,854,o),
(1051,854,cs),
(1142,854,o),
(1156,787,o),
(1156,734,cs),
(1156,724,o),
(1156,715,o),
(1155,706,c),
(1052,396,ls),
(1034,341,o),
(949,211,o),
(870,211,cs)
);
}
);
width = 1980;
}
);
unicode = 64;
}
{
glyphname = C;
kernLeft = O;
kernRight = C;
layers = (
{
anchors = (
{
name = bottom;
pos = (722,0);
},
{
name = top;
pos = (752,1419);
}
);
layerId = "DD6F9F34-BC40-4E8F-B1D3-DF3B42A9710F";
shapes = (
{
closed = 1;
nodes = (
(1000,-30,o),
(1175,80,o),
(1178,108,cs),
(1210,382,l),
(1210,405,o),
(1165,416,o),
(1149,416,cs),
(1127,416,o),
(1117,409,o),
(1112,383,cs),
(1079,210,o),
(978,65,o),
(751,65,cs),
(592,65,o),
(322,152,o),
(322,706,cs),
(322,1289,o),
(558,1353,o),
(729,1353,cs),
(960,1353,o),
(1072,1204,o),
(1119,1036,c),
(1122,1014,o),
(1137,1007,o),
(1154,1007,cs),
(1158,1007,o),
(1161,1008,o),
(1165,1008,cs),
(1181,1008,o),
(1214,1025,o),
(1211,1048,c),
(1189,1361,l),
(1118,1392,o),
(996,1449,o),
(731,1449,cs),
(443,1449,o),
(65,1235,o),
(65,706,cs),
(65,144,o),
(431,-30,o),
(752,-30,cs)
);
}
);
width = 1315;
},
{
anchors = (
{
name = bottom;
pos = (805,0);
},
{
name = top;
pos = (859,1419);
}
);
layerId = "62CA62AF-CD91-478A-AB8B-28A62CC47DA0";
shapes = (
{
closed = 1;
nodes = (
(1127,-30,o),
(1328,80,o),
(1331,108,cs),
(1359,412,l),
(1359,435,o),
(1304,446,o),
(1288,446,cs),
(1266,446,o),
(1245,439,o),
(1240,413,cs),
(1205,231,o),
(1091,65,o),
(888,65,cs),
(728,65,o),
(467,152,o),
(467,706,cs),
(467,1289,o),
(703,1353,o),
(866,1353,cs),
(1094,1353,o),
(1170,1200,o),
(1201,1029,cs),
(1205,1007,o),
(1250,1000,o),
(1278,1000,cs),
(1284,1000,o),
(1288,1001,o),
(1292,1001,cs),
(1309,1001,o),
(1361,1018,o),
(1358,1041,c),
(1341,1361,l),
(1287,1360,o),
(1193,1449,o),
(868,1449,cs),
(516,1449,o),
(78,1235,o),
(78,706,cs,{
name = hr00;
}),
(78,144,o),
(488,-30,o),
(889,-30,cs)
);
}
);
width = 1465;
}
);
unicode = 67;
}
{
glyphname = D;
kernLeft = H;
kernRight = O;
layers = (
{
anchors = (
{
name = bottom;
pos = (766,0);
},
{
name = center;
pos = (766,710);
},
{
name = top;
pos = (766,1419);
}
);
background = {
shapes = (
{
closed = 1;
nodes = (
(600,1419,l),
(135,1419,ls),
(112,1419,o),
(101,1383,o),
(101,1368,cs),
(101,1338,o),
(109,1334,o),
(137,1331,cs),
(198,1326,o),
(289,1320,o),
(289,1234,cs),
(288,152,ls),
(288,108,o),
(207,93,o),
(143,88,cs),
(117,85,o),
(110,72,o),
(110,51,cs),
(110,36,o),
(121,0,o),
(144,0,cs),
(609,0,ls),
(643,0,o),
(663,16,o),
(663,31,cs),
(663,61,o),
(651,65,o),
(607,68,cs),
(558,73,o),
(495,49,o),
(495,135,cs),
(496,1342,l)
);
},
{
closed = 1;
nodes = (
(460,1417,o),
(446,1322,o),
(446,1322,c),
(446,1322,o),
(533,1322,o),
(718,1322,cs),
(951,1322,o),
(1209,1229,o),
(1209,734,cs),
(1209,161,o),
(941,101,o),
(698,101,cs),
(524,101,o),
(495,140,o),
(495,168,c),
(495,168,o),
(455,0,o),
(455,0,c),
(455,0,o),
(536,0,o),
(767,0,cs),
(1067,0,o),
(1455,217,o),
(1455,738,cs),
(1455,1083,o),
(1269,1417,o),
(725,1419,c),
(463,1419,l)
);
}
);
};
layerId = "DD6F9F34-BC40-4E8F-B1D3-DF3B42A9710F";
shapes = (
{
closed = 1;
nodes = (
(778,0,ls),
(1078,0,o),
(1456,217,o),
(1456,738,cs),
(1456,1083,o),
(1270,1417,o),
(726,1419,c),
(130,1419,ls),
(107,1419,o),
(96,1383,o),
(96,1368,cs),
(96,1338,o),
(104,1334,o),
(132,1331,cs),
(193,1324,o),
(284,1320,o),
(284,1234,cs),
(284,152,ls),
(284,108,o),
(203,93,o),
(139,88,c),
(113,85,o),
(106,72,o),
(106,51,cs,{
name = hr00;
}),
(106,36,o),
(117,0,o),
(140,0,cs)
);
},
{
closed = 1;
nodes = (
(497,1322,l),
(694,1322,ls),
(927,1322,o),
(1210,1229,o),
(1210,734,cs),
(1210,161,o),
(947,101,o),
(704,101,cs),
(530,101,o),
(496,140,o),
(496,168,cs)
);
}
);
width = 1534;
},
{
anchors = (
{
name = bottom;
pos = (826,0);
},
{
name = center;
pos = (826,710);
},
{
name = top;
pos = (826,1419);
}
);
layerId = "62CA62AF-CD91-478A-AB8B-28A62CC47DA0";
shapes = (
{
closed = 1;
nodes = (
(903,0,ls),
(1203,0,o),
(1641,217,o),
(1641,738,cs),
(1641,1083,o),
(1375,1417,o),
(831,1419,c),
(135,1419,ls),
(112,1419,o),
(101,1383,o),
(101,1368,cs),
(101,1338,o),
(109,1334,o),
(137,1331,cs),
(198,1324,o),
(289,1320,o),
(289,1234,cs),
(289,152,ls),
(289,108,o),
(208,93,o),
(144,88,c),
(118,85,o),
(111,72,o),
(111,51,cs,{
name = hr00;
}),
(111,36,o),
(122,0,o),
(145,0,cs)
);
},
{
closed = 1;
nodes = (
(627,1322,l),
(824,1322,ls),
(1057,1322,o),
(1251,1229,o),
(1251,734,cs),
(1251,161,o),
(1077,101,o),
(834,101,cs),
(660,101,o),
(626,140,o),
(626,168,cs)
);
}
);
width = 1708;
}
);
unicode = 68;
}
{
glyphname = F;
kernLeft = H;
kernRight = F;
layers = (
{
anchors = (
{
name = top;
pos = (690,1419);
}
);
layerId = "DD6F9F34-BC40-4E8F-B1D3-DF3B42A9710F";
shapes = (
{
closed = 1;
nodes = (
(744,0,ls),
(767,0,o),
(778,36,o),
(778,51,cs),
(778,81,o),
(764,88,o),
(742,88,cs),
(657,88,o),
(520,111,o),
(520,197,cs),
(520,655,l),
(778,655,ls),
(834,655,o),
(874,514,o),
(879,471,cs),
(882,445,o),
(910,438,o),
(931,438,cs),
(946,438,o),
(972,449,o),
(972,472,cs),
(972,915,ls),
(972,938,o),
(946,949,o),
(931,949,cs),
(910,949,o),
(882,942,o),
(879,916,cs),
(874,876,o),
(836,748,o),
(784,741,c),
(520,741,l),
(520,1320,l),
(899,1320,ls),
(1007,1320,o),
(1102,1108,o),
(1107,1069,cs),
(1110,1043,o),
(1129,1036,o),
(1150,1036,cs),
(1165,1036,o),
(1191,1047,o),
(1191,1070,c),
(1154,1418,l),
(130,1419,ls),
(107,1419,o),
(96,1383,o),
(96,1368,cs),
(96,1338,o),
(104,1334,o),
(132,1331,c),
(205,1326,o),
(314,1320,o),
(314,1234,cs),
(313,152,ls),
(313,108,o),
(217,93,o),
(138,88,c),
(112,85,o),
(105,72,o),
(105,51,cs),
(105,36,o),
(116,0,o),
(139,0,cs)
);
}
);
width = 1227;
},
{
anchors = (
{
name = top;
pos = (736,1419);
}
);
background = {
shapes = (
{
closed = 1;
nodes = (
(769,0,ls),
(792,0,o),
(803,36,o),
(803,51,cs),
(803,81,o),
(795,85,o),
(767,88,cs),
(706,93,o),
(616,99,o),
(616,185,cs),
(616,1267,ls),
(616,1311,o),
(693,1326,o),
(761,1331,c),
(787,1334,o),
(794,1347,o),
(794,1368,cs),
(794,1383,o),
(783,1419,o),
(760,1419,cs),
(135,1419,ls),
(112,1419,o),
(101,1383,o),
(101,1368,cs),
(101,1338,o),
(109,1334,o),
(137,1331,cs),
(198,1326,o),
(279,1320,o),
(279,1234,cs),
(279,152,ls),
(279,108,o),
(207,93,o),
(143,88,c),
(117,85,o),
(110,72,o),
(110,51,cs,{
name = hr00;
}),
(110,36,o),
(121,0,o),
(144,0,cs)
);
}
);
};
layerId = "62CA62AF-CD91-478A-AB8B-28A62CC47DA0";
shapes = (
{
closed = 1;
nodes = (
(879,0,ls),
(902,0,o),
(913,36,o),
(913,51,cs),
(913,81,o),
(899,88,o),
(877,88,cs),
(792,88,o),
(615,111,o),
(615,197,cs),
(615,650,l),
(878,650,ls),
(934,650,o),
(979,514,o),
(982,471,c),
(985,445,o),
(1010,438,o),
(1031,438,cs),
(1046,438,o),
(1072,449,o),
(1072,472,cs),
(1072,915,ls),
(1072,938,o),
(1046,949,o),
(1031,949,cs),
(1010,949,o),
(988,943,o),
(985,917,cs),
(980,877,o),
(936,753,o),
(884,746,c),
(615,746,l),
(615,1320,l),
(982,1320,ls),
(1090,1320,o),
(1112,1219,o),
(1192,1069,cs),
(1208,1039,o),
(1248,1036,o),
(1269,1036,cs),
(1284,1036,o),
(1306,1047,o),
(1306,1070,c),
(1267,1418,l),
(135,1419,ls),
(112,1419,o),
(101,1383,o),
(101,1368,cs),
(101,1338,o),
(109,1334,o),
(137,1331,c),
(210,1326,o),
(279,1320,o),
(279,1234,cs),
(279,152,ls),
(279,108,o),
(222,93,o),
(143,88,c),
(117,85,o),
(110,72,o),
(110,51,cs,{
name = hr00;
}),
(110,36,o),
(121,0,o),
(144,0,cs)
);
}
);
width = 1375;
}
);
unicode = 70;
}
{
glyphname = H;
kernLeft = H;
kernRight = H;
layers = (
{
anchors = (
{
name = bottom;
pos = (832,0);
},
{
name = center;
pos = (832,710);
},
{
name = top;
pos = (832,1419);
},
{
name = topleft;
pos = (17,1419);
}
);
layerId = "DD6F9F34-BC40-4E8F-B1D3-DF3B42A9710F";
shapes = (
{
closed = 1;
nodes = (
(631,0,ls),
(654,0,o),
(665,36,o),
(665,51,cs),
(665,81,o),
(657,85,o),
(629,88,cs),
(568,95,o),
(477,99,o),
(477,185,cs),
(478,1267,ls),
(478,1311,o),
(559,1326,o),
(623,1331,cs),
(649,1333,o),
(656,1347,o),
(656,1368,cs),
(656,1383,o),
(645,1419,o),
(622,1419,cs),
(130,1419,ls),
(107,1419,o),
(96,1383,o),
(96,1368,cs),
(96,1338,o),
(104,1334,o),
(132,1331,cs),
(193,1324,o),
(274,1320,o),
(274,1234,c),
(273,152,ls),
(273,108,o),
(202,93,o),
(138,88,cs),
(112,86,o),
(105,72,o),
(105,51,cs),
(105,36,o),
(116,0,o),
(139,0,cs)
);
},
{
closed = 1;
nodes = (
(1550,0,ls),
(1573,0,o),
(1584,36,o),
(1584,51,cs),
(1584,81,o),
(1576,85,o),
(1548,88,cs),
(1487,95,o),
(1396,99,o),
(1396,185,cs),
(1397,1267,ls),
(1397,1311,o),
(1478,1326,o),
(1542,1331,cs),
(1568,1333,o),
(1575,1347,o),
(1575,1368,cs),
(1575,1383,o),
(1564,1419,o),
(1541,1419,cs),
(1039,1419,ls),
(1016,1419,o),
(1005,1383,o),
(1005,1368,cs),
(1005,1338,o),
(1013,1334,o),
(1041,1331,cs),
(1102,1324,o),
(1193,1320,o),
(1193,1234,cs),
(1192,152,ls),
(1192,108,o),
(1111,93,o),
(1047,88,cs),
(1021,86,o),
(1014,72,o),
(1014,51,cs),
(1014,36,o),
(1025,0,o),
(1048,0,cs)
);
},
{
closed = 1;
nodes = (
(1237,688,l),
(1237,796,l),
(434,796,l),
(434,688,l)
);
}
);
width = 1669;
},
{
anchors = (
{
name = bottom;
pos = (931,0);
},
{
name = center;
pos = (931,710);
},
{
name = top;
pos = (931,1419);
},
{
name = topleft;
pos = (16,1419);
}
);
layerId = "62CA62AF-CD91-478A-AB8B-28A62CC47DA0";
shapes = (
{
closed = 1;
nodes = (
(769,0,ls),
(792,0,o),
(803,36,o),
(803,51,cs),
(803,81,o),
(795,85,o),
(767,88,cs),
(706,93,o),
(616,99,o),
(616,185,cs),
(616,1267,ls),
(616,1311,o),
(693,1326,o),
(761,1331,c),
(787,1334,o),
(794,1347,o),
(794,1368,cs),
(794,1383,o),
(783,1419,o),
(760,1419,cs),
(135,1419,ls),
(112,1419,o),
(101,1383,o),
(101,1368,cs),
(101,1338,o),
(109,1334,o),
(137,1331,cs),
(198,1326,o),
(279,1320,o),
(279,1234,cs),
(279,152,ls),
(279,108,o),
(207,93,o),
(143,88,c),
(117,85,o),
(110,72,o),
(110,51,cs,{
name = hr00;
}),
(110,36,o),
(121,0,o),
(144,0,cs)
);
},
{
closed = 1;
nodes = (
(1744,0,ls),
(1767,0,o),
(1778,36,o),
(1778,51,cs),
(1778,81,o),
(1770,85,o),
(1742,88,cs),
(1681,95,o),
(1591,99,o),
(1591,185,cs),
(1591,1267,ls),
(1591,1311,o),
(1668,1326,o),
(1736,1331,c),
(1762,1334,o),
(1769,1347,o),
(1769,1368,cs),
(1769,1383,o),
(1758,1419,o),
(1735,1419,cs),
(1100,1419,ls),
(1077,1419,o),
(1066,1383,o),
(1066,1368,cs),
(1066,1338,o),
(1074,1334,o),
(1102,1331,cs),
(1163,1324,o),
(1254,1320,o),
(1254,1234,cs),
(1254,152,ls),
(1254,108,o),
(1172,93,o),
(1108,88,c),
(1082,85,o),
(1075,72,o),
(1075,51,cs),
(1075,36,o),
(1086,0,o),
(1109,0,cs)
);
},
{
closed = 1;
nodes = (
(1331,692,l),
(1331,814,l),
(534,814,l),
(534,692,l)
);
}
);
width = 1870;
}
);
unicode = 72;
}
{
glyphname = I;
kernLeft = I;
kernRight = I;
layers = (
{
anchors = (
{
name = bottom;
pos = (410,0);
},
{
name = ogonek;
pos = (689,10);
},
{
name = top;
pos = (397,1419);
},
{
name = topleft;
pos = (-9,1419);
}
);
layerId = "DD6F9F34-BC40-4E8F-B1D3-DF3B42A9710F";
shapes = (
{
closed = 1;
nodes = (
(656,0,ls),
(679,0,o),
(690,36,o),
(690,51,cs),
(690,81,o),
(682,85,o),
(654,88,cs),
(593,95,o),
(502,99,o),
(502,185,cs),
(503,1267,ls),
(503,1311,o),
(584,1326,o),
(648,1331,cs),
(674,1333,o),
(681,1347,o),
(681,1368,cs),
(681,1383,o),
(670,1419,o),
(647,1419,cs),
(142,1419,ls),
(119,1419,o),
(108,1383,o),
(108,1368,cs),
(108,1338,o),
(116,1334,o),
(144,1331,cs),
(205,1324,o),
(296,1320,o),
(296,1234,cs),
(295,152,ls),
(295,108,o),
(214,93,o),
(150,88,cs),
(124,86,o),
(117,72,o),
(117,51,cs),
(117,36,o),
(128,0,o),
(151,0,cs)
);
}
);
width = 798;
},
{
anchors = (
{
name = bottom;
pos = (467,0);
},
{
name = ogonek;
pos = (823,10);
},
{
name = top;
pos = (456,1419);
},
{
name = topleft;
pos = (21,1419);
}
);
layerId = "62CA62AF-CD91-478A-AB8B-28A62CC47DA0";
shapes = (
{
closed = 1;
nodes = (
(779,0,ls),
(802,0,o),
(813,36,o),
(813,51,cs),
(813,81,o),
(805,85,o),
(777,88,cs),
(716,93,o),
(625,99,o),
(625,185,cs),
(626,1267,ls),
(626,1311,o),
(703,1326,o),
(771,1331,cs),
(797,1334,o),
(804,1347,o),
(804,1368,cs),
(804,1383,o),
(793,1419,o),
(770,1419,cs),
(135,1419,ls),
(112,1419,o),
(101,1383,o),
(101,1368,cs),
(101,1338,o),
(109,1334,o),
(137,1331,cs),
(198,1326,o),
(289,1320,o),
(289,1234,cs),
(288,152,ls),
(288,108,o),
(207,93,o),
(143,88,cs),
(117,85,o),
(110,72,o),
(110,51,cs,{
name = hr00;
}),
(110,36,o),
(121,0,o),
(144,0,cs)
);
}
);
width = 913;
}
);
unicode = 73;
}
{
glyphname = O;
kernLeft = O;
kernRight = O;
layers = (
{
anchors = (
{
name = bottom;
pos = (748,0);
},
{
name = center;
pos = (748,710);
},
{
name = ogonek;
pos = (911,10);
},
{
name = top;
pos = (748,1419);
},
{
name = topleft;
pos = (6,1419);
},
{
name = topright;
pos = (1490,1419);
}
);
layerId = "DD6F9F34-BC40-4E8F-B1D3-DF3B42A9710F";
shapes = (
{
closed = 1;
nodes = (
(1181,-29,o),
(1430,306,o),
(1430,716,cs),
(1430,1126,o),
(1191,1449,o),
(769,1449,cs),
(347,1449,o),
(94,1126,o),
(94,716,cs),
(94,306,o),
(338,-29,o),
(759,-29,cs)
);
},
{
closed = 1;
nodes = (
(432,65,o),
(342,312,o),
(342,714,cs),
(342,1116,o),
(425,1356,o),
(758,1356,cs),
(1088,1356,o),
(1180,1116,o),
(1180,714,cs),
(1180,312,o),
(1094,65,o),
(763,65,cs)
);
}
);
width = 1524;
},
{
anchors = (
{
name = bottom;
pos = (840,0);
},
{
name = center;
pos = (840,710);
},
{
name = ogonek;
pos = (992,10);
},
{
name = top;
pos = (840,1419);
},
{
name = topleft;
pos = (20,1419);
},
{
name = topright;
pos = (1659,1419);
}
);
layerId = "62CA62AF-CD91-478A-AB8B-28A62CC47DA0";
shapes = (
{
closed = 1;
nodes = (
(1302,-29,o),
(1584,306,o),
(1584,716,cs),
(1584,1126,o),
(1303,1449,o),
(839,1449,cs),
(375,1449,o),
(95,1126,o),
(95,716,cs,{
name = hr00;
}),
(95,306,o),
(376,-29,o),
(839,-29,cs)
);
},
{
closed = 1;
nodes = (
(590,65,o),
(477,312,o),
(477,714,cs),
(477,1116,o),
(584,1356,o),
(837,1356,cs),
(1090,1356,o),
(1201,1116,o),
(1201,714,cs),
(1201,312,o),
(1096,65,o),
(843,65,cs)
);
}
);
width = 1679;
}
);
unicode = 79;
}
{
glyphname = P;
kernLeft = H;
kernRight = P;
layers = (
{
anchors = (
{
name = bottom;
pos = (615,0);
},
{
name = top;
pos = (615,1419);
}
);
layerId = "DD6F9F34-BC40-4E8F-B1D3-DF3B42A9710F";
shapes = (
{
closed = 1;
nodes = (
(694,0,ls),
(717,0,o),
(728,36,o),
(728,51,cs),
(728,81,o),
(720,85,o),
(692,88,c),
(615,93,o),
(490,99,o),
(490,185,cs),
(490,555,l),
(664,555,ls),
(964,555,o),
(1180,742,o),
(1180,1010,cs),
(1180,1321,o),
(940,1431,o),
(705,1431,cs),
(567,1431,o),
(485,1419,o),
(353,1419,c),
(130,1419,l),
(107,1419,o),
(96,1383,o),
(96,1368,cs),
(96,1338,o),
(104,1334,o),
(132,1331,cs),
(193,1324,o),
(284,1320,o),
(284,1234,cs),
(283,152,ls),
(283,108,o),
(202,93,o),
(138,88,c),
(112,85,o),
(105,72,o),
(105,51,cs),
(105,36,o),
(116,0,o),
(139,0,cs)
);
},
{
closed = 1;
nodes = (
(491,1342,l),
(628,1342,ls),
(787,1342,o),
(952,1265,o),
(952,989,cs),
(952,721,o),
(736,641,o),
(661,641,cs),
(490,641,l)
);
}
);
width = 1249;
},
{
anchors = (
{
name = bottom;
pos = (691,0);
},
{
name = top;
pos = (691,1419);
}
);
background = {
shapes = (
{
closed = 1;
nodes = (
(769,0,ls),
(792,0,o),
(803,36,o),
(803,51,cs),
(803,81,o),
(795,85,o),
(767,88,cs),
(706,93,o),
(616,99,o),
(616,185,cs),
(616,1267,ls),
(616,1311,o),
(693,1326,o),
(761,1331,c),
(787,1334,o),
(794,1347,o),
(794,1368,cs),
(794,1383,o),
(783,1419,o),
(760,1419,cs),
(135,1419,ls),
(112,1419,o),
(101,1383,o),
(101,1368,cs),
(101,1338,o),
(109,1334,o),
(137,1331,cs),
(198,1326,o),
(279,1320,o),
(279,1234,cs),
(279,152,ls),
(279,108,o),
(207,93,o),
(143,88,c),
(117,85,o),
(110,72,o),
(110,51,cs,{
name = hr00;
}),
(110,36,o),
(121,0,o),
(144,0,cs)
);
}
);
};
layerId = "62CA62AF-CD91-478A-AB8B-28A62CC47DA0";
shapes = (
{
closed = 1;
nodes = (
(849,0,ls),
(872,0,o),
(883,36,o),
(883,51,cs),
(883,81,o),
(875,85,o),
(847,88,c),
(770,93,o),
(615,99,o),
(615,185,cs),
(615,555,l),
(798,555,ls),
(1205,555,o),
(1381,742,o),
(1381,1010,cs),
(1381,1321,o),
(1153,1429,o),
(828,1429,cs),
(719,1429,o),
(576,1419,o),
(430,1419,c,{
name = hr02;
}),
(135,1419,ls),
(112,1419,o),
(101,1383,o),
(101,1368,cs),
(101,1338,o),
(109,1334,o),
(137,1331,cs),
(198,1324,o),
(280,1320,o),
(280,1234,cs),
(280,152,ls),
(280,108,o),
(217,93,o),
(153,88,c),
(127,85,o),
(120,72,o),
(120,51,cs,{
name = hr01;
}),
(120,36,o),
(131,0,o),
(154,0,cs)
);
},
{
closed = 1;
nodes = (
(615,1332,l),
(725,1332,ls),
(915,1332,o),
(1013,1265,o),
(1013,989,cs),
(1013,721,o),
(869,651,o),
(725,651,cs),
(615,651,l)
);
}
);
width = 1436;
}
);
unicode = 80;
}
{
glyphname = R;
kernLeft = H;
kernRight = R;
layers = (
{
anchors = (
{
name = bottom;
pos = (716,0);
},
{
name = top;
pos = (716,1419);
}
);
background = {
shapes = (
{
closed = 1;
nodes = (
(631,0,ls),
(654,0,o),
(665,36,o),
(665,51,cs),
(665,81,o),
(657,85,o),
(629,88,cs),
(568,95,o),
(477,99,o),
(477,185,cs),
(478,1267,ls),
(478,1311,o),
(559,1326,o),
(623,1331,cs),
(649,1333,o),
(656,1347,o),
(656,1368,cs),
(656,1383,o),
(645,1419,o),
(622,1419,cs),
(130,1419,ls),
(107,1419,o),
(96,1383,o),
(96,1368,cs),
(96,1338,o),
(104,1334,o),
(132,1331,cs),
(193,1324,o),
(274,1320,o),
(274,1234,c),
(273,152,ls),
(273,108,o),
(202,93,o),
(138,88,cs),
(112,86,o),
(105,72,o),
(105,51,cs),
(105,36,o),
(116,0,o),
(139,0,cs)
);
}
);
};
layerId = "DD6F9F34-BC40-4E8F-B1D3-DF3B42A9710F";
shapes = (
{
closed = 1;
nodes = (
(651,0,ls),
(674,0,o),
(685,36,o),
(685,51,cs),
(685,81,o),
(677,85,o),
(649,88,c),
(576,93,o),
(477,99,o),
(477,185,cs),
(477,625,l),
(655,625,ls),
(950,625,o),
(938,0,o),
(1116,0,cs),
(1383,0,ls),
(1405,0,o),
(1417,31,o),
(1417,46,cs),
(1417,76,o),
(1409,86,o),
(1381,89,cs),
(1332,94,o),
(1275,119,o),
(1230,206,c),
(1115,389,o),
(1119,632,o),
(854,658,c),
(1069,716,o),
(1176,847,o),
(1176,1050,cs),
(1176,1329,o),
(952,1426,o),
(670,1428,cs),
(516,1429,o),
(485,1420,o),
(317,1420,cs),
(264,1420,o),
(211,1419,o),
(131,1419,cs),
(108,1419,o),
(97,1383,o),
(97,1368,cs),
(97,1338,o),
(105,1334,o),
(133,1331,cs),
(194,1324,o),
(275,1320,o),
(275,1234,cs),
(274,152,ls),
(274,108,o),
(193,93,o),
(129,88,c),
(103,85,o),
(96,72,o),
(96,51,cs),
(96,36,o),
(107,0,o),
(130,0,cs)
);
},
{
closed = 1;
nodes = (
(479,1332,l),
(623,1332,ls),
(815,1332,o),
(959,1263,o),
(959,1019,cs),
(959,775,o),
(811,711,o),
(646,711,cs),
(478,711,l)
);
}
);
width = 1437;
},
{
anchors = (
{
name = bottom;
pos = (787,0);
},
{
name = top;
pos = (787,1419);
}
);
background = {
shapes = (
{
closed = 1;
nodes = (
(769,0,ls),
(792,0,o),
(803,36,o),
(803,51,cs),
(803,81,o),
(795,85,o),
(767,88,cs),
(706,93,o),
(616,99,o),
(616,185,cs),
(616,1267,ls),
(616,1311,o),
(693,1326,o),
(761,1331,c),
(787,1334,o),
(794,1347,o),
(794,1368,cs),
(794,1383,o),
(783,1419,o),
(760,1419,cs),
(135,1419,ls),
(112,1419,o),
(101,1383,o),
(101,1368,cs),
(101,1338,o),
(109,1334,o),
(137,1331,cs),
(198,1326,o),
(279,1320,o),
(279,1234,cs),
(279,152,ls),
(279,108,o),
(207,93,o),
(143,88,c),
(117,85,o),
(110,72,o),
(110,51,cs,{
name = hr00;
}),
(110,36,o),
(121,0,o),
(144,0,cs)
);
}
);
};
layerId = "62CA62AF-CD91-478A-AB8B-28A62CC47DA0";
shapes = (
{
closed = 1;
nodes = (
(781,0,ls),
(804,0,o),
(815,36,o),
(815,51,cs),
(815,81,o),
(807,85,o),
(779,88,c),
(706,93,o),
(609,99,o),
(609,185,cs),
(609,625,l),
(728,625,ls),
(1016,625,o),
(949,0,o),
(1188,0,cs),
(1529,0,ls),
(1551,0,o),
(1563,31,o),
(1563,46,cs),
(1563,76,o),
(1555,86,o),
(1527,89,cs),
(1478,94,o),
(1432,119,o),
(1387,206,c),
(1272,389,o),
(1268,628,o),
(1003,654,c),
(1188,702,o),
(1369,782,o),
(1369,1050,cs),
(1369,1314,o),
(1158,1429,o),
(800,1429,cs),
(621,1429,o),
(456,1421,o),
(326,1421,cs),
(263,1421,o),
(218,1419,o),
(135,1419,cs),
(112,1419,o),
(101,1383,o),
(101,1368,cs),
(101,1338,o),
(109,1334,o),
(137,1331,cs),
(198,1324,o),
(280,1320,o),
(280,1234,cs),
(279,152,ls),
(279,108,o),
(207,93,o),
(143,88,c),
(117,85,o),
(110,72,o),
(110,51,cs,{
name = hr00;
}),
(110,36,o),
(121,0,o),
(144,0,cs)
);
},
{
closed = 1;
nodes = (
(609,1332,l),
(750,1332,ls),
(942,1332,o),
(1029,1223,o),
(1029,1019,cs),
(1029,785,o),
(918,711,o),
(753,711,cs),
(609,711,l)
);
}
);
width = 1633;
}
);
unicode = 82;
}
{
glyphname = S;
kernLeft = S;
kernRight = S;
layers = (
{
anchors = (
{
name = bottom;
pos = (584,0);
},
{
name = top;
pos = (587,1419);
}
);
layerId = "DD6F9F34-BC40-4E8F-B1D3-DF3B42A9710F";
shapes = (
{
closed = 1;
nodes = (
(869,-30,o),
(1065,110,o),
(1065,371,cs),
(1065,596,o),
(839,714,o),
(666,815,cs),
(512,905,o),
(351,1000,o),
(351,1129,cs),
(351,1308,o),
(450,1370,o),
(589,1370,cs),
(736,1370,o),
(869,1266,o),
(906,1051,cs),
(908,1039,o),
(930,1028,o),
(950,1028,cs),
(976,1028,o),
(1002,1042,o),
(1002,1084,cs),
(1002,1160,o),
(976,1272,o),
(976,1394,cs),
(976,1414,o),
(947,1432,o),
(921,1432,cs),
(912,1432,o),
(902,1430,o),
(894,1425,cs),
(875,1413,o),
(869,1398,o),
(837,1398,cs),
(810,1398,o),
(731,1449,o),
(572,1449,cs),
(387,1449,o),
(151,1344,o),
(158,1069,cs),
(164,831,o),
(358,720,o),
(543,626,cs),
(703,545,o),
(859,446,o),
(859,299,cs),
(859,103,o),
(730,59,o),
(609,59,cs),
(503,59,o),
(359,121,o),
(287,274,cs),
(233,389,o),
(220,444,o),
(212,478,cs),
(205,506,o),
(183,520,o),
(159,520,cs),
(135,520,o),
(110,504,o),
(110,469,cs),
(110,406,o),
(132,287,o),
(132,155,cs),
(132,127,o),
(132,99,o),
(130,72,cs),
(128,44,o),
(145,24,o),
(171,24,cs),
(191,24,o),
(218,36,o),
(242,65,cs),
(253,78,o),
(263,82,o),
(273,82,cs),
(296,82,o),
(316,65,o),
(354,45,cs),
(399,22,o),
(472,-30,o),
(626,-30,cs)
);
}
);
width = 1149;
},
{
anchors = (
{
name = bottom;
pos = (681,0);
},
{
name = top;
pos = (683,1419);
}
);
layerId = "62CA62AF-CD91-478A-AB8B-28A62CC47DA0";
shapes = (
{
closed = 1;
nodes = (
(992,-30,o),
(1236,127,o),
(1236,382,cs,{
name = hr02;
}),
(1236,617,o),
(1011,738,o),
(804,841,cs),
(633,926,o),
(441,1024,o),
(441,1187,cs),
(441,1316,o),
(564,1360,o),
(685,1360,cs),
(993,1360,o),
(1035,1053,o),
(1036,1051,cs),
(1045,1036,o),
(1060,1028,o),
(1086,1028,cs),
(1119,1028,o),
(1149,1042,o),
(1149,1086,cs),
(1149,1118,o),
(1126,1289,o),
(1124,1394,cs,{
name = hr03;
}),
(1124,1415,o),
(1086,1432,o),
(1053,1432,cs),
(1043,1432,o),
(1033,1430,o),
(1025,1425,cs),
(1006,1413,o),
(1005,1396,o),
(972,1396,cs),
(914,1396,o),
(852,1448,o),
(670,1448,cs),
(371,1448,o),
(162,1291,o),
(162,1053,cs),
(162,812,o),
(378,704,o),
(554,610,cs),
(727,517,o),
(931,435,o),
(936,245,cs),
(939,121,o),
(829,61,o),
(717,61,cs),
(547,61,o),
(396,158,o),
(317,294,cs),
(275,366,o),
(258,431,o),
(249,465,cs),
(241,494,o),
(219,507,o),
(189,507,cs),
(158,507,o),
(131,493,o),
(131,437,cs),
(131,389,o),
(146,262,o),
(146,138,cs),
(146,90,o),
(147,89,o),
(144,53,cs,{
name = hr01;
}),
(142,25,o),
(165,5,o),
(199,5,cs),
(223,5,o),
(245,14,o),
(273,46,cs),
(281,55,o),
(292,69,o),
(309,69,cs),
(325,69,o),
(341,55,o),
(378,41,cs),
(424,24,o),
(545,-30,o),
(709,-30,cs)
);
}
);
width = 1329;
}
);
unicode = 83;
}
{
glyphname = T;
kernLeft = T;
kernRight = T;
layers = (
{
anchors = (
{
name = bottom;
pos = (628,0);
},
{
name = center;
pos = (634,710);
},
{
name = top;
pos = (624,1419);
}
);
layerId = "DD6F9F34-BC40-4E8F-B1D3-DF3B42A9710F";
shapes = (
{
closed = 1;
nodes = (
(941,0,ls),
(964,0,o),
(975,36,o),
(975,51,cs),
(975,81,o),
(967,85,o),
(939,88,c),
(858,93,o),
(737,99,o),
(737,185,cs),
(738,1320,l),
(991,1320,ls),
(1105,1320,o),
(1134,1064,o),
(1139,999,c),
(1142,973,o),
(1155,966,o),
(1176,966,cs),
(1191,966,o),
(1227,977,o),
(1227,1000,c),
(1223,1131,o),
(1208,1419,o),
(1193,1419,cs),
(75,1419,ls),
(60,1419,o),
(46,1131,o),
(40,1000,cs),
(39,977,o),
(76,966,o),
(91,966,cs),
(112,966,o),
(125,973,o),
(128,999,c),
(133,1064,o),
(163,1320,o),
(277,1320,cs),
(531,1320,l),
(530,182,ls),
(530,108,o),
(419,93,o),
(325,88,c),
(299,85,o),
(292,72,o),
(292,51,cs),
(292,36,o),
(303,0,o),
(326,0,cs)
);
}
);
width = 1267;
},
{
anchors = (
{
name = bottom;
pos = (717,0);
},
{
name = center;
pos = (717,710);
},
{
name = top;
pos = (717,1419);
}
);
layerId = "62CA62AF-CD91-478A-AB8B-28A62CC47DA0";
shapes = (
{
closed = 1;
nodes = (
(1079,0,ls),
(1102,0,o),
(1113,36,o),
(1113,51,cs),
(1113,81,o),
(1105,85,o),
(1077,88,c),
(996,93,o),
(875,99,o),
(875,185,cs),
(875,1320,l),
(1112,1320,ls),
(1227,1320,o),
(1259,1064,o),
(1266,999,cs),
(1269,973,o),
(1302,966,o),
(1323,966,cs),
(1338,966,o),
(1374,977,o),
(1374,1000,c),
(1370,1131,o),
(1359,1419,o),
(1344,1419,cs),
(57,1419,ls),
(42,1419,o),
(31,1131,o),
(27,1000,c),
(27,977,o),
(63,966,o),
(78,966,cs),
(99,966,o),
(132,973,o),
(135,999,c),
(140,1064,o),
(175,1320,o),
(289,1320,cs),
(539,1320,l),
(539,182,ls),
(539,108,o),
(427,93,o),
(333,88,c),
(307,85,o),
(300,72,o),
(300,51,cs,{
name = hr00;
}),
(300,36,o),
(311,0,o),
(334,0,cs)
);
}
);
width = 1401;
}
);
unicode = 84;
}
{
glyphname = U;
kernLeft = U;
kernRight = U;
layers = (
{
anchors = (
{
name = bottom;
pos = (789,0);
},
{
name = ogonek;
pos = (1386,10);
},
{
name = top;
pos = (803,1419);
},
{
name = topright;
pos = (1521,1419);
}
);
background = {
shapes = (
{
closed = 1;
nodes = (
(609,0,ls),
(632,0,o),
(643,36,o),
(643,51,cs),
(643,81,o),
(635,85,o),
(607,88,cs),
(546,95,o),
(455,99,o),
(455,185,cs),
(456,1267,ls),
(456,1311,o),
(537,1326,o),
(601,1331,cs),
(627,1333,o),
(634,1347,o),
(634,1368,cs),
(634,1383,o),
(623,1419,o),
(600,1419,cs),
(108,1419,ls),
(85,1419,o),
(74,1383,o),
(74,1368,cs),
(74,1338,o),
(82,1334,o),
(110,1331,cs),
(171,1324,o),
(252,1320,o),
(252,1234,c),
(251,152,ls),
(251,108,o),
(180,93,o),
(116,88,cs),
(90,86,o),
(83,72,o),
(83,51,cs),
(83,36,o),
(94,0,o),
(117,0,cs)
);
}
);
};
layerId = "DD6F9F34-BC40-4E8F-B1D3-DF3B42A9710F";
shapes = (
{
closed = 1;
nodes = (
(1296,1294,o),
(1368,1326,o),
(1471,1331,cs),
(1497,1332,o),
(1504,1347,o),
(1504,1368,cs),
(1504,1383,o),
(1493,1419,o),
(1470,1419,cs),
(1005,1419,ls),
(982,1419,o),
(971,1383,o),
(971,1368,cs),
(971,1338,o),
(979,1334,o),
(1007,1331,cs),
(1062,1325,o),
(1183,1311,o),
(1183,1244,cs),
(1183,514,ls),
(1183,250,o),
(1100,65,o),
(785,65,cs),
(567,65,o),
(463,212,o),
(463,524,cs),
(464,1267,ls),
(464,1311,o),
(568,1326,o),
(637,1331,cs),
(663,1333,o),
(670,1347,o),
(670,1368,cs),
(670,1383,o),
(659,1419,o),
(636,1419,cs),
(108,1419,ls),
(85,1419,o),
(74,1383,o),
(74,1368,cs),
(74,1338,o),
(82,1334,o),
(110,1331,cs),
(171,1326,o),
(252,1320,o),
(252,1234,cs),
(251,516,ls),
(251,194,o),
(419,-29,o),
(781,-29,cs),
(1101,-29,o),
(1293,154,o),
(1294,516,cs),
(1296,1230,ls)
);
}
);
width = 1549;
},
{
anchors = (
{
name = bottom;
pos = (835,0);
},
{
name = ogonek;
pos = (1517,10);
},
{
name = top;
pos = (906,1419);
},
{
name = topright;
pos = (1668,1419);
}
);
background = {
shapes = (
{
closed = 1;
nodes = (
(256,194,o),
(415,-29,o),
(901,-29,cs),
(1242,-29,o),
(1463,169,o),
(1463,566,cs),
(1463,1230,ls),
(1463,1294,o),
(1531,1326,o),
(1634,1331,cs),
(1660,1332,o),
(1667,1347,o),
(1667,1368,cs),
(1667,1383,o),
(1656,1419,o),
(1633,1419,cs),
(1177,1419,ls),
(1154,1419,o),
(1143,1383,o),
(1143,1368,cs),
(1143,1338,o),
(1151,1334,o),
(1179,1331,cs),
(1235,1326,o),
(1353,1311,o),
(1353,1244,cs),
(1353,564,ls),
(1353,297,o),
(1254,65,o),
(918,65,cs),
(684,65,o),
(603,227,o),
(603,574,cs),
(603,1267,ls),
(603,1311,o),
(690,1326,o),
(758,1331,cs),
(784,1334,o),
(791,1347,o),
(791,1368,cs),
(791,1383,o),
(780,1419,o),
(757,1419,cs),
(112,1419,ls),
(89,1419,o),
(78,1383,o),
(78,1368,cs),
(78,1338,o),
(86,1334,o),
(114,1331,cs),
(175,1326,o),
(256,1320,o),
(256,1234,cs),
(256,566,ls,{
name = hr00;
})
);
}
);
};
layerId = "62CA62AF-CD91-478A-AB8B-28A62CC47DA0";
shapes = (
{
closed = 1;
nodes = (
(1445,1294,o),
(1508,1327,o),
(1611,1331,cs),
(1637,1332,o),
(1644,1347,o),
(1644,1368,cs),
(1644,1383,o),
(1633,1419,o),
(1610,1419,cs),
(1143,1419,ls),
(1120,1419,o),
(1109,1383,o),
(1109,1368,cs),
(1109,1338,o),
(1117,1334,o),
(1145,1331,cs),
(1200,1325,o),
(1322,1311,o),
(1322,1244,cs),
(1322,514,ls),
(1322,286,o),
(1201,65,o),
(905,65,cs),
(684,65,o),
(577,186,o),
(577,524,cs),
(578,1267,ls),
(578,1311,o),
(664,1326,o),
(733,1331,cs),
(759,1333,o),
(766,1347,o),
(766,1368,cs),
(766,1383,o),
(755,1419,o),
(732,1419,cs),
(98,1419,ls),
(75,1419,o),
(64,1383,o),
(64,1368,cs),
(64,1338,o),
(72,1334,o),
(100,1331,cs),
(161,1326,o),
(242,1320,o),
(242,1234,cs),
(241,548,ls),
(240,107,o),
(524,-29,o),
(901,-29,cs),
(1242,-29,o),
(1442,186,o),
(1443,516,cs),
(1445,1230,ls)
);
}
);
width = 1707;
}
);
unicode = 85;
}
{
glyphname = V;
kernLeft = V;
kernRight = V;
layers = (
{
anchors = (
{
name = bottom;
pos = (689,0);
},
{
name = top;
pos = (689,1419);
}
);
layerId = "DD6F9F34-BC40-4E8F-B1D3-DF3B42A9710F";
shapes = (
{
closed = 1;
nodes = (
(767,-18,l),
(1232,1254,ls),
(1265,1342,o),
(1344,1326,o),
(1393,1331,cs),
(1421,1334,o),
(1429,1338,o),
(1429,1368,cs),
(1429,1383,o),
(1417,1419,o),
(1395,1419,cs),
(940,1419,ls),
(917,1419,o),
(906,1383,o),
(906,1368,cs),
(906,1347,o),
(913,1334,o),
(939,1331,c),
(1022,1326,o),
(1099,1308,o),
(1099,1268,cs),
(1099,1265,o),
(1098,1261,o),
(1097,1257,cs),
(750,232,l),
(384,1287,ls),
(382,1292,o),
(381,1297,o),
(381,1300,cs),
(381,1332,o),
(441,1327,o),
(522,1331,c),
(548,1334,o),
(555,1347,o),
(555,1368,cs),
(555,1383,o),
(544,1419,o),
(521,1419,cs),
(-4,1419,ls),
(-26,1419,o),
(-38,1383,o),
(-38,1368,cs),
(-38,1338,o),
(-30,1334,o),
(-2,1331,cs),
(47,1326,o),
(126,1342,o),
(159,1254,cs),
(644,-18,l)
);
}
);
width = 1365;
},
{
anchors = (
{
name = bottom;
pos = (774,0);
},
{
name = top;
pos = (774,1419);
}
);
layerId = "62CA62AF-CD91-478A-AB8B-28A62CC47DA0";
shapes = (
{
closed = 1;
nodes = (
(877,-18,l),
(1404,1254,ls),
(1426,1306,o),
(1456,1326,o),
(1568,1331,cs),
(1596,1332,o),
(1604,1338,o),
(1604,1368,cs),
(1604,1383,o),
(1592,1419,o),
(1570,1419,cs),
(1112,1419,ls),
(1089,1419,o),
(1078,1383,o),
(1078,1368,cs),
(1078,1347,o),
(1085,1334,o),
(1111,1331,c),
(1194,1326,o),
(1271,1308,o),
(1271,1268,cs),
(1271,1265,o),
(1270,1261,o),
(1269,1257,c),
(912,347,l),
(509,1287,l),
(507,1292,o),
(506,1297,o),
(506,1300,cs),
(506,1332,o),
(566,1327,o),
(647,1331,c),
(673,1334,o),
(680,1347,o),
(680,1368,cs),
(680,1383,o),
(669,1419,o),
(646,1419,cs),
(-9,1419,ls),
(-31,1419,o),
(-43,1383,o),
(-43,1368,cs),
(-43,1338,o),
(-35,1334,o),
(-7,1331,cs),
(42,1326,o),
(121,1342,o),
(154,1254,c),
(754,-18,l,{
name = hr00;
})
);
}
);
width = 1561;
}
);
unicode = 86;
}
{
glyphname = W;
kernLeft = W;
kernRight = W;
layers = (
{
anchors = (
{
name = bottom;
pos = (1019,80);
},
{
name = top;
pos = (1059,1419);
}
);
layerId = "DD6F9F34-BC40-4E8F-B1D3-DF3B42A9710F";
shapes = (
{
closed = 1;
nodes = (
(675,-18,l),
(1001,1046,l),
(1355,-18,l),
(1478,-18,l),
(1851,1254,ls),
(1878,1344,o),
(1953,1326,o),
(2002,1331,cs),
(2030,1334,o),
(2038,1338,o),
(2038,1368,cs),
(2038,1383,o),
(2026,1419,o),
(2004,1419,cs),
(1559,1419,ls),
(1536,1419,o),
(1525,1383,o),
(1525,1368,cs),
(1525,1347,o),
(1532,1334,o),
(1558,1331,c),
(1643,1326,o),
(1734,1334,o),
(1734,1295,cs),
(1734,1293,o),
(1734,1290,o),
(1733,1287,cs),
(1464,282,l),
(1109,1399,l),
(1001,1399,l),
(664,286,l),
(388,1287,l),
(387,1291,o),
(386,1295,o),
(386,1298,cs),
(386,1333,o),
(463,1326,o),
(546,1331,c),
(572,1334,o),
(579,1347,o),
(579,1368,cs),
(579,1383,o),
(568,1419,o),
(545,1419,cs),
(30,1419,ls),
(8,1419,o),
(-4,1383,o),
(-4,1368,cs),
(-4,1338,o),
(4,1334,o),
(32,1331,cs),
(81,1326,o),
(150,1342,o),
(183,1254,c),
(552,-18,l)
);
}
);
width = 1998;
},
{
anchors = (
{
name = bottom;
pos = (1154,80);
},
{
name = top;
pos = (1243,1419);
}
);
layerId = "62CA62AF-CD91-478A-AB8B-28A62CC47DA0";
shapes = (
{
closed = 1;
nodes = (
(784,-18,l),
(1123,987,l),
(1535,-18,l),
(1658,-18,l),
(2108,1180,ls),
(2140,1269,o),
(2165,1331,o),
(2306,1331,cs),
(2334,1331,o),
(2342,1338,o),
(2342,1368,cs),
(2342,1383,o),
(2330,1419,o),
(2308,1419,cs),
(1823,1419,ls),
(1800,1419,o),
(1789,1383,o),
(1789,1368,cs),
(1789,1347,o),
(1796,1334,o),
(1822,1331,c),
(1969,1331,o),
(2006,1298,o),
(2006,1261,cs),
(2006,1251,o),
(2004,1242,o),
(2001,1233,cs),
(1709,448,l),
(1324,1389,l),
(1150,1389,l),
(825,418,l),
(510,1230,ls),
(507,1239,o),
(505,1249,o),
(505,1259,cs),
(505,1297,o),
(538,1331,o),
(651,1331,c),
(677,1334,o),
(684,1347,o),
(684,1368,cs),
(684,1383,o),
(673,1419,o),
(650,1419,cs),
(-1,1419,ls),
(-23,1419,o),
(-35,1383,o),
(-35,1368,cs),
(-35,1338,o),
(-27,1335,o),
(2,1331,cs),
(94,1317,o),
(125,1293,o),
(159,1205,cs),
(661,-18,l,{
name = hr00;
})
);
}
);
width = 2307;
}
);
unicode = 87;
}
{
glyphname = Z;
kernLeft = Z;
kernRight = Z;
layers = (
{
anchors = (
{
name = bottom;
pos = (602,0);
},
{
name = top;
pos = (656,1419);
}
);
layerId = "DD6F9F34-BC40-4E8F-B1D3-DF3B42A9710F";
shapes = (
{
closed = 1;
nodes = (
(1074,0,l),
(1094,1,o),
(1109,14,o),
(1121,41,c),
(1171,429,ls),
(1174,452,o),
(1145,463,o),
(1130,463,cs),
(1109,463,o),
(1096,456,o),
(1093,430,cs),
(1087,381,o),
(923,83,o),
(835,83,cs),
(240,83,l),
(293,26,l),
(442,248,l),
(1156,1340,ls),
(1162,1350,o),
(1166,1357,o),
(1166,1368,cs),
(1166,1395,ls),
(1166,1414,o),
(1158,1419,o),
(1142,1419,cs),
(200,1419,l),
(180,1418,o),
(165,1405,o),
(153,1378,c),
(124,1020,ls),
(122,997,o),
(140,986,o),
(155,986,cs),
(176,986,o),
(189,993,o),
(192,1019,cs),
(198,1068,o),
(311,1336,o),
(399,1336,cs),
(971,1336,l),
(925,1367,l),
(812,1201,l),
(107,123,ls),
(71,68,o),
(65,53,o),
(65,40,cs),
(65,24,ls),
(65,5,o),
(73,0,o),
(89,0,cs)
);
}
);
width = 1232;
},
{
anchors = (
{
name = bottom;
pos = (690,0);
},
{
name = top;
pos = (770,1419);
}
);
layerId = "62CA62AF-CD91-478A-AB8B-28A62CC47DA0";
shapes = (
{
closed = 1;
nodes = (
(1234,0,l),
(1254,1,o),
(1269,14,o),
(1281,41,c),
(1331,429,l),
(1331,452,o),
(1275,463,o),
(1260,463,cs),
(1239,463,o),
(1226,456,o),
(1223,430,c),
(1175,254,o),
(1054,83,o),
(965,83,cs),
(426,83,l),
(444,47,l),
(569,214,l),
(1321,1340,ls),
(1327,1350,o),
(1331,1366,o),
(1331,1377,cs),
(1331,1393,ls),
(1331,1412,o),
(1312,1419,o),
(1297,1419,cs),
(235,1419,l),
(215,1418,o),
(200,1405,o),
(188,1378,c),
(159,1020,l),
(159,997,o),
(205,986,o),
(220,986,cs),
(241,986,o),
(251,994,o),
(257,1019,cs),
(292,1165,o),
(376,1336,o),
(464,1336,cs),
(971,1336,l),
(953,1372,l),
(827,1205,l),
(107,123,l),
(71,69,o),
(65,49,o),
(65,36,cs),
(65,30,ls,{
name = hr00;
}),
(65,21,o),
(69,0,o),
(99,0,cs)
);
}
);
width = 1412;
}
);
unicode = 90;
}
{
glyphname = underscore;
kernLeft = underscore;
kernRight = underscore;
layers = (
{
layerId = "DD6F9F34-BC40-4E8F-B1D3-DF3B42A9710F";
shapes = (
{
closed = 1;
nodes = (
(1342,-296,l),
(1342,-190,l),
(-25,-190,l),
(-25,-296,l)
);
}
);
width = 1317;
},
{
layerId = "62CA62AF-CD91-478A-AB8B-28A62CC47DA0";
shapes = (
{
closed = 1;
nodes = (
(-25,-296,l),
(1465,-296,l),
(1465,-190,l),
(-25,-190,l,{
name = hr00;
})
);
}
);
width = 1440;
}
);
unicode = 95;
}
{
glyphname = grave;
kernLeft = grave;
kernRight = grave;
layers = (
{
layerId = "DD6F9F34-BC40-4E8F-B1D3-DF3B42A9710F";
shapes = (
{
closed = 1;
nodes = (
(804,1159,l),
(640,1348,o),
(545,1501,o),
(514,1531,cs),
(493,1551,o),
(462,1567,o),
(429,1567,cs),
(405,1567,o),
(379,1557,o),
(357,1534,cs),
(336,1512,o),
(328,1489,o),
(328,1467,cs),
(328,1435,o),
(345,1406,o),
(367,1386,cs),
(398,1356,o),
(544,1284,o),
(748,1101,c)
);
}
);
width = 1024;
},
{
layerId = "62CA62AF-CD91-478A-AB8B-28A62CC47DA0";
shapes = (
{
closed = 1;
nodes = (
(702,1179,l),
(548,1368,o),
(459,1521,o),
(428,1551,cs,{
name = L;
}),
(407,1571,o),
(369,1587,o),
(331,1587,cs),
(301,1587,o),
(272,1577,o),
(250,1554,cs),
(227,1530,o),
(218,1499,o),
(218,1470,cs),
(218,1435,o),
(231,1401,o),
(251,1383,cs),
(282,1353,o),
(442,1274,o),
(646,1121,c,{
name = hr00;
})
);
}
);
width = 1024;
}
);
unicode = 96;
}
{
glyphname = a;
kernLeft = a;
kernRight = n;
layers = (
{
anchors = (
{
name = bottom;
pos = (497,0);
},
{
name = ogonek;
pos = (856,10);
},
{
name = top;
pos = (497,994);
}
);
background = {
shapes = (
{
closed = 1;
nodes = (
(97,50,o),
(256,-21,o),
(377,-21,cs),
(517,-21,o),
(611,18,o),
(698,109,c),
(698,99,ls),
(698,-28,o),
(770,-19,o),
(822,-19,cs),
(885,-19,o),
(959,17,o),
(994,43,cs),
(998,46,o),
(1000,52,o),
(1000,59,cs),
(1000,79,o),
(983,109,o),
(960,102,cs),
(936,95,o),
(926,94,o),
(907,94,cs),
(885,94,o),
(869,149,o),
(869,201,cs),
(869,689,ls),
(869,848,o),
(819,1014,o),
(518,1014,cs),
(268,1014,o),
(109,900,o),
(109,781,cs),
(109,694,o),
(181,665,o),
(256,665,c),
(376,907,l),
(393,915,o),
(417,924,o),
(474,924,cs),
(633,924,o),
(680,827,o),
(680,753,c),
(680,599,l),
(412,571,o),
(97,508,o),
(97,243,cs,{
name = hr00;
})
);
},
{
closed = 1;
nodes = (
(306,456,o),
(455,495,o),
(679,528,c),
(679,176,l),
(639,136,o),
(559,90,o),
(449,90,cs),
(361,90,o),
(306,164,o),
(306,248,cs)
);
}
);
};
layerId = "DD6F9F34-BC40-4E8F-B1D3-DF3B42A9710F";
shapes = (
{
closed = 1;
nodes = (
(97,50,o),
(256,-21,o),
(377,-21,cs),
(517,-21,o),
(611,28,o),
(698,119,c),
(698,99,ls),
(698,0,o),
(733,-19,o),
(802,-19,cs),
(885,-19,o),
(959,17,o),
(994,43,cs),
(998,46,o),
(1000,52,o),
(1000,59,cs),
(1000,79,o),
(983,109,o),
(960,102,cs),
(936,95,o),
(926,94,o),
(907,94,cs),
(885,94,o),
(869,149,o),
(869,201,cs),
(869,689,ls),
(869,848,o),
(819,1014,o),
(518,1014,cs),
(268,1014,o),
(109,900,o),
(109,781,cs),
(109,694,o),
(181,665,o),
(256,665,c),
(376,907,l),
(393,915,o),
(417,924,o),
(474,924,cs),
(633,924,o),
(680,827,o),
(680,753,c),
(680,599,l),
(412,571,o),
(97,508,o),
(97,243,cs,{
name = hr00;
})
);
},
{
closed = 1;
nodes = (
(306,456,o),
(463,495,o),
(679,528,c),
(679,176,l),
(639,136,o),
(559,90,o),
(449,90,cs),
(361,90,o),
(306,164,o),
(306,248,cs)
);
}
);
width = 1032;
},
{
anchors = (
{
name = bottom;
pos = (609,0);
},
{
name = ogonek;
pos = (989,10);
},
{
name = top;
pos = (609,994);
}
);
layerId = "62CA62AF-CD91-478A-AB8B-28A62CC47DA0";
shapes = (
{
closed = 1;
nodes = (
(97,50,o),
(274,-24,o),
(395,-24,cs),
(535,-24,o),
(660,21,o),
(747,124,c),
(747,109,ls),
(747,0,o),
(775,-25,o),
(899,-25,cs),
(1062,-25,o),
(1177,29,o),
(1199,44,cs),
(1203,47,o),
(1205,54,o),
(1205,62,cs),
(1205,86,o),
(1198,119,o),
(1175,119,cs),
(1167,119,o),
(1113,106,o),
(1094,106,cs),
(1072,106,o),
(1056,146,o),
(1056,198,cs),
(1056,736,ls),
(1056,895,o),
(927,1014,o),
(622,1014,cs),
(436,1014,o),
(144,948,o),
(144,776,cs),
(144,693,o),
(211,635,o),
(314,635,c),
(473,902,l),
(486,910,o),
(512,919,o),
(579,919,cs),
(668,919,o),
(730,890,o),
(730,763,cs),
(730,598,l),
(461,570,o),
(97,508,o),
(97,242,cs,{
name = hr00;
})
);
},
{
closed = 1;
nodes = (
(436,460,o),
(595,498,o),
(730,518,c),
(730,196,l),
(704,164,o),
(652,120,o),
(567,120,cs),
(479,120,o),
(436,185,o),
(436,252,cs)
);
}
);
width = 1220;
}
);
unicode = 97;
}
{
glyphname = b;
kernLeft = h;
kernRight = o;
layers = (
{
anchors = (
{
name = bottom;
pos = (567,0);
},
{
name = top;
pos = (782,950);
}
);
layerId = "DD6F9F34-BC40-4E8F-B1D3-DF3B42A9710F";
shapes = (
{
closed = 1;
nodes = (
(222,-32,o),
(277,20,o),
(311,74,c),
(367,-5,o),
(480,-30,o),
(603,-30,cs),
(912,-30,o),
(1055,223,o),
(1055,492,cs),
(1055,762,o),
(933,1013,o),
(625,1013,cs),
(525,1013,o),
(399,958,o),
(331,875,c),
(341,1104,l),
(341,1518,l),
(338,1550,o),
(322,1558,o),
(311,1558,cs),
(254,1558,o),
(129,1557,o),
(-4,1549,cs,{
name = "❌";
}),
(-20,1548,o),
(-28,1520,o),
(-28,1504,cs),
(-28,1479,o),
(-18,1470,o),
(-4,1464,c),
(50,1450,o),
(155,1463,o),
(155,1339,cs),
(155,12,ls),
(155,-17,o),
(162,-32,o),
(190,-32,cs)
);
},
{
closed = 1;
nodes = (
(455,65,o),
(379,99,o),
(341,170,c),
(341,808,l),
(385,867,o),
(485,918,o),
(562,918,cs),
(777,918,o),
(840,732,o),
(840,492,cs),
(840,252,o),
(781,65,o),
(566,65,cs)
);
}
);
width = 1147;
},
{
anchors = (
{
name = bottom;
pos = (655,0);
},
{
name = top;
pos = (887,994);
}
);
background = {
shapes = (
{
closed = 1;
nodes = (
(558,0,ls),
(581,0,o),
(592,26,o),
(592,41,cs),
(592,71,o),
(584,75,o),
(556,78,cs),
(507,83,o),
(459,88,o),
(459,165,cs),
(459,340,l),
(584,461,l),
(650,333,o),
(782,0,o),
(822,0,cs),
(1221,0,ls),
(1244,0,o),
(1255,26,o),
(1255,41,cs),
(1255,70,o),
(1244,75,o),
(1222,78,cs),
(1172,85,o),
(1114,132,o),
(1074,198,cs),
(993,332,o),
(889,494,o),
(804,666,c),
(991,837,l),
(1040,876,o),
(1115,906,o),
(1179,906,cs),
(1201,906,o),
(1212,925,o),
(1212,949,cs),
(1212,964,o),
(1201,994,o),
(1178,994,cs),
(721,994,ls),
(698,994,o),
(687,964,o),
(687,949,cs),
(687,928,o),
(691,909,o),
(718,906,c),
(771,903,o),
(842,884,o),
(842,857,cs),
(842,852,o),
(839,847,o),
(833,842,c),
(459,485,l),
(459,1508,ls),
(459,1540,o),
(440,1548,o),
(429,1548,cs),
(347,1548,o),
(188,1546,o),
(-1,1534,cs),
(-17,1533,o),
(-25,1506,o),
(-25,1490,cs),
(-25,1465,o),
(-15,1456,o),
(-1,1450,c),
(53,1436,o),
(148,1453,o),
(148,1329,cs),
(148,132,ls),
(148,95,o),
(101,82,o),
(52,78,c),
(26,75,o),
(19,62,o),
(19,41,cs,{
name = hr00;
}),
(19,26,o),
(30,0,o),
(53,0,cs)
);
}
);
};
layerId = "62CA62AF-CD91-478A-AB8B-28A62CC47DA0";
shapes = (
{
closed = 1;
nodes = (
(238,-32,o),
(214,-23,o),
(316,40,c),
(437,-21,o),
(606,-29,o),
(720,-29,cs),
(1064,-29,o),
(1230,224,o),
(1230,493,cs),
(1230,763,o),
(1111,1014,o),
(782,1014,cs),
(666,1014,o),
(516,970,o),
(453,877,c),
(458,1015,l),
(458,1502,l),
(465,1512,o),
(454,1550,o),
(433,1550,cs,{
name = "❌";
}),
(344,1550,o),
(79,1540,o),
(-1,1534,cs),
(-17,1533,o),
(-25,1506,o),
(-25,1490,cs),
(-25,1465,o),
(-15,1456,o),
(-1,1450,c),
(50,1436,o),
(148,1455,o),
(148,1331,cs),
(148,25,ls,{
name = hr00;
}),
(148,-4,o),
(155,-32,o),
(183,-32,cs)
);
},
{
closed = 1;
nodes = (
(560,76,o),
(475,135,o),
(458,164,c),
(458,776,l),
(492,838,o),
(578,869,o),
(639,869,cs),
(829,869,o),
(893,722,o),
(893,493,cs),
(893,235,o),
(829,76,o),
(623,76,cs)
);
}
);
width = 1322;
}
);
unicode = 98;
userData = {
com.typemytype.robofont.mark = (
0.967,
0.6,
1,
1
);
};
}
{
glyphname = d;
kernLeft = o;
kernRight = l;
layers = (
{
anchors = (
{
name = bottom;
pos = (580,0);
},
{
name = center;
pos = (580,497);
},
{
name = top;
pos = (292,917);
},
{
name = topright;
pos = (1198,994);
}
);
layerId = "DD6F9F34-BC40-4E8F-B1D3-DF3B42A9710F";
shapes = (
{
closed = 1;
nodes = (
(620,-29,o),
(739,21,o),
(809,97,c),
(808,34,o),
(810,0,o),
(885,0,cs),
(1109,0,ls),
(1131,0,o),
(1143,26,o),
(1143,41,cs),
(1143,71,o),
(1135,75,o),
(1107,78,cs),
(1058,83,o),
(995,89,o),
(995,175,cs),
(995,1518,l),
(992,1550,o),
(976,1558,o),
(965,1558,cs),
(908,1558,o),
(753,1557,o),
(620,1549,cs,{
name = "❌";
}),
(604,1548,o),
(596,1520,o),
(596,1504,cs),
(596,1479,o),
(606,1470,o),
(620,1464,c),
(674,1450,o),
(809,1463,o),
(809,1339,cs),
(809,1104,l),
(819,934,l),
(758,994,o),
(656,1014,o),
(547,1014,cs),
(231,1014,o),
(92,761,o),
(92,492,cs),
(92,222,o),
(210,-29,o),
(525,-29,cs)
);
},
{
closed = 1;
nodes = (
(365,66,o),
(306,253,o),
(306,492,cs),
(306,736,o),
(361,919,o),
(584,919,cs),
(695,919,o),
(771,885,o),
(809,814,c),
(809,176,l),
(765,117,o),
(665,66,o),
(588,66,cs)
);
}
);
width = 1176;
},
{
anchors = (
{
name = bottom;
pos = (668,0);
},
{
name = center;
pos = (668,497);
},
{
name = top;
pos = (345,880);
},
{
name = topright;
pos = (1390,994);
}
);
layerId = "62CA62AF-CD91-478A-AB8B-28A62CC47DA0";
shapes = (
{
closed = 1;
nodes = (
(659,-29,o),
(804,15,o),
(872,108,c),
(871,37,o),
(868,0,o),
(948,0,cs,{
name = hr02;
}),
(1292,0,ls),
(1314,0,o),
(1326,26,o),
(1326,41,cs),
(1326,71,o),
(1318,75,o),
(1290,78,cs),
(1241,83,o),
(1178,89,o),
(1178,175,cs),
(1178,1508,ls),
(1178,1540,o),
(1159,1549,o),
(1148,1549,cs,{
name = "❌";
}),
(1068,1549,o),
(850,1550,o),
(663,1538,cs),
(648,1537,o),
(639,1510,o),
(639,1494,cs),
(639,1469,o),
(649,1460,o),
(663,1454,c),
(775,1446,o),
(864,1425,o),
(864,1329,cs),
(864,1105,l),
(873,948,l),
(784,1002,o),
(713,1014,o),
(606,1014,cs),
(262,1014,o),
(96,761,o),
(96,492,cs,{
name = hr01;
}),
(96,222,o),
(215,-29,o),
(544,-29,cs)
);
},
{
closed = 1;
nodes = (
(497,116,o),
(433,273,o),
(433,492,cs),
(433,740,o),
(497,909,o),
(703,909,cs),
(766,909,o),
(847,850,o),
(864,801,c),
(864,209,l),
(829,147,o),
(748,116,o),
(687,116,cs)
);
}
);
width = 1358;
}
);
unicode = 100;
userData = {
com.typemytype.robofont.mark = (
0.967,
0.6,
1,
1
);
};
}
{
glyphname = k;
kernLeft = h;
kernRight = k;
layers = (
{
anchors = (
{
name = bottom;
pos = (529,0);
},
{
name = top;
pos = (246,1515);
}
);
layerId = "DD6F9F34-BC40-4E8F-B1D3-DF3B42A9710F";
shapes = (
{
closed = 1;
nodes = (
(479,0,ls),
(501,0,o),
(513,26,o),
(513,41,cs),
(513,71,o),
(505,75,o),
(477,78,cs),
(428,83,o),
(365,89,o),
(365,175,cs),
(365,342,l),
(513,492,l),
(582,362,o),
(709,137,o),
(789,0,c),
(1053,0,ls),
(1076,0,o),
(1087,26,o),
(1087,41,cs),
(1087,70,o),
(1076,78,o),
(1054,78,cs),
(1020,78,o),
(990,101,o),
(961,137,cs),
(843,283,o),
(707,532,o),
(654,626,c),
(833,819,l),
(883,858,o),
(955,906,o),
(1020,906,cs),
(1042,906,o),
(1053,925,o),
(1053,949,cs),
(1053,964,o),
(1042,994,o),
(1019,994,cs),
(612,994,ls),
(589,994,o),
(578,964,o),
(578,949,cs),
(578,928,o),
(583,909,o),
(609,906,c),
(660,903,o),
(740,891,o),
(740,863,cs),
(740,857,o),
(736,850,o),
(725,842,c),
(365,469,l),
(365,1518,l),
(362,1550,o),
(346,1558,o),
(335,1558,cs),
(278,1557,o),
(163,1557,o),
(30,1549,cs,{
name = L;
}),
(14,1548,o),
(6,1520,o),
(6,1504,cs),
(6,1479,o),
(16,1470,o),
(30,1464,c),
(84,1450,o),
(179,1463,o),
(179,1339,cs),
(179,142,ls),
(179,98,o),
(112,83,o),
(63,78,cs),
(37,75,o),
(30,62,o),
(30,41,cs),
(30,26,o),
(41,0,o),
(64,0,cs)
);
}
);
width = 1097;
},
{
anchors = (
{
name = bottom;
pos = (637,0);
},
{
name = top;
pos = (325,1514);
}
);
layerId = "62CA62AF-CD91-478A-AB8B-28A62CC47DA0";
shapes = (
{
closed = 1;
nodes = (
(588,0,ls),
(611,0,o),
(622,26,o),
(622,41,cs),
(622,71,o),
(614,75,o),
(586,78,cs),
(537,83,o),
(489,88,o),
(489,165,cs),
(489,340,l),
(614,461,l),
(680,333,o),
(812,0,o),
(852,0,cs),
(1251,0,ls),
(1274,0,o),
(1285,26,o),
(1285,41,cs),
(1285,70,o),
(1274,75,o),
(1252,78,cs),
(1202,85,o),
(1144,132,o),
(1104,198,cs),
(1023,332,o),
(919,494,o),
(834,666,c),
(1021,837,l),
(1070,876,o),
(1145,906,o),
(1209,906,cs),
(1231,906,o),
(1242,925,o),
(1242,949,cs),
(1242,964,o),
(1231,994,o),
(1208,994,cs),
(751,994,ls),
(728,994,o),
(717,964,o),
(717,949,cs),
(717,928,o),
(721,909,o),
(748,906,c),
(801,903,o),
(872,884,o),
(872,857,cs),
(872,852,o),
(869,847,o),
(863,842,c),
(489,485,l),
(489,1508,ls),
(489,1540,o),
(470,1549,o),
(459,1549,cs,{
name = L;
}),
(377,1549,o),
(218,1546,o),
(29,1534,cs),
(13,1533,o),
(5,1506,o),
(5,1490,cs),
(5,1465,o),
(15,1456,o),
(29,1450,c),
(83,1436,o),
(178,1453,o),
(178,1329,cs),
(178,132,ls),
(178,95,o),
(131,82,o),
(82,78,c),
(56,75,o),
(49,62,o),
(49,41,cs,{
name = hr00;
}),
(49,26,o),
(60,0,o),
(83,0,cs)
);
}
);
width = 1294;
}
);
unicode = 107;
}
{
glyphname = n;
kernLeft = n;
kernRight = n;
layers = (
{
anchors = (
{
name = bottom;
pos = (622,0);
},
{
name = top;
pos = (622,994);
}
);
layerId = "DD6F9F34-BC40-4E8F-B1D3-DF3B42A9710F";
shapes = (
{
closed = 1;
nodes = (
(518,0,ls),
(540,0,o),
(552,26,o),
(552,41,cs),
(552,71,o),
(544,75,o),
(516,78,cs),
(467,83,o),
(404,89,o),
(404,175,cs),
(404,771,l),
(459,822,o),
(577,896,o),
(702,896,cs),
(820,896,o),
(831,829,o),
(831,795,cs),
(831,142,ls),
(831,104,o),
(767,81,o),
(725,78,cs),
(699,76,o),
(694,62,o),
(694,41,cs),
(694,26,o),
(705,0,o),
(728,0,cs),
(1155,0,ls),
(1178,0,o),
(1189,26,o),
(1189,41,cs),
(1189,70,o),
(1178,75,o),
(1156,78,cs),
(1106,85,o),
(1019,79,o),
(1019,175,cs),
(1019,766,ls),
(1019,974,o),
(909,1014,o),
(779,1014,cs),
(591,1014,o),
(429,880,o),
(394,845,c),
(394,957,l),
(391,989,o),
(375,997,o),
(364,997,cs),
(309,997,o),
(198,996,o),
(69,988,cs,{
name = "❌";
}),
(53,987,o),
(45,959,o),
(45,943,cs),
(45,918,o),
(55,909,o),
(69,903,c),
(119,889,o),
(218,902,o),
(218,778,cs),
(218,142,ls),
(218,98,o),
(151,84,o),
(102,78,cs),
(76,75,o),
(69,62,o),
(69,41,cs),
(69,26,o),
(80,0,o),
(103,0,cs)
);
}
);
width = 1210;
},
{
anchors = (
{
name = bottom;
pos = (714,0);
},
{
name = top;
pos = (714,994);
}
);
layerId = "62CA62AF-CD91-478A-AB8B-28A62CC47DA0";
shapes = (
{
closed = 1;
nodes = (
(630,0,ls),
(652,0,o),
(664,26,o),
(664,41,cs),
(664,71,o),
(656,75,o),
(628,78,cs),
(579,83,o),
(524,89,o),
(524,175,cs),
(524,737,l),
(571,788,o),
(688,862,o),
(796,862,cs),
(915,862,o),
(915,760,o),
(915,711,cs),
(915,142,ls),
(915,104,o),
(861,83,o),
(819,78,cs),
(792,75,o),
(788,62,o),
(788,41,cs),
(788,26,o),
(799,0,o),
(822,0,cs),
(1359,0,ls),
(1382,0,o),
(1393,26,o),
(1393,41,cs),
(1393,70,o),
(1382,75,o),
(1360,78,cs),
(1310,85,o),
(1233,79,o),
(1233,175,cs),
(1233,716,ls),
(1233,964,o),
(1081,1014,o),
(911,1014,cs),
(733,1014,o),
(552,890,o),
(514,845,c),
(514,957,l,{
name = hr02;
}),
(511,989,o),
(495,997,o),
(484,997,cs),
(406,997,o),
(245,994,o),
(61,983,cs),
(45,982,o),
(37,955,o),
(37,939,cs),
(37,914,o),
(47,905,o),
(61,899,c),
(111,885,o),
(210,902,o),
(210,778,cs),
(210,142,ls),
(210,98,o),
(153,84,o),
(104,78,cs),
(78,75,o),
(71,62,o),
(71,41,cs,{
name = hr01;
}),
(71,26,o),
(82,0,o),
(105,0,cs)
);
}
);
width = 1413;
}
);
unicode = 110;
userData = {
com.typemytype.robofont.mark = (
0.967,
0.6,
1,
1
);
};
}
{
glyphname = r;
kernLeft = n;
kernRight = r;
layers = (
{
anchors = (
{
name = bottom;
pos = (348,0);
},
{
name = top;
pos = (427,994);
}
);
layerId = "DD6F9F34-BC40-4E8F-B1D3-DF3B42A9710F";
shapes = (
{
closed = 1;
nodes = (
(594,0,ls),
(617,0,o),
(628,26,o),
(628,41,cs),
(628,71,o),
(620,75,o),
(592,78,cs),
(523,83,o),
(420,89,o),
(420,175,cs),
(420,716,l),
(455,804,o),
(533,882,o),
(593,882,c),
(688,762,l),
(728,762,o),
(816,797,o),
(816,873,cs),
(816,942,o),
(794,1014,o),
(666,1014,cs),
(546,1014,o),
(472,915,o),
(410,818,c),
(410,963,l),
(407,995,o),
(391,1003,o),
(380,1003,cs),
(323,1002,o),
(218,994,o),
(85,986,cs,{
name = L;
}),
(70,985,o),
(61,959,o),
(61,943,cs),
(61,918,o),
(71,909,o),
(85,903,c),
(139,889,o),
(234,902,o),
(234,778,cs),
(234,142,ls),
(234,98,o),
(172,83,o),
(118,78,cs),
(92,75,o),
(85,62,o),
(85,41,cs),
(85,26,o),
(96,0,o),
(119,0,cs)
);
}
);
width = 839;
},
{
anchors = (
{
name = bottom;
pos = (385,0);
},
{
name = top;
pos = (542,994);
}
);
layerId = "62CA62AF-CD91-478A-AB8B-28A62CC47DA0";
shapes = (
{
closed = 1;
nodes = (
(716,0,ls),
(739,0,o),
(750,26,o),
(750,41,cs),
(750,71,o),
(742,75,o),
(714,78,cs),
(635,86,o),
(533,88,o),
(533,165,cs),
(533,612,l),
(576,718,o),
(660,833,o),
(755,833,c),
(901,642,l),
(965,642,o),
(1048,730,o),
(1048,832,cs),
(1048,923,o),
(1003,1014,o),
(880,1014,cs),
(717,1014,o),
(576,878,o),
(521,754,c),
(521,957,l,{
name = hr02;
}),
(518,989,o),
(502,997,o),
(491,997,cs),
(410,996,o),
(258,995,o),
(68,987,cs),
(53,986,o),
(44,959,o),
(44,943,cs),
(44,918,o),
(54,909,o),
(68,903,c),
(122,889,o),
(217,902,o),
(217,778,cs),
(217,132,ls),
(217,95,o),
(155,82,o),
(101,78,cs),
(75,75,o),
(68,62,o),
(68,41,cs,{
name = hr01;
}),
(68,26,o),
(79,0,o),
(102,0,cs)
);
}
);
width = 1065;
}
);
unicode = 114;
}
{
glyphname = s;
kernLeft = s;
kernRight = s;
layers = (
{
anchors = (
{
name = bottom;
pos = (436,0);
},
{
name = top;
pos = (444,994);
}
);
layerId = "DD6F9F34-BC40-4E8F-B1D3-DF3B42A9710F";
shapes = (
{
closed = 1;
nodes = (
(676,-28,o),
(814,97,o),
(814,283,cs),
(814,440,o),
(669,514,o),
(514,588,cs),
(387,650,o),
(276,704,o),
(276,795,cs),
(276,876,o),
(334,928,o),
(444,928,cs),
(611,928,o),
(660,802,o),
(694,722,cs),
(697,713,o),
(711,706,o),
(724,706,cs),
(738,706,o),
(752,715,o),
(752,743,cs),
(752,762,o),
(746,802,o),
(746,865,cs),
(746,925,o),
(749,982,o),
(749,994,cs),
(749,1016,o),
(733,1029,o),
(716,1029,cs),
(704,1029,o),
(692,1022,o),
(684,1008,cs),
(676,994,o),
(678,975,o),
(649,975,cs),
(615,975,o),
(567,1014,o),
(440,1014,cs),
(297,1014,o),
(111,927,o),
(111,749,cs),
(111,569,o),
(234,493,o),
(368,425,cs),
(492,362,o),
(633,322,o),
(633,201,cs),
(633,107,o),
(542,57,o),
(426,57,cs),
(351,57,o),
(251,83,o),
(199,178,cs),
(148,274,o),
(143,308,o),
(135,337,cs),
(131,351,o),
(117,359,o),
(102,359,cs),
(85,359,o),
(68,347,o),
(68,316,cs),
(68,259,o),
(82,130,o),
(82,44,cs),
(82,22,o),
(99,10,o),
(122,10,cs),
(150,10,o),
(155,23,o),
(181,23,cs),
(196,23,o),
(215,18,o),
(241,10,cs),
(278,-1,o),
(330,-28,o),
(439,-28,cs)
);
}
);
width = 885;
},
{
anchors = (
{
name = bottom;
pos = (534,0);
},
{
name = top;
pos = (533,994);
}
);
background = {
shapes = (
{
closed = 0;
nodes = (
(542,54,ls),
(605,54,o),
(680,83,o),
(680,169,cs),
(680,261,o),
(618,311,o),
(466,362,cs)
);
}
);
};
layerId = "62CA62AF-CD91-478A-AB8B-28A62CC47DA0";
shapes = (
{
closed = 1;
nodes = (
(825,-30,o),
(993,78,o),
(993,279,cs),
(993,475,o),
(813,566,o),
(625,628,cs),
(470,679,o),
(399,726,o),
(399,818,cs),
(399,904,o),
(483,928,o),
(547,928,cs),
(736,928,o),
(792,783,o),
(820,698,cs),
(824,686,o),
(843,678,o),
(864,678,cs),
(892,678,o),
(917,693,o),
(917,733,cs),
(917,764,o),
(912,804,o),
(912,843,cs),
(912,906,o),
(915,967,o),
(915,979,cs),
(915,1001,o),
(887,1014,o),
(858,1014,cs),
(838,1014,o),
(817,1007,o),
(809,993,cs,{
name = "❌";
}),
(801,978,o),
(803,960,o),
(774,960,cs),
(745,960,o),
(662,1014,o),
(535,1014,cs),
(293,1014,o),
(110,878,o),
(110,703,cs),
(110,528,o),
(262,436,o),
(390,391,cs),
(617,311,o),
(685,259,o),
(685,169,cs),
(685,93,o),
(616,55,o),
(506,55,cs),
(349,55,o),
(265,160,o),
(238,216,cs),
(206,282,o),
(195,318,o),
(187,347,cs),
(183,361,o),
(163,369,o),
(141,369,cs),
(116,369,o),
(89,357,o),
(89,326,cs),
(89,269,o),
(98,56,o),
(98,24,cs,{
name = hr01;
}),
(98,6,o),
(123,-6,o),
(149,-6,cs),
(207,-6,o),
(190,38,o),
(244,38,cs),
(253,38,o),
(263,36,o),
(275,30,cs,{
name = hr02;
}),
(311,12,o),
(406,-30,o),
(518,-30,cs)
);
}
);
width = 1050;
}
);
unicode = 115;
}
{
glyphname = u;
kernLeft = u;
kernRight = u;
layers = (
{
anchors = (
{
name = bottom;
pos = (621,0);
},
{
name = ogonek;
pos = (1042,10);
},
{
name = top;
pos = (581,994);
},
{
name = topright;
pos = (1140,994);
}
);
layerId = "DD6F9F34-BC40-4E8F-B1D3-DF3B42A9710F";
shapes = (
{
closed = 1;
nodes = (
(622,-27,o),
(760,66,o),
(795,131,c),
(805,20,o),
(845,-25,o),
(911,-25,cs),
(1019,-25,o),
(1090,22,o),
(1103,37,c),
(1107,40,o),
(1109,46,o),
(1109,53,cs),
(1109,73,o),
(1092,103,o),
(1069,96,cs),
(1053,91,o),
(1041,88,o),
(1022,88,cs),
(1000,88,o),
(981,113,o),
(981,210,cs),
(981,950,ls),
(981,971,o),
(972,986,o),
(944,986,cs),
(641,986,ls),
(619,986,o),
(607,960,o),
(607,945,cs),
(607,915,o),
(615,911,o),
(643,908,cs),
(710,901,o),
(795,897,o),
(795,811,cs),
(795,220,l),
(730,150,o),
(655,113,o),
(520,113,cs),
(402,113,o),
(391,212,o),
(391,261,cs),
(391,950,ls),
(391,971,o),
(382,986,o),
(354,986,cs),
(83,986,ls),
(61,986,o),
(49,960,o),
(49,945,cs),
(49,915,o),
(57,911,o),
(85,908,cs),
(134,903,o),
(203,897,o),
(203,811,cs),
(203,270,ls),
(203,22,o),
(344,-27,o),
(489,-27,cs)
);
}
);
width = 1178;
},
{
anchors = (
{
name = bottom;
pos = (689,0);
},
{
name = ogonek;
pos = (1223,10);
},
{
name = top;
pos = (685,994);
},
{
name = topright;
pos = (1342,994);
}
);
layerId = "62CA62AF-CD91-478A-AB8B-28A62CC47DA0";
shapes = (
{
closed = 1;
nodes = (
(674,-27,o),
(827,56,o),
(891,147,c),
(890,92,o),
(900,-25,o),
(1033,-25,cs),
(1201,-25,o),
(1290,17,o),
(1320,37,cs),
(1323,39,o),
(1325,46,o),
(1325,54,cs),
(1325,84,o),
(1308,137,o),
(1286,126,cs),
(1272,119,o),
(1253,118,o),
(1234,118,cs),
(1212,118,o),
(1190,128,o),
(1190,222,cs),
(1190,958,ls),
(1190,979,o),
(1180,994,o),
(1153,994,cs),
(730,994,ls),
(707,994,o),
(696,968,o),
(696,953,cs),
(696,923,o),
(704,919,o),
(732,916,c),
(796,911,o),
(874,905,o),
(874,819,cs),
(874,238,l),
(809,168,o),
(734,127,o),
(619,127,cs),
(537,127,o),
(508,223,o),
(508,361,cs),
(508,958,ls),
(508,979,o),
(499,994,o),
(471,994,cs),
(80,994,ls),
(58,994,o),
(46,968,o),
(46,953,cs),
(46,923,o),
(54,919,o),
(82,916,cs),
(131,911,o),
(192,905,o),
(192,819,cs),
(192,270,ls,{
name = hr00;
}),
(192,22,o),
(337,-27,o),
(528,-27,cs)
);
}
);
width = 1386;
}
);
unicode = 117;
}
{
glyphname = v;
kernLeft = v;
kernRight = v;
layers = (
{
anchors = (
{
name = bottom;
pos = (509,0);
},
{
name = top;
pos = (509,994);
}
);
layerId = "DD6F9F34-BC40-4E8F-B1D3-DF3B42A9710F";
shapes = (
{
closed = 1;
nodes = (
(547,-9,l),
(894,829,l),
(934,895,o),
(967,911,o),
(1016,916,cs),
(1044,919,o),
(1052,923,o),
(1052,953,cs),
(1052,968,o),
(1040,994,o),
(1018,994,cs),
(683,994,ls),
(660,994,o),
(649,968,o),
(649,953,cs),
(649,932,o),
(656,919,o),
(682,916,cs),
(731,910,o),
(808,906,o),
(808,862,c),
(565,250,l),
(320,862,l),
(320,906,o),
(377,910,o),
(426,916,cs),
(452,919,o),
(459,932,o),
(459,953,cs),
(459,968,o),
(448,994,o),
(425,994,cs),
(0,994,ls),
(-22,994,o),
(-34,968,o),
(-34,953,cs),
(-34,923,o),
(-26,919,o),
(2,916,cs),
(51,911,o),
(84,895,o),
(124,829,c),
(473,-9,l)
);
}
);
width = 1017;
},
{
anchors = (
{
name = bottom;
pos = (605,0);
},
{
name = top;
pos = (605,994);
}
);
layerId = "62CA62AF-CD91-478A-AB8B-28A62CC47DA0";
shapes = (
{
closed = 1;
nodes = (
(696,-9,l),
(1075,829,ls),
(1107,899,o),
(1148,911,o),
(1197,916,cs),
(1225,919,o),
(1233,923,o),
(1233,953,cs),
(1233,968,o),
(1221,994,o),
(1199,994,cs),
(834,994,ls),
(811,994,o),
(800,968,o),
(800,953,cs),
(800,932,o),
(807,919,o),
(833,916,cs),
(878,911,o),
(958,904,o),
(958,872,c),
(705,256,l),
(436,875,l),
(436,903,o),
(487,908,o),
(555,916,cs),
(581,919,o),
(588,932,o),
(588,953,cs),
(588,968,o),
(577,994,o),
(554,994,cs),
(-15,994,ls),
(-37,994,o),
(-49,968,o),
(-49,953,cs),
(-49,923,o),
(-41,919,o),
(-13,916,cs),
(36,911,o),
(65,898,o),
(99,829,cs),
(508,-9,l,{
name = hr00;
})
);
}
);
width = 1161;
}
);
unicode = 118;
}
{
glyphname = y;
kernLeft = y;
kernRight = y;
layers = (
{
anchors = (
{
name = bottom;
pos = (836,61);
},
{
name = top;
pos = (509,994);
}
);
layerId = "DD6F9F34-BC40-4E8F-B1D3-DF3B42A9710F";
shapes = (
{
closed = 1;
nodes = (
(435,-449,o),
(533,-165,o),
(589,-9,cs),
(892,829,l),
(932,895,o),
(955,911,o),
(1004,916,cs),
(1032,919,o),
(1040,923,o),
(1040,953,cs),
(1040,968,o),
(1028,994,o),
(1006,994,cs),
(671,994,ls),
(648,994,o),
(637,968,o),
(637,953,cs),
(637,932,o),
(644,919,o),
(670,916,cs),
(719,910,o),
(786,906,o),
(786,862,c),
(566,199,l),
(322,862,l),
(322,906,o),
(379,911,o),
(428,916,cs),
(454,919,o),
(461,932,o),
(461,953,cs),
(461,968,o),
(450,994,o),
(427,994,cs),
(14,994,ls),
(-8,994,o),
(-19,968,o),
(-19,953,cs),
(-19,923,o),
(-11,919,o),
(17,916,cs),
(66,911,o),
(99,895,o),
(139,829,c),
(477,-28,l),
(393,-261,o),
(331,-316,o),
(280,-326,c),
(156,-204,l),
(127,-204,o),
(70,-235,o),
(70,-326,cs),
(70,-395,o),
(151,-449,o),
(246,-449,cs)
);
}
);
width = 1008;
},
{
anchors = (
{
name = bottom;
pos = (945,84);
},
{
name = top;
pos = (632,994);
}
);
layerId = "62CA62AF-CD91-478A-AB8B-28A62CC47DA0";
shapes = (
{
closed = 1;
nodes = (
(511,-449,o),
(617,-172,o),
(753,156,cs),
(1032,829,ls),
(1062,900,o),
(1095,911,o),
(1144,916,cs),
(1172,919,o),
(1180,923,o),
(1180,953,cs),
(1180,968,o),
(1168,994,o),
(1146,994,cs),
(791,994,ls),
(768,994,o),
(757,968,o),
(757,953,cs),
(757,932,o),
(764,919,o),
(790,916,cs),
(835,911,o),
(903,904,o),
(903,872,c),
(696,282,l),
(465,873,l),
(465,904,o),
(529,911,o),
(573,916,cs),
(599,919,o),
(606,932,o),
(606,953,cs),
(606,968,o),
(595,994,o),
(572,994,cs),
(5,994,ls),
(-17,994,o),
(-28,968,o),
(-28,953,cs),
(-28,923,o),
(-20,919,o),
(8,916,cs),
(57,911,o),
(97,899,o),
(130,829,cs),
(541,-39,l),
(453,-197,o),
(400,-283,o),
(287,-283,c),
(175,-156,l,{
name = hr00;
}),
(107,-156,o),
(63,-206,o),
(63,-279,cs),
(63,-376,o),
(180,-449,o),
(274,-449,cs)
);
}
);
width = 1151;
}
);
unicode = 121;
}
{
glyphname = z;
kernLeft = z;
kernRight = z;
layers = (
{
anchors = (
{
name = bottom;
pos = (457,0);
},
{
name = top;
pos = (470,994);
}
);
layerId = "DD6F9F34-BC40-4E8F-B1D3-DF3B42A9710F";
shapes = (
{
closed = 1;
nodes = (
(782,0,l),
(802,1,o),
(829,15,o),
(829,41,c),
(849,339,ls),
(851,362,o),
(833,373,o),
(818,373,cs),
(797,373,o),
(784,366,o),
(781,340,cs),
(775,291,o),
(701,83,o),
(613,83,c),
(199,83,l),
(218,35,l),
(344,193,l),
(821,891,ls),
(831,906,o),
(847,929,o),
(847,957,cs),
(847,976,o),
(829,994,o),
(813,994,cs),
(135,994,l),
(115,993,o),
(88,977,o),
(88,953,c),
(68,665,ls),
(66,642,o),
(84,631,o),
(99,631,cs),
(120,631,o),
(133,638,o),
(136,664,cs),
(142,713,o),
(201,911,o),
(289,911,c),
(652,911,l),
(646,942,l),
(552,821,l),
(76,123,ls),
(51,86,o),
(34,63,o),
(34,40,cs),
(34,12,o),
(55,0,o),
(71,0,cs)
);
}
);
width = 909;
},
{
anchors = (
{
name = bottom;
pos = (536,0);
},
{
name = top;
pos = (576,994);
}
);
layerId = "62CA62AF-CD91-478A-AB8B-28A62CC47DA0";
shapes = (
{
closed = 1;
nodes = (
(943,0,l),
(963,1,o),
(988,15,o),
(990,41,cs),
(1010,339,ls),
(1012,362,o),
(989,373,o),
(974,373,cs),
(931,373,o),
(899,366,o),
(896,340,cs),
(890,291,o),
(812,96,o),
(704,93,cs),
(366,84,l),
(371,48,l),
(492,189,l),
(970,839,ls),
(998,877,o),
(1017,917,o),
(1017,940,cs),
(1017,968,o),
(1007,994,o),
(965,994,cs),
(154,994,l),
(134,993,o),
(109,975,o),
(107,951,cs),
(87,653,ls),
(85,630,o),
(103,619,o),
(118,619,cs),
(139,619,o),
(192,626,o),
(195,652,cs),
(201,701,o),
(275,909,o),
(393,909,cs),
(696,909,l),
(689,944,l),
(590,838,l),
(94,178,l),
(58,124,o),
(37,93,o),
(37,60,cs),
(37,32,o),
(58,0,o),
(85,0,cs)
);
}
);
width = 1076;
}
);
unicode = 122;
}
{
glyphname = bar;
kernLeft = bar;
kernRight = bar;
layers = (
{
layerId = "DD6F9F34-BC40-4E8F-B1D3-DF3B42A9710F";
shapes = (
{
closed = 1;
nodes = (
(457,-367,l),
(457,1535,l),
(312,1535,l),
(312,-367,l)
);
}
);
width = 768;
},
{
layerId = "62CA62AF-CD91-478A-AB8B-28A62CC47DA0";
shapes = (
{
closed = 1;
nodes = (
(475,-367,l),
(475,1535,l),
(320,1535,l),
(320,-367,l,{
name = hr00;
})
);
}
);
width = 794;
}
);
unicode = 124;
}
{
glyphname = braceright;
kernLeft = braceright;
kernRight = braceright;
layers = (
{
layerId = "DD6F9F34-BC40-4E8F-B1D3-DF3B42A9710F";
shapes = (
{
closed = 1;
nodes = (
(333,-328,o),
(520,-251,o),
(520,-29,cs),
(520,358,ls),
(520,467,o),
(634,549,o),
(739,549,cs),
(809,549,l),
(809,659,l),
(739,659,ls),
(634,659,o),
(520,741,o),
(520,850,cs),
(520,1237,ls),
(520,1459,o),
(333,1536,o),
(193,1536,cs),
(60,1536,l),
(60,1449,l),
(173,1449,ls),
(281,1449,o),
(319,1356,o),
(319,1280,cs),
(319,883,ls),
(319,720,o),
(479,616,o),
(651,609,c),
(651,604,l),
(489,588,o),
(319,480,o),
(319,325,cs),
(319,-72,ls),
(319,-148,o),
(281,-241,o),
(173,-241,cs),
(60,-241,l),
(60,-328,l),
(193,-328,ls)
);
}
);
width = 881;
},
{
layerId = "62CA62AF-CD91-478A-AB8B-28A62CC47DA0";
shapes = (
{
closed = 1;
nodes = (
(476,-328,o),
(713,-251,o),
(713,-29,cs,{
name = hr01;
}),
(713,358,ls,{
name = hr05;
}),
(713,467,o),
(827,554,o),
(932,554,cs),
(952,554,l),
(952,654,l,{
name = hr04;
}),
(932,654,ls),
(827,654,o),
(713,741,o),
(713,850,cs),
(713,1237,ls),
(713,1459,o),
(476,1536,o),
(296,1536,cs),
(123,1536,l),
(123,1429,l),
(236,1429,ls),
(346,1429,o),
(382,1336,o),
(382,1260,cs),
(382,883,ls,{
name = hr03;
}),
(382,723,o),
(554,628,o),
(734,618,c,{
name = hr02;
}),
(734,587,l),
(550,579,o),
(382,488,o),
(382,325,cs),
(382,-52,ls),
(382,-128,o),
(344,-221,o),
(236,-221,cs),
(123,-221,l),
(123,-328,l),
(296,-328,ls)
);
}
);
width = 1024;
}
);
unicode = 125;
}
{
glyphname = cent;
kernLeft = o;
kernRight = c;
layers = (
{
layerId = "DD6F9F34-BC40-4E8F-B1D3-DF3B42A9710F";
shapes = (
{
closed = 1;
nodes = (
(624,-228,l),
(624,-27,l),
(771,-15,o),
(866,64,o),
(918,173,cs),
(920,177,o),
(924,183,o),
(924,189,cs),
(924,193,o),
(921,198,o),
(913,201,c),
(863,224,l),
(850,227,o),
(848,216,o),
(844,208,cs),
(798,123,o),
(711,75,o),
(610,75,cs),
(505,75,o),
(356,178,o),
(356,490,cs),
(356,815,o),
(466,918,o),
(628,918,cs),
(685,918,o),
(712,897,o),
(712,897,c),
(796,710,ls),
(816,666,o),
(839,662,o),
(878,662,cs),
(913,662,o),
(949,697,o),
(949,757,cs),
(949,792,o),
(937,836,o),
(906,887,cs),
(846,986,o),
(734,1012,o),
(624,1014,c),
(624,1225,l),
(518,1225,l),
(518,1006,l),
(300,967,o),
(141,793,o),
(141,500,cs),
(141,201,o),
(269,4,o),
(518,-25,c),
(518,-228,l)
);
}
);
width = 1137;
},
{
layerId = "62CA62AF-CD91-478A-AB8B-28A62CC47DA0";
shapes = (
{
closed = 1;
nodes = (
(752,-228,l),
(752,-27,l),
(873,-16,o),
(1029,61,o),
(1087,173,cs),
(1091,180,o),
(1093,185,o),
(1093,190,cs),
(1093,195,o),
(1090,199,o),
(1083,202,cs),
(1039,223,l),
(1026,226,o),
(1019,215,o),
(1013,208,cs),
(953,141,o),
(864,105,o),
(749,105,cs),
(622,105,o),
(475,224,o),
(475,490,cs),
(475,825,o),
(573,929,o),
(684,929,cs),
(762,929,o),
(754,912,o),
(754,912,c),
(871,670,ls),
(882,646,o),
(922,613,o),
(968,613,cs),
(1014,613,o),
(1103,652,o),
(1103,753,cs),
(1103,774,o),
(1099,797,o),
(1090,824,cs),
(1045,955,o),
(939,1008,o),
(754,1013,c),
(754,1225,l),
(638,1225,l),
(638,1009,l,{
name = hr02;
}),
(355,980,o),
(130,804,o),
(130,500,cs,{
name = hr01;
}),
(130,199,o),
(280,1,o),
(636,-25,c),
(636,-228,l)
);
}
);
width = 1240;
}
);
unicode = 162;
}
{
glyphname = currency;
kernLeft = currency;
kernRight = currency;
layers = (
{
layerId = "DD6F9F34-BC40-4E8F-B1D3-DF3B42A9710F";
shapes = (
{
closed = 1;
nodes = (
(387,261,l),
(444,229,o),
(511,211,o),
(584,211,cs),
(657,211,o),
(725,230,o),
(783,262,c),
(945,97,l),
(1070,213,l),
(909,377,l),
(947,434,o),
(970,502,o),
(970,575,cs),
(970,648,o),
(948,716,o),
(910,773,c),
(1070,936,l),
(945,1053,l),
(783,889,l),
(727,920,o),
(660,939,o),
(588,939,cs),
(514,939,o),
(446,920,o),
(388,887,c),
(225,1053,l),
(100,936,l),
(261,772,l),
(222,715,o),
(200,647,o),
(200,575,cs),
(200,502,o),
(222,434,o),
(261,377,c),
(100,213,l,{
name = hr00;
}),
(225,97,l)
);
},
{
closed = 1;
nodes = (
(483,364,o),
(392,433,o),
(392,575,cs),
(392,717,o),
(480,786,o),
(583,786,cs),
(685,786,o),
(777,717,o),
(777,575,cs),
(777,433,o),
(688,364,o),
(586,364,cs)
);
}
);
width = 1170;
},
{
layerId = "62CA62AF-CD91-478A-AB8B-28A62CC47DA0";
shapes = (
{
closed = 1;
nodes = (
(480,261,l),
(537,229,o),
(604,211,o),
(677,211,cs),
(750,211,o),
(818,230,o),
(876,262,c),
(1038,97,l),
(1163,213,l),
(1002,377,l),
(1040,434,o),
(1063,502,o),
(1063,575,cs),
(1063,648,o),
(1041,716,o),
(1003,773,c),
(1163,936,l),
(1038,1053,l),
(876,889,l),
(820,920,o),
(753,939,o),
(681,939,cs),
(607,939,o),
(539,920,o),
(481,887,c),
(318,1053,l),
(193,936,l),
(354,772,l),
(315,715,o),
(293,647,o),
(293,575,cs),
(293,502,o),
(315,434,o),
(354,377,c),
(193,213,l,{
name = hr00;
}),
(318,97,l)
);
},
{
closed = 1;
nodes = (
(576,364,o),
(485,433,o),
(485,575,cs),
(485,717,o),
(573,786,o),
(676,786,cs),
(778,786,o),
(870,717,o),
(870,575,cs),
(870,433,o),
(781,364,o),
(679,364,cs)
);
}
);
width = 1440;
}
);
unicode = 164;
}
{
glyphname = yen;
kernLeft = yen;
kernRight = yen;
layers = (
{
layerId = "DD6F9F34-BC40-4E8F-B1D3-DF3B42A9710F";
shapes = (
{
closed = 1;
nodes = (
(891,0,ls),
(913,0,o),
(925,16,o),
(925,31,cs),
(925,61,o),
(917,65,o),
(889,68,cs),
(822,73,o),
(731,79,o),
(731,165,cs),
(731,300,l),
(1092,300,l),
(1106,306,o),
(1116,348,o),
(1116,373,cs),
(1116,389,o),
(1108,406,o),
(1092,407,c),
(731,407,l),
(731,634,l),
(1093,634,l),
(1107,640,o),
(1117,682,o),
(1117,707,cs),
(1117,723,o),
(1109,740,o),
(1093,741,c),
(754,741,l),
(1116,1254,l),
(1161,1336,o),
(1218,1346,o),
(1267,1351,cs),
(1295,1354,o),
(1303,1358,o),
(1303,1388,cs),
(1303,1403,o),
(1291,1419,o),
(1269,1419,cs),
(874,1419,ls),
(851,1419,o),
(840,1403,o),
(840,1388,cs),
(840,1367,o),
(847,1354,o),
(873,1351,c),
(951,1347,o),
(1006,1335,o),
(1006,1304,cs),
(1006,1299,o),
(1004,1293,o),
(1001,1287,c),
(675,798,l),
(353,1287,l),
(350,1293,o),
(348,1299,o),
(348,1304,cs),
(348,1336,o),
(403,1347,o),
(486,1351,c),
(512,1354,o),
(519,1367,o),
(519,1388,cs),
(519,1403,o),
(508,1419,o),
(485,1419,cs),
(-10,1419,ls),
(-32,1419,o),
(-44,1403,o),
(-44,1388,cs),
(-44,1358,o),
(-36,1354,o),
(-8,1351,cs),
(41,1346,o),
(113,1337,o),
(158,1254,c),
(534,741,l),
(164,741,l),
(150,735,o),
(140,713,o),
(140,688,cs),
(140,672,o),
(148,635,o),
(164,634,c),
(551,634,l),
(551,407,l),
(163,407,l),
(149,401,o),
(139,379,o),
(139,354,cs),
(139,338,o),
(147,301,o),
(163,300,c),
(551,300,l),
(551,152,ls),
(551,81,o),
(452,73,o),
(385,68,c),
(360,65,o),
(352,52,o),
(352,31,cs),
(352,16,o),
(363,0,o),
(386,0,cs)
);
}
);
width = 1259;
},
{
layerId = "62CA62AF-CD91-478A-AB8B-28A62CC47DA0";
shapes = (
{
closed = 1;
nodes = (
(1136,0,ls),
(1158,0,o),
(1170,36,o),
(1170,51,cs),
(1170,81,o),
(1152,85,o),
(1124,88,c),
(1057,93,o),
(924,79,o),
(924,165,cs),
(924,310,l),
(1337,310,l),
(1351,316,o),
(1361,358,o),
(1361,383,cs),
(1361,399,o),
(1353,416,o),
(1337,417,c),
(924,417,l),
(924,626,l),
(1337,626,l),
(1351,632,o),
(1361,674,o),
(1361,699,cs),
(1361,715,o),
(1353,732,o),
(1337,733,c),
(938,733,l),
(1347,1254,l),
(1390,1336,o),
(1448,1336,o),
(1498,1341,cs),
(1526,1344,o),
(1534,1348,o),
(1534,1378,cs),
(1534,1393,o),
(1522,1419,o),
(1500,1419,cs),
(1085,1419,ls),
(1062,1419,o),
(1051,1393,o),
(1051,1378,cs),
(1051,1357,o),
(1058,1344,o),
(1084,1341,c),
(1163,1337,o),
(1237,1332,o),
(1237,1302,cs),
(1237,1297,o),
(1235,1292,o),
(1232,1287,c),
(852,785,l),
(532,1287,l),
(529,1293,o),
(527,1298,o),
(527,1303,cs),
(527,1333,o),
(592,1337,o),
(687,1341,c),
(713,1344,o),
(720,1357,o),
(720,1378,cs),
(720,1393,o),
(709,1419,o),
(686,1419,cs),
(1,1419,ls),
(-22,1419,o),
(-34,1393,o),
(-34,1378,cs),
(-34,1348,o),
(-26,1344,o),
(3,1341,cs),
(52,1336,o),
(109,1337,o),
(154,1254,c),
(561,733,l),
(228,733,l),
(214,727,o),
(204,705,o),
(204,680,cs),
(204,664,o),
(212,627,o),
(228,626,c),
(622,626,l),
(622,417,l),
(228,417,l),
(214,411,o),
(204,389,o),
(204,364,cs),
(204,348,o),
(212,311,o),
(228,310,c),
(622,310,l),
(622,152,ls),
(622,81,o),
(507,93,o),
(440,88,c),
(415,85,o),
(397,72,o),
(397,51,cs,{
name = hr00;
}),
(397,36,o),
(408,0,o),
(431,0,cs)
);
}
);
width = 1500;
}
);
unicode = 165;
}
{
glyphname = section;
kernLeft = section;
kernRight = section;
layers = (
{
layerId = "DD6F9F34-BC40-4E8F-B1D3-DF3B42A9710F";
shapes = (
{
closed = 1;
nodes = (
(659,-452,o),
(811,-318,o),
(811,-120,cs),
(811,-47,o),
(786,18,o),
(743,82,c),
(860,193,o),
(916,325,o),
(916,444,cs),
(916,543,o),
(873,627,o),
(806,694,cs),
(550,950,o),
(370,981,o),
(370,1146,cs),
(370,1259,o),
(469,1365,o),
(582,1371,c),
(703,1156,l),
(749,1156,o),
(829,1185,o),
(829,1256,cs),
(829,1328,o),
(743,1446,o),
(584,1446,cs),
(375,1446,o),
(213,1312,o),
(213,1111,cs),
(213,1040,o),
(238,976,o),
(281,912,c),
(164,801,o),
(108,669,o),
(108,550,cs),
(108,451,o),
(151,368,o),
(218,300,cs),
(468,46,o),
(654,13,o),
(654,-154,cs),
(654,-266,o),
(580,-370,o),
(474,-376,c),
(342,-141,l),
(298,-141,o),
(228,-190,o),
(228,-262,cs),
(228,-333,o),
(298,-452,o),
(457,-452,cs)
);
},
{
closed = 1;
nodes = (
(618,225,o),
(489,347,o),
(415,426,c),
(365,483,o),
(288,584,o),
(288,690,cs),
(288,730,o),
(315,800,o),
(336,849,c),
(411,769,o),
(535,647,o),
(609,568,c),
(659,511,o),
(741,410,o),
(741,304,cs),
(741,264,o),
(714,194,o),
(693,145,c)
);
}
);
width = 1024;
},
{
layerId = "62CA62AF-CD91-478A-AB8B-28A62CC47DA0";
shapes = (
{
closed = 1;
nodes = (
(804,-438,o),
(954,-303,o),
(954,-130,cs),
(954,-16,o),
(903,69,o),
(817,152,c),
(920,195,o),
(1016,303,o),
(1016,436,cs,{
name = hr02;
}),
(1016,560,o),
(965,667,o),
(843,783,cs),
(633,982,o),
(455,1037,o),
(455,1208,cs),
(455,1290,o),
(502,1352,o),
(595,1352,c),
(797,1086,l),
(851,1086,o),
(947,1133,o),
(947,1207,cs),
(947,1342,o),
(805,1446,o),
(588,1446,cs),
(350,1446,o),
(200,1311,o),
(200,1138,cs),
(200,1023,o),
(250,939,o),
(336,855,c),
(233,813,o),
(138,704,o),
(138,572,cs,{
name = hr03;
}),
(138,448,o),
(187,338,o),
(311,225,cs),
(525,30,o),
(699,-29,o),
(699,-200,cs),
(699,-282,o),
(652,-344,o),
(559,-344,c),
(357,-78,l),
(256,-78,o),
(207,-125,o),
(207,-199,cs,{
name = hr01;
}),
(207,-334,o),
(349,-438,o),
(566,-438,cs)
);
},
{
closed = 1;
nodes = (
(662,284,o),
(588,338,o),
(507,402,cs),
(450,447,o),
(388,523,o),
(388,631,cs,{
name = hr05;
}),
(388,672,o),
(404,729,o),
(428,775,c),
(491,722,o),
(565,669,o),
(647,606,cs),
(704,562,o),
(766,485,o),
(766,377,cs),
(766,335,o),
(749,278,o),
(726,233,c)
);
}
);
width = 1154;
}
);
unicode = 167;
}
{
glyphname = dieresis;
kernLeft = dieresis;
kernRight = dieresis;
layers = (
{
layerId = "DD6F9F34-BC40-4E8F-B1D3-DF3B42A9710F";
shapes = (
{
closed = 1;
nodes = (
(788,1250,o),
(826,1306,o),
(826,1384,cs),
(826,1462,o),
(788,1518,o),
(715,1518,cs),
(641,1518,o),
(604,1462,o),
(604,1384,cs),
(604,1306,o),
(641,1250,o),
(715,1250,cs)
);
},
{
closed = 1;
nodes = (
(363,1250,o),
(401,1306,o),
(401,1384,cs),
(401,1462,o),
(363,1518,o),
(290,1518,cs),
(216,1518,o),
(179,1462,o),
(179,1384,cs),
(179,1306,o),
(216,1250,o),
(290,1250,cs)
);
}
);
width = 1024;
},
{
layerId = "62CA62AF-CD91-478A-AB8B-28A62CC47DA0";
shapes = (
{
closed = 1;
nodes = (
(825,1180,o),
(885,1255,o),
(885,1345,cs),
(885,1436,o),
(825,1510,o),
(733,1510,cs),
(640,1510,o),
(582,1436,o),
(582,1345,cs),
(582,1255,o),
(640,1180,o),
(733,1180,cs,{
name = hr00;
})
);
},
{
closed = 1;
nodes = (
(348,1180,o),
(408,1255,o),
(408,1345,cs),
(408,1436,o),
(348,1510,o),
(256,1510,cs),
(163,1510,o),
(105,1436,o),
(105,1345,cs),
(105,1255,o),
(163,1180,o),
(256,1180,cs)
);
}
);
width = 1024;
}
);
unicode = 168;
}
{
glyphname = copyright;
kernLeft = copyright;
kernRight = copyright;
layers = (
{
layerId = "DD6F9F34-BC40-4E8F-B1D3-DF3B42A9710F";
shapes = (
{
closed = 1;
nodes = (
(1458,-281,o),
(1859,119,o),
(1859,613,cs),
(1859,1107,o),
(1458,1508,o),
(964,1508,cs),
(470,1508,o),
(70,1107,o),
(70,613,cs),
(70,119,o),
(470,-281,o),
(964,-281,cs)
);
},
{
closed = 1;
nodes = (
(520,-201,o),
(160,169,o),
(160,613,cs),
(160,1057,o),
(520,1428,o),
(964,1428,cs),
(1408,1428,o),
(1769,1057,o),
(1769,613,cs),
(1769,169,o),
(1408,-201,o),
(964,-201,cs)
);
},
{
closed = 1;
nodes = (
(1183,122,o),
(1359,204,o),
(1367,412,cs),
(1367,421,o),
(1368,436,o),
(1351,436,cs),
(1279,435,ls),
(1267,435,o),
(1266,422,o),
(1265,414,cs),
(1231,246,o),
(1108,213,o),
(999,213,cs),
(886,213,o),
(723,290,o),
(723,612,cs),
(723,937,o),
(865,1013,o),
(1027,1013,cs),
(1084,1013,o),
(1121,976,o),
(1121,976,c),
(1146,947,o),
(1149,899,o),
(1170,855,cs),
(1190,811,o),
(1211,763,o),
(1281,763,cs),
(1314,763,o),
(1344,792,o),
(1344,844,cs),
(1344,879,o),
(1331,924,o),
(1295,979,cs),
(1226,1084,o),
(1088,1105,o),
(1012,1105,cs),
(746,1105,o),
(540,956,o),
(540,622,cs),
(540,288,o),
(697,122,o),
(1003,122,cs)
);
}
);
width = 1929;
},
{
layerId = "62CA62AF-CD91-478A-AB8B-28A62CC47DA0";
shapes = (
{
closed = 1;
nodes = (
(1458,-281,o),
(1859,119,o),
(1859,613,cs),
(1859,1107,o),
(1458,1508,o),
(964,1508,cs),
(470,1508,o),
(70,1107,o),
(70,613,cs),
(70,119,o),
(470,-281,o),
(964,-281,cs)
);
},
{
closed = 1;
nodes = (
(520,-201,o),
(160,169,o),
(160,613,cs),
(160,1057,o),
(520,1428,o),
(964,1428,cs),
(1408,1428,o),
(1769,1057,o),
(1769,613,cs),
(1769,169,o),
(1408,-201,o),
(964,-201,cs)
);
},
{
closed = 1;
nodes = (
(1183,122,o),
(1359,204,o),
(1367,412,cs),
(1367,421,o),
(1368,436,o),
(1351,436,cs),
(1279,435,ls),
(1267,435,o),
(1266,422,o),
(1265,414,cs),
(1231,246,o),
(1108,213,o),
(999,213,cs),
(886,213,o),
(723,290,o),
(723,612,cs),
(723,937,o),
(865,1013,o),
(1027,1013,cs),
(1084,1013,o),
(1121,976,o),
(1121,976,c),
(1146,947,o),
(1149,899,o),
(1170,855,cs),
(1190,811,o),
(1211,763,o),
(1281,763,cs),
(1314,763,o),
(1344,792,o),
(1344,844,cs),
(1344,879,o),
(1331,924,o),
(1295,979,cs),
(1226,1084,o),
(1088,1105,o),
(1012,1105,cs),
(746,1105,o),
(540,956,o),
(540,622,cs),
(540,288,o),
(697,122,o),
(1003,122,cs)
);
}
);
width = 1929;
}
);
unicode = 169;
}
{
glyphname = guillemetleft;
kernLeft = guilsinglleft;
kernRight = guilsinglleft;
layers = (
{
layerId = "DD6F9F34-BC40-4E8F-B1D3-DF3B42A9710F";
shapes = (
{
closed = 1;
nodes = (
(570,214,l),
(325,554,l),
(570,895,l),
(570,1041,l),
(117,614,l),
(117,495,l),
(570,70,l)
);
},
{
closed = 1;
nodes = (
(1076,214,l),
(811,554,l),
(1076,895,l),
(1076,1041,l),
(603,614,l),
(603,495,l),
(1076,70,l)
);
}
);
width = 1190;
},
{
layerId = "62CA62AF-CD91-478A-AB8B-28A62CC47DA0";
shapes = (
{
closed = 1;
nodes = (
(611,234,l),
(376,554,l),
(611,875,l),
(611,1041,l),
(118,614,l),
(118,495,l,{
name = hr00;
}),
(611,70,l)
);
},
{
closed = 1;
nodes = (
(1119,234,l),
(864,554,l),
(1119,875,l),
(1119,1041,l),
(606,614,l),
(606,495,l,{
name = hr00;
}),
(1119,70,l)
);
}
);
width = 1250;
}
);
unicode = 171;
}
{
glyphname = logicalnot;
kernLeft = logicalnot;
kernRight = logicalnot;
layers = (
{
layerId = "DD6F9F34-BC40-4E8F-B1D3-DF3B42A9710F";
shapes = (
{
closed = 1;
nodes = (
(1128,125,l),
(1128,622,l),
(190,622,l),
(190,496,l),
(982,496,l),
(982,125,l)
);
}
);
width = 1317;
},
{
layerId = "62CA62AF-CD91-478A-AB8B-28A62CC47DA0";
shapes = (
{
closed = 1;
nodes = (
(1205,125,l),
(1205,647,l),
(235,647,l),
(235,501,l,{
name = hr00;
}),
(1049,501,l),
(1049,125,l)
);
}
);
width = 1440;
}
);
unicode = 172;
}
{
glyphname = registered;
kernLeft = registered;
kernRight = registered;
layers = (
{
layerId = "DD6F9F34-BC40-4E8F-B1D3-DF3B42A9710F";
shapes = (
{
closed = 1;
nodes = (
(1458,-281,o),
(1859,119,o),
(1859,613,cs),
(1859,1107,o),
(1458,1508,o),
(964,1508,cs),
(470,1508,o),
(70,1107,o),
(70,613,cs),
(70,119,o),
(470,-281,o),
(964,-281,cs)
);
},
{
closed = 1;
nodes = (
(520,-201,o),
(160,169,o),
(160,613,cs),
(160,1057,o),
(520,1428,o),
(964,1428,cs),
(1408,1428,o),
(1769,1057,o),
(1769,613,cs),
(1769,169,o),
(1408,-201,o),
(964,-201,cs)
);
},
{
closed = 1;
nodes = (
(943,136,ls),
(958,136,o),
(965,157,o),
(965,167,cs),
(965,186,o),
(960,199,o),
(941,201,c),
(894,204,o),
(829,208,o),
(829,264,cs),
(829,568,l),
(963,568,ls),
(1157,568,o),
(1077,136,o),
(1294,136,cs),
(1437,136,ls),
(1451,136,o),
(1459,157,o),
(1459,167,cs),
(1459,187,o),
(1444,199,o),
(1426,201,cs),
(1393,205,o),
(1359,221,o),
(1330,278,c),
(1253,399,o),
(1252,593,o),
(1071,608,c),
(1211,647,o),
(1318,710,o),
(1318,847,cs),
(1318,1030,o),
(1171,1088,o),
(986,1089,cs),
(579,1089,ls),
(564,1089,o),
(557,1079,o),
(557,1069,cs),
(557,1049,o),
(562,1046,o),
(580,1044,c),
(620,1041,o),
(673,1037,o),
(673,981,cs),
(673,243,ls),
(673,214,o),
(626,204,o),
(584,201,c),
(567,199,o),
(563,180,o),
(563,167,cs),
(563,157,o),
(570,136,o),
(585,136,cs)
);
},
{
closed = 1;
nodes = (
(829,1012,l),
(936,1012,ls),
(1061,1012,o),
(1161,987,o),
(1161,827,cs),
(1161,667,o),
(1039,645,o),
(931,645,cs),
(829,645,l)
);
}
);
width = 1929;
},
{
layerId = "62CA62AF-CD91-478A-AB8B-28A62CC47DA0";
shapes = (
{
closed = 1;
nodes = (
(1458,-281,o),
(1859,119,o),
(1859,613,cs),
(1859,1107,o),
(1458,1508,o),
(964,1508,cs),
(470,1508,o),
(70,1107,o),
(70,613,cs),
(70,119,o),
(470,-281,o),
(964,-281,cs)
);
},
{
closed = 1;
nodes = (
(520,-201,o),
(160,169,o),
(160,613,cs),
(160,1057,o),
(520,1428,o),
(964,1428,cs),
(1408,1428,o),
(1769,1057,o),
(1769,613,cs),
(1769,169,o),
(1408,-201,o),
(964,-201,cs)
);
},
{
closed = 1;
nodes = (
(943,136,ls),
(958,136,o),
(965,157,o),
(965,167,cs),
(965,186,o),
(960,199,o),
(941,201,c),
(894,204,o),
(829,208,o),
(829,264,cs),
(829,568,l),
(963,568,ls),
(1157,568,o),
(1077,136,o),
(1294,136,cs),
(1437,136,ls),
(1451,136,o),
(1459,157,o),
(1459,167,cs),
(1459,187,o),
(1444,199,o),
(1426,201,cs),
(1393,205,o),
(1359,221,o),
(1330,278,c),
(1253,399,o),
(1252,593,o),
(1071,608,c),
(1211,647,o),
(1318,710,o),
(1318,847,cs),
(1318,1030,o),
(1171,1088,o),
(986,1089,cs),
(579,1089,ls),
(564,1089,o),
(557,1079,o),
(557,1069,cs),
(557,1049,o),
(562,1046,o),
(580,1044,c),
(620,1041,o),
(673,1037,o),
(673,981,cs),
(673,243,ls),
(673,214,o),
(626,204,o),
(584,201,c),
(567,199,o),
(563,180,o),
(563,167,cs),
(563,157,o),
(570,136,o),
(585,136,cs)
);
},
{
closed = 1;
nodes = (
(829,1012,l),
(936,1012,ls),
(1061,1012,o),
(1161,987,o),
(1161,827,cs),
(1161,667,o),
(1039,645,o),
(931,645,cs),
(829,645,l)
);
}
);
width = 1929;
}
);
unicode = 174;
}
{
glyphname = macron;
kernLeft = macron;
kernRight = macron;
layers = (
{
layerId = "DD6F9F34-BC40-4E8F-B1D3-DF3B42A9710F";
shapes = (
{
closed = 1;
nodes = (
(582,1242,l),
(582,1383,l),
(-5,1383,l),
(-5,1242,l)
);
}
);
width = 1317;
},
{
layerId = "62CA62AF-CD91-478A-AB8B-28A62CC47DA0";
shapes = (
{
closed = 1;
nodes = (
(582,1282,l),
(582,1433,l),
(-5,1433,l),
(-5,1282,l,{
name = hr00;
})
);
}
);
width = 1440;
}
);
unicode = 175;
}
{
glyphname = degree;
kernLeft = degree;
kernRight = degree;
layers = (
{
layerId = "DD6F9F34-BC40-4E8F-B1D3-DF3B42A9710F";
shapes = (
{
closed = 1;
nodes = (
(90,912,o),
(227,774,o),
(429,774,cs),
(631,774,o),
(770,912,o),
(770,1113,cs),
(770,1314,o),
(635,1450,o),
(433,1450,cs),
(231,1450,o),
(90,1314,o),
(90,1113,cs)
);
},
{
closed = 1;
nodes = (
(232,1266,o),
(309,1340,o),
(428,1340,cs),
(546,1340,o),
(628,1266,o),
(628,1113,cs),
(628,960,o),
(549,884,o),
(431,884,cs),
(312,884,o),
(232,960,o),
(232,1113,cs)
);
}
);
width = 859;
},
{
layerId = "62CA62AF-CD91-478A-AB8B-28A62CC47DA0";
shapes = (
{
closed = 1;
nodes = (
(635,767,o),
(777,908,o),
(777,1113,cs),
(777,1318,o),
(639,1457,o),
(433,1457,cs),
(227,1457,o),
(83,1318,o),
(83,1113,cs),
(83,908,o),
(223,767,o),
(429,767,cs,{
name = hr00;
})
);
},
{
closed = 1;
nodes = (
(318,895,o),
(242,967,o),
(242,1113,cs),
(242,1259,o),
(315,1329,o),
(428,1329,cs),
(540,1329,o),
(618,1259,o),
(618,1113,cs),
(618,967,o),
(543,895,o),
(431,895,cs)
);
}
);
width = 860;
}
);
unicode = 176;
}
{
glyphname = acute;
kernLeft = acute;
kernRight = acute;
layers = (
{
background = {
shapes = (
{
closed = 1;
nodes = (
(545,1284,o),
(691,1356,o),
(722,1386,cs),
(759,1420,o),
(782,1481,o),
(732,1534,cs),
(681,1588,o),
(612,1566,o),
(575,1531,cs),
(544,1501,o),
(449,1348,o),
(285,1159,c),
(341,1101,l)
);
}
);
};
layerId = "DD6F9F34-BC40-4E8F-B1D3-DF3B42A9710F";
shapes = (
{
ref = acutecomb;
}
);
width = 1024;
},
{
layerId = "62CA62AF-CD91-478A-AB8B-28A62CC47DA0";
shapes = (
{
ref = acutecomb;
}
);
width = 1024;
}
);
unicode = 180;
}
{
glyphname = cedilla;
kernLeft = cedilla;
kernRight = cedilla;
layers = (
{
background = {
shapes = (
{
closed = 1;
nodes = (
(392,-488,o),
(477,-387,o),
(477,-298,cs),
(477,-203,o),
(401,-124,o),
(269,-111,c,{
name = hr03;
}),
(299,18,l),
(182,18,l,{
name = hr01;
}),
(150,-179,l),
(257,-180,o),
(308,-229,o),
(308,-286,cs,{
name = hr02;
}),
(308,-335,o),
(257,-369,o),
(177,-369,cs),
(140,-369,o),
(102,-364,o),
(53,-354,cs),
(29,-349,o),
(15,-394,o),
(-5,-430,cs),
(-12,-443,o),
(0,-453,o),
(15,-458,cs),
(51,-470,o),
(113,-488,o),
(222,-488,cs)
);
}
);
};
layerId = "DD6F9F34-BC40-4E8F-B1D3-DF3B42A9710F";
shapes = (
{
closed = 1;
nodes = (
(389,-488,o),
(473,-387,o),
(473,-292,cs),
(473,-206,o),
(397,-134,o),
(264,-121,c,{
name = hr03;
}),
(300,18,l),
(183,18,l,{
name = hr01;
}),
(150,-182,l),
(256,-183,o),
(306,-232,o),
(306,-281,cs,{
name = hr02;
}),
(306,-339,o),
(256,-374,o),
(189,-374,cs),
(127,-374,o),
(89,-357,o),
(67,-349,cs),
(56,-345,o),
(50,-346,o),
(45,-356,cs),
(37,-371,o),
(23,-396,o),
(13,-417,cs),
(9,-425,o),
(9,-433,o),
(18,-439,cs),
(54,-463,o),
(118,-488,o),
(203,-488,cs)
);
}
);
width = 478;
},
{
background = {
shapes = (
{
closed = 1;
nodes = (
(431,-498,o),
(522,-404,o),
(522,-289,cs),
(522,-195,o),
(446,-105,o),
(298,-91,c,{
name = hr03;
}),
(328,18,l),
(171,18,l,{
name = hr01;
}),
(138,-192,l),
(219,-192,o),
(287,-220,o),
(287,-284,cs,{
name = hr02;
}),
(287,-344,o),
(234,-374,o),
(168,-374,cs),
(137,-374,o),
(103,-370,o),
(55,-361,cs),
(29,-356,o),
(13,-402,o),
(4,-434,cs),
(0,-448,o),
(9,-457,o),
(24,-462,cs),
(60,-474,o),
(122,-498,o),
(231,-498,cs)
);
}
);
};
layerId = "62CA62AF-CD91-478A-AB8B-28A62CC47DA0";
shapes = (
{
closed = 1;
nodes = (
(416,-498,o),
(521,-411,o),
(521,-287,cs),
(521,-184,o),
(436,-108,o),
(286,-100,c,{
name = hr03;
}),
(319,18,l),
(172,18,l,{
name = hr01;
}),
(138,-192,l),
(259,-190,o),
(316,-235,o),
(316,-283,cs,{
name = hr02;
}),
(316,-335,o),
(269,-374,o),
(191,-374,cs),
(136,-374,o),
(91,-358,o),
(52,-342,cs),
(42,-338,o),
(38,-342,o),
(34,-350,cs),
(25,-368,o),
(7,-405,o),
(2,-417,cs),
(-2,-426,o),
(0,-432,o),
(8,-437,cs),
(38,-457,o),
(124,-498,o),
(236,-498,cs)
);
}
);
width = 521;
}
);
unicode = 184;
}
{
glyphname = guillemetright;
kernLeft = guillemetright;
kernRight = guillemetright;
layers = (
{
layerId = "DD6F9F34-BC40-4E8F-B1D3-DF3B42A9710F";
shapes = (
{
closed = 1;
nodes = (
(607,495,l),
(607,614,l),
(134,1041,l),
(134,895,l),
(399,554,l),
(134,214,l),
(134,70,l)
);
},
{
closed = 1;
nodes = (
(1093,497,l),
(1093,616,l),
(640,1041,l),
(640,897,l),
(885,557,l),
(640,216,l),
(640,70,l)
);
}
);
width = 1190;
},
{
layerId = "62CA62AF-CD91-478A-AB8B-28A62CC47DA0";
shapes = (
{
closed = 1;
nodes = (
(663,495,l,{
name = hr00;
}),
(663,614,l),
(150,1041,l),
(150,875,l),
(405,554,l),
(150,234,l),
(150,70,l)
);
},
{
closed = 1;
nodes = (
(1151,495,l,{
name = hr00;
}),
(1151,614,l),
(658,1041,l),
(658,875,l),
(893,554,l),
(658,234,l),
(658,70,l)
);
}
);
width = 1250;
}
);
unicode = 187;
}
{
glyphname = Eth;
kernLeft = H;
kernRight = O;
layers = (
{
anchors = (
{
name = bottom;
pos = (765,0);
},
{
name = center;
pos = (765,710);
},
{
name = top;
pos = (765,1419);
}
);
layerId = "DD6F9F34-BC40-4E8F-B1D3-DF3B42A9710F";
shapes = (
{
closed = 1;
nodes = (
(787,694,l),
(801,700,o),
(811,722,o),
(811,747,cs),
(811,763,o),
(803,780,o),
(787,781,c),
(148,781,l),
(134,775,o),
(124,753,o),
(124,728,cs),
(124,712,o),
(132,695,o),
(148,694,c)
);
},
{
closed = 1;
nodes = (
(777,0,ls),
(1077,0,o),
(1455,217,o),
(1455,738,cs),
(1455,1083,o),
(1269,1417,o),
(725,1419,c),
(129,1419,ls),
(106,1419,o),
(95,1383,o),
(95,1368,cs),
(95,1338,o),
(103,1334,o),
(131,1331,cs),
(192,1324,o),
(283,1320,o),
(283,1234,cs),
(283,152,ls),
(283,108,o),
(202,93,o),
(138,88,c),
(112,85,o),
(105,72,o),
(105,51,cs,{
name = hr00;
}),
(105,36,o),
(116,0,o),
(139,0,cs)
);
},
{
closed = 1;
nodes = (
(496,1322,l),
(693,1322,ls),
(926,1322,o),
(1209,1229,o),
(1209,734,cs),
(1209,161,o),
(946,101,o),
(703,101,cs),
(529,101,o),
(495,140,o),
(495,168,cs)
);
}
);
width = 1534;
},
{
anchors = (
{
name = bottom;
pos = (798,0);
},
{
name = center;
pos = (798,710);
},
{
name = top;
pos = (798,1419);
}
);
layerId = "62CA62AF-CD91-478A-AB8B-28A62CC47DA0";
shapes = (
{
closed = 1;
nodes = (
(890,694,l),
(904,700,o),
(914,722,o),
(914,747,cs),
(914,763,o),
(906,790,o),
(890,791,c),
(121,791,l),
(107,785,o),
(97,753,o),
(97,728,cs),
(97,712,o),
(105,695,o),
(121,694,c)
);
},
{
closed = 1;
nodes = (
(875,0,ls),
(1175,0,o),
(1613,217,o),
(1613,738,cs),
(1613,1083,o),
(1347,1417,o),
(803,1419,c),
(107,1419,ls),
(84,1419,o),
(73,1383,o),
(73,1368,cs),
(73,1338,o),
(81,1334,o),
(109,1331,cs),
(170,1324,o),
(261,1320,o),
(261,1234,cs),
(261,152,ls),
(261,108,o),
(180,93,o),
(116,88,c),
(90,85,o),
(83,72,o),
(83,51,cs,{
name = hr00;
}),
(83,36,o),
(94,0,o),
(117,0,cs)
);
},
{
closed = 1;
nodes = (
(599,1322,l),
(796,1322,ls),
(1029,1322,o),
(1223,1229,o),
(1223,734,cs),
(1223,161,o),
(1049,101,o),
(806,101,cs),
(632,101,o),
(598,140,o),
(598,168,cs)
);
}
);
width = 1708;
}
);
unicode = 208;
}
{
glyphname = multiply;
kernLeft = multiply;
kernRight = multiply;
layers = (
{
layerId = "DD6F9F34-BC40-4E8F-B1D3-DF3B42A9710F";
shapes = (
{
closed = 1;
nodes = (
(659,469,l),
(1020,103,l),
(1122,208,l),
(762,573,l),
(1122,939,l),
(1020,1045,l),
(659,678,l),
(297,1045,l),
(195,939,l),
(555,573,l),
(195,208,l,{
name = hr00;
}),
(297,103,l)
);
}
);
width = 1317;
},
{
layerId = "62CA62AF-CD91-478A-AB8B-28A62CC47DA0";
shapes = (
{
closed = 1;
nodes = (
(720,469,l),
(1081,103,l),
(1183,208,l),
(823,573,l),
(1183,939,l),
(1081,1045,l),
(720,678,l),
(359,1045,l),
(257,939,l),
(617,573,l),
(257,208,l,{
name = hr00;
}),
(359,103,l)
);
}
);
width = 1440;
}
);
unicode = 215;
}
{
glyphname = germandbls;
kernLeft = h;
kernRight = germandbls;
layers = (
{
anchors = (
{
name = bottom;
pos = (562,0);
},
{
name = top;
pos = (562,1549);
}
);
layerId = "DD6F9F34-BC40-4E8F-B1D3-DF3B42A9710F";
shapes = (
{
closed = 1;
nodes = (
(333,0,l),
(333,1093,ls),
(333,1453,o),
(482,1474,o),
(576,1474,cs),
(675,1474,o),
(744,1404,o),
(744,1288,cs),
(744,1064,o),
(523,1066,o),
(523,878,cs),
(523,636,o),
(857,564,o),
(857,294,cs),
(857,108,o),
(780,55,o),
(714,55,cs),
(664,55,o),
(643,89,o),
(643,89,c),
(576,263,l),
(495,263,o),
(447,212,o),
(447,156,cs),
(447,66,o),
(525,-29,o),
(720,-29,cs),
(921,-29,o),
(1046,139,o),
(1046,344,cs),
(1046,660,o),
(684,823,o),
(684,928,cs),
(684,1098,o),
(935,1050,o),
(935,1296,cs),
(935,1483,o),
(772,1559,o),
(605,1559,cs),
(309,1559,o),
(147,1316,o),
(147,1061,cs),
(147,152,ls),
(147,108,o),
(100,94,o),
(51,88,cs),
(25,85,o),
(18,72,o),
(18,51,cs),
(18,36,o),
(29,0,o),
(52,0,cs)
);
}
);
width = 1123;
},
{
anchors = (
{
name = bottom;
pos = (674,0);
},
{
name = top;
pos = (674,1549);
}
);
background = {
shapes = (
{
closed = 1;
nodes = (
(566,0,ls),
(588,0,o),
(600,26,o),
(600,41,cs),
(600,71,o),
(592,75,o),
(564,78,cs),
(515,83,o),
(447,88,o),
(447,165,cs),
(447,727,l),
(494,778,o),
(624,852,o),
(732,852,cs),
(851,852,o),
(851,764,o),
(851,721,cs),
(851,132,ls),
(851,100,o),
(787,81,o),
(745,78,c),
(718,75,o),
(714,62,o),
(714,41,cs),
(714,26,o),
(725,0,o),
(748,0,cs),
(1295,0,ls),
(1318,0,o),
(1329,26,o),
(1329,41,cs),
(1329,70,o),
(1318,75,o),
(1296,78,cs),
(1246,85,o),
(1159,79,o),
(1159,165,cs),
(1159,736,ls),
(1159,968,o),
(1018,1014,o),
(868,1014,cs),
(675,1014,o),
(483,890,o),
(442,845,c),
(447,992,l),
(447,1508,l),
(444,1540,o),
(428,1548,o),
(417,1548,cs),
(336,1548,o),
(177,1546,o),
(-13,1534,cs),
(-29,1533,o),
(-37,1506,o),
(-37,1490,cs),
(-37,1465,o),
(-27,1456,o),
(-13,1450,c),
(41,1436,o),
(136,1453,o),
(136,1329,cs),
(136,132,ls),
(136,95,o),
(69,82,o),
(20,78,c),
(-6,75,o),
(-13,62,o),
(-13,41,cs,{
name = hr00;
}),
(-13,26,o),
(-2,0,o),
(21,0,cs)
);
}
);
};
layerId = "62CA62AF-CD91-478A-AB8B-28A62CC47DA0";
shapes = (
{
closed = 1;
nodes = (
(447,0,l),
(447,1093,ls),
(447,1453,o),
(591,1467,o),
(677,1467,cs),
(777,1467,o),
(830,1386,o),
(830,1270,cs),
(830,1046,o),
(654,1047,o),
(654,880,cs,{
name = hr02;
}),
(654,626,o),
(968,569,o),
(968,287,cs),
(968,146,o),
(917,70,o),
(834,70,cs),
(804,70,o),
(781,86,o),
(781,86,c),
(684,323,l),
(623,323,o),
(542,260,o),
(542,180,cs),
(542,55,o),
(634,-19,o),
(846,-19,cs),
(1013,-19,o),
(1311,112,o),
(1311,389,cs),
(1311,767,o),
(830,815,o),
(830,926,cs),
(830,1091,o),
(1155,1078,o),
(1155,1330,cs),
(1155,1494,o),
(939,1559,o),
(706,1559,cs,{
name = hr03;
}),
(339,1559,o),
(136,1326,o),
(136,1031,cs),
(136,132,ls),
(136,88,o),
(66,84,o),
(17,78,cs),
(-9,75,o),
(-16,62,o),
(-16,41,cs),
(-16,26,o),
(-5,0,o),
(18,0,cs,{
name = hr01;
})
);
}
);
width = 1347;
}
);
unicode = 223;
userData = {
com.typemytype.robofont.mark = (
0.967,
0.6,
1,
1
);
};
}
{
glyphname = ae;
kernLeft = a;
kernRight = e;
layers = (
{
anchors = (
{
name = bottom;
pos = (728,0);
},
{
name = top;
pos = (767,994);
}
);
background = {
shapes = (
{
closed = 1;
nodes = (
(41,50,o),
(200,-21,o),
(321,-21,cs),
(461,-21,o),
(550,18,o),
(637,109,c),
(637,99,ls),
(637,-28,o),
(709,-19,o),
(761,-19,cs),
(822,-19,o),
(904,13,o),
(936,43,c),
(940,46,o),
(942,52,o),
(942,59,cs),
(942,79,o),
(925,109,o),
(902,102,cs),
(878,95,o),
(863,94,o),
(844,94,cs),
(822,94,o),
(806,149,o),
(806,201,cs),
(806,689,ls),
(806,848,o),
(763,1014,o),
(462,1014,cs),
(232,1014,o),
(73,900,o),
(73,781,cs),
(73,694,o),
(125,665,o),
(200,665,c),
(320,907,l),
(320,907,o),
(356,924,o),
(418,924,cs),
(577,924,o),
(619,827,o),
(619,753,c),
(619,599,l),
(351,571,o),
(41,508,o),
(41,243,cs,{
name = hr00;
})
);
},
{
closed = 1;
nodes = (
(250,456,o),
(394,495,o),
(618,528,c),
(618,176,l),
(578,136,o),
(503,90,o),
(393,90,cs),
(305,90,o),
(250,164,o),
(250,248,cs)
);
}
);
};
layerId = "DD6F9F34-BC40-4E8F-B1D3-DF3B42A9710F";
shapes = (
{
closed = 1;
nodes = (
(522,-24,o),
(630,26,o),
(712,126,c),
(785,25,o),
(899,-29,o),
(1053,-29,cs),
(1223,-29,o),
(1328,55,o),
(1387,173,cs),
(1389,177,o),
(1393,183,o),
(1393,189,cs),
(1393,193,o),
(1390,198,o),
(1382,201,c),
(1332,224,l),
(1319,227,o),
(1317,216,o),
(1313,208,cs),
(1270,122,o),
(1180,75,o),
(1079,75,cs),
(957,75,o),
(823,186,o),
(821,503,c),
(1441,503,l),
(1441,546,o),
(1439,587,o),
(1436,627,cs),
(1419,857,o),
(1320,1014,o),
(1051,1014,cs),
(947,1014,o),
(847,976,o),
(769,904,c),
(719,971,o),
(635,1013,o),
(523,1013,cs),
(317,1013,o),
(97,913,o),
(97,781,cs),
(97,713,o),
(140,665,o),
(220,665,c),
(346,913,l),
(346,913,o),
(415,924,o),
(472,924,cs),
(575,924,o),
(637,861,o),
(637,758,cs),
(637,599,l),
(386,568,o),
(101,494,o),
(101,243,cs),
(101,50,o),
(261,-24,o),
(374,-24,cs)
);
},
{
closed = 1;
nodes = (
(835,873,o),
(920,918,o),
(1050,918,cs),
(1152,918,o),
(1219,827,o),
(1219,595,c),
(823,589,l)
);
},
{
closed = 1;
nodes = (
(358,90,o),
(311,175,o),
(311,252,cs),
(311,444,o),
(472,500,o),
(637,523,c),
(636,141,l),
(595,114,o),
(534,90,o),
(446,90,cs)
);
}
);
width = 1509;
},
{
anchors = (
{
name = bottom;
pos = (876,0);
},
{
name = top;
pos = (876,994);
}
);
background = {
shapes = (
{
closed = 1;
nodes = (
(78,50,o),
(255,-24,o),
(376,-24,cs),
(516,-24,o),
(641,21,o),
(728,112,c),
(728,109,ls),
(728,87,o),
(712,-25,o),
(880,-25,cs),
(1043,-25,o),
(1145,22,o),
(1167,37,c),
(1171,40,o),
(1173,47,o),
(1173,55,cs),
(1173,79,o),
(1156,116,o),
(1133,109,cs),
(1109,102,o),
(1094,101,o),
(1075,101,cs),
(1053,101,o),
(1037,141,o),
(1037,193,cs),
(1037,736,ls),
(1037,895,o),
(908,1014,o),
(603,1014,cs),
(451,1014,o),
(128,944,o),
(128,781,cs),
(128,703,o),
(194,645,o),
(287,645,c),
(443,900,l),
(443,900,o),
(475,919,o),
(560,919,cs),
(649,919,o),
(710,890,o),
(710,763,c),
(709,598,l),
(440,570,o),
(78,508,o),
(78,242,cs,{
name = hr00;
})
);
},
{
closed = 1;
nodes = (
(417,460,o),
(574,498,o),
(709,518,c),
(709,196,l),
(683,164,o),
(633,120,o),
(548,120,cs),
(460,120,o),
(417,185,o),
(417,252,cs)
);
}
);
};
layerId = "62CA62AF-CD91-478A-AB8B-28A62CC47DA0";
shapes = (
{
closed = 1;
nodes = (
(611,-24,o),
(714,35,o),
(803,147,c),
(844,33,o),
(989,-29,o),
(1217,-29,cs,{
name = hr03;
}),
(1433,-29,o),
(1572,53,o),
(1641,173,cs),
(1645,180,o),
(1647,185,o),
(1647,190,cs),
(1647,195,o),
(1644,199,o),
(1637,202,cs),
(1593,223,l),
(1580,226,o),
(1573,215,o),
(1567,208,cs),
(1502,132,o),
(1418,105,o),
(1293,105,cs),
(1167,105,o),
(1014,200,o),
(1014,509,c),
(1688,509,l),
(1688,564,o),
(1688,626,o),
(1679,674,cs),
(1639,885,o),
(1517,1014,o),
(1201,1014,cs),
(1081,1014,o),
(970,981,o),
(882,919,c),
(812,979,o),
(755,1014,o),
(622,1014,cs),
(433,1014,o),
(147,936,o),
(147,781,cs),
(147,682,o),
(226,645,o),
(304,645,c),
(462,900,l,{
name = hr04;
}),
(462,900,o),
(494,919,o),
(579,919,cs),
(668,919,o),
(728,890,o),
(728,763,cs),
(728,598,l),
(458,570,o),
(97,507,o),
(97,242,cs,{
name = hr01;
}),
(97,50,o),
(274,-24,o),
(395,-24,cs,{
name = hr02;
})
);
},
{
closed = 1;
nodes = (
(1033,838,o),
(1112,929,o),
(1198,929,cs),
(1307,929,o),
(1355,833,o),
(1355,601,c),
(1017,601,l)
);
},
{
closed = 1;
nodes = (
(479,120,o),
(436,185,o),
(436,252,cs,{
name = hr06;
}),
(436,460,o),
(592,498,o),
(728,518,c),
(727,196,l),
(693,153,o),
(642,120,o),
(567,120,cs)
);
}
);
width = 1756;
}
);
unicode = 230;
}
{
glyphname = lslash;
kernLeft = lslash;
kernRight = lslash;
layers = (
{
layerId = "DD6F9F34-BC40-4E8F-B1D3-DF3B42A9710F";
shapes = (
{
closed = 1;
nodes = (
(593,899,l),
(597,903,o),
(599,912,o),
(599,923,cs),
(599,940,o),
(595,962,o),
(589,976,cs),
(583,991,o),
(569,1004,o),
(554,999,c),
(65,763,l),
(59,757,o),
(56,746,o),
(56,734,cs),
(56,725,o),
(58,715,o),
(62,705,cs),
(68,690,o),
(89,658,o),
(104,663,c)
);
},
{
pos = (32,0);
ref = l;
}
);
width = 586;
},
{
layerId = "62CA62AF-CD91-478A-AB8B-28A62CC47DA0";
shapes = (
{
closed = 1;
nodes = (
(679,899,l),
(683,903,o),
(685,912,o),
(685,923,cs),
(685,940,o),
(681,962,o),
(675,976,cs),
(669,991,o),
(655,1004,o),
(640,999,c),
(27,752,l),
(21,746,o),
(18,735,o),
(18,723,cs),
(18,714,o),
(20,704,o),
(24,694,cs),
(30,679,o),
(51,647,o),
(66,652,c)
);
},
{
pos = (18,0);
ref = l;
}
);
width = 705;
}
);
unicode = 322;
}
{
color = 9;
glyphname = Eng;
kernLeft = Eng;
kernRight = Eng;
layers = (
{
anchors = (
{
name = bottom;
pos = (756,-671);
},
{
name = top;
pos = (816,1419);
}
);
background = {
shapes = (
{
closed = 1;
nodes = (
(1204,-449,o),
(1343,-198,o),
(1343,44,cs),
(1343,1267,ls),
(1343,1311,o),
(1437,1326,o),
(1498,1331,cs),
(1524,1334,o),
(1531,1347,o),
(1531,1368,cs),
(1531,1383,o),
(1520,1419,o),
(1497,1419,cs),
(1092,1419,ls),
(1069,1419,o),
(1058,1383,o),
(1058,1368,cs),
(1058,1338,o),
(1066,1334,o),
(1094,1331,cs),
(1155,1326,o),
(1246,1320,o),
(1246,1234,cs),
(1246,333,l),
(1234,333,l),
(455,1419,l),
(137,1419,ls),
(114,1419,o),
(103,1383,o),
(103,1368,cs),
(103,1338,o),
(111,1334,o),
(139,1331,cs),
(200,1326,o),
(280,1320,o),
(280,1234,cs),
(280,172,ls),
(280,108,o),
(209,93,o),
(145,88,c),
(119,85,o),
(112,72,o),
(112,51,cs),
(112,36,o),
(123,0,o),
(146,0,cs),
(521,0,ls),
(544,0,o),
(555,36,o),
(555,51,cs),
(555,81,o),
(547,85,o),
(519,88,cs),
(458,93,o),
(377,99,o),
(377,185,cs),
(377,1140,l),
(394,1140,l),
(1235,-7,l),
(1220,-276,o),
(1100,-345,o),
(1026,-356,c),
(949,-208,l),
(888,-208,o),
(816,-236,o),
(816,-310,cs),
(816,-379,o),
(864,-449,o),
(992,-449,cs)
);
}
);
};
layerId = "DD6F9F34-BC40-4E8F-B1D3-DF3B42A9710F";
shapes = (
{
closed = 1;
nodes = (
(1167,-449,o),
(1331,-234,o),
(1331,41,cs),
(1331,1000,ls),
(1331,1399,o),
(1057,1439,o),
(908,1439,cs),
(697,1439,o),
(498,1305,o),
(463,1220,c),
(463,1382,l),
(460,1414,o),
(444,1422,o),
(433,1422,cs),
(378,1422,o),
(249,1421,o),
(120,1413,cs,{
name = "❌";
}),
(104,1412,o),
(96,1384,o),
(96,1368,cs),
(96,1343,o),
(106,1334,o),
(120,1328,c),
(170,1314,o),
(269,1327,o),
(269,1203,cs),
(269,142,ls),
(269,98,o),
(202,84,o),
(153,78,cs),
(127,75,o),
(120,62,o),
(120,41,cs),
(120,26,o),
(131,0,o),
(154,0,cs),
(587,0,ls),
(609,0,o),
(621,26,o),
(621,41,cs),
(621,71,o),
(613,75,o),
(585,78,cs),
(536,83,o),
(473,89,o),
(473,175,cs),
(473,1136,l),
(528,1227,o),
(677,1321,o),
(856,1321,cs),
(974,1321,o),
(1127,1280,o),
(1127,1001,cs),
(1127,0,ls),
(1127,-306,o),
(1030,-347,o),
(860,-347,c),
(774,-226,l),
(763,-209,o),
(758,-199,o),
(746,-199,cs),
(709,-199,o),
(629,-233,o),
(629,-310,cs),
(629,-379,o),
(717,-449,o),
(864,-449,cs)
);
}
);
width = 1511;
},
{
anchors = (
{
name = bottom;
pos = (857,-671);
},
{
name = top;
pos = (857,1419);
}
);
layerId = "62CA62AF-CD91-478A-AB8B-28A62CC47DA0";
shapes = (
{
closed = 1;
nodes = (
(1316,-478,o),
(1534,-215,o),
(1534,60,cs),
(1534,1055,ls),
(1534,1397,o),
(1274,1447,o),
(1115,1447,cs),
(860,1447,o),
(640,1281,o),
(602,1198,c),
(602,1390,l,{
name = hr02;
}),
(599,1422,o),
(583,1430,o),
(572,1430,cs),
(494,1430,o),
(309,1427,o),
(125,1416,cs),
(109,1415,o),
(101,1388,o),
(101,1372,cs),
(101,1347,o),
(111,1338,o),
(125,1332,c),
(175,1318,o),
(274,1335,o),
(274,1211,cs),
(274,142,ls),
(274,98,o),
(217,84,o),
(168,78,cs),
(142,75,o),
(135,62,o),
(135,41,cs,{
name = hr01;
}),
(135,26,o),
(146,0,o),
(169,0,cs),
(716,0,ls),
(738,0,o),
(750,26,o),
(750,41,cs),
(750,71,o),
(742,75,o),
(714,78,cs),
(665,83,o),
(611,89,o),
(611,175,cs),
(611,1090,l),
(658,1141,o),
(776,1295,o),
(958,1295,cs),
(1092,1295,o),
(1197,1233,o),
(1197,1055,cs),
(1197,28,ls),
(1197,-324,o),
(997,-376,o),
(926,-376,c),
(812,-191,ls),
(787,-151,o),
(772,-133,o),
(740,-133,cs),
(671,-133,o),
(604,-174,o),
(604,-273,cs),
(604,-355,o),
(724,-478,o),
(927,-478,cs)
);
}
);
width = 1714;
}
);
metricLeft = H;
unicode = 330;
}
{
glyphname = oe;
kernLeft = o;
kernRight = e;
layers = (
{
anchors = (
{
name = bottom;
pos = (839,0);
},
{
name = top;
pos = (839,994);
}
);
layerId = "DD6F9F34-BC40-4E8F-B1D3-DF3B42A9710F";
shapes = (
{
closed = 1;
nodes = (
(683,-29,o),
(800,33,o),
(877,132,c),
(950,28,o),
(1065,-29,o),
(1222,-29,cs),
(1392,-29,o),
(1499,54,o),
(1556,173,cs),
(1558,177,o),
(1562,183,o),
(1562,189,cs),
(1562,193,o),
(1559,198,o),
(1551,201,c),
(1501,224,l),
(1488,227,o),
(1486,216,o),
(1482,208,cs),
(1436,123,o),
(1349,75,o),
(1248,75,cs),
(1126,75,o),
(992,186,o),
(990,503,c),
(1612,503,l),
(1612,572,o),
(1608,636,o),
(1597,695,cs),
(1563,887,o),
(1462,1014,o),
(1220,1014,cs),
(1090,1014,o),
(968,956,o),
(886,845,c),
(810,949,o),
(694,1014,o),
(539,1014,cs),
(245,1014,o),
(70,780,o),
(70,492,cs),
(70,204,o),
(238,-29,o),
(532,-29,cs)
);
},
{
closed = 1;
nodes = (
(341,66,o),
(285,230,o),
(285,492,cs),
(285,754,o),
(337,918,o),
(531,918,cs),
(724,918,o),
(782,754,o),
(782,492,cs),
(782,230,o),
(728,66,o),
(535,66,cs)
);
},
{
closed = 1;
nodes = (
(1004,873,o),
(1089,918,o),
(1219,918,cs),
(1321,918,o),
(1390,827,o),
(1390,595,c),
(992,589,l)
);
}
);
width = 1672;
},
{
anchors = (
{
name = bottom;
pos = (958,0);
},
{
name = top;
pos = (958,994);
}
);
layerId = "62CA62AF-CD91-478A-AB8B-28A62CC47DA0";
shapes = (
{
closed = 1;
nodes = (
(781,-29,o),
(907,15,o),
(998,89,c),
(1084,12,o),
(1210,-29,o),
(1382,-29,cs),
(1598,-29,o),
(1739,52,o),
(1806,173,cs),
(1810,180,o),
(1812,185,o),
(1812,190,cs),
(1812,195,o),
(1809,199,o),
(1802,202,cs),
(1758,223,l),
(1745,226,o),
(1738,215,o),
(1732,208,cs),
(1668,131,o),
(1583,105,o),
(1458,105,cs,{
name = hr02;
}),
(1332,105,o),
(1179,200,o),
(1179,508,c,{
name = hr03;
}),
(1853,509,l),
(1853,564,o),
(1853,626,o),
(1844,674,cs),
(1807,885,o),
(1682,1014,o),
(1366,1014,cs),
(1231,1014,o),
(1108,973,o),
(1015,894,c),
(924,971,o),
(796,1014,o),
(630,1014,cs),
(294,1014,o),
(69,838,o),
(69,492,cs,{
name = hr01;
}),
(69,146,o),
(286,-29,o),
(623,-29,cs)
);
},
{
closed = 1;
nodes = (
(464,66,o),
(420,224,o),
(420,492,cs),
(420,759,o),
(460,918,o),
(622,918,cs),
(791,918,o),
(837,760,o),
(837,492,cs),
(837,224,o),
(795,66,o),
(626,66,cs,{
name = hr06;
})
);
},
{
closed = 1;
nodes = (
(1198,838,o),
(1277,929,o),
(1363,929,cs,{
name = hr05;
}),
(1472,929,o),
(1520,833,o),
(1520,601,c),
(1182,601,l)
);
}
);
width = 1921;
}
);
unicode = 339;
}
{
glyphname = Tbar;
kernLeft = T;
kernRight = T;
layers = (
{
anchors = (
{
name = bottom;
pos = (621,0);
},
{
name = top;
pos = (617,1419);
}
);
layerId = "DD6F9F34-BC40-4E8F-B1D3-DF3B42A9710F";
shapes = (
{
closed = 1;
nodes = (
(993,586,l),
(1007,592,o),
(1017,634,o),
(1017,659,cs),
(1017,675,o),
(1009,692,o),
(993,693,c),
(248,693,l),
(234,687,o),
(224,665,o),
(224,640,cs),
(224,624,o),
(232,587,o),
(248,586,c)
);
},
{
closed = 1;
nodes = (
(931,0,ls),
(954,0,o),
(965,36,o),
(965,51,cs),
(965,81,o),
(957,85,o),
(929,88,c),
(848,93,o),
(727,99,o),
(727,185,cs),
(728,1320,l),
(981,1320,ls),
(1095,1320,o),
(1124,1064,o),
(1129,999,c),
(1132,973,o),
(1145,966,o),
(1166,966,cs),
(1181,966,o),
(1217,977,o),
(1217,1000,c),
(1213,1131,o),
(1198,1419,o),
(1183,1419,cs),
(65,1419,ls),
(50,1419,o),
(36,1131,o),
(30,1000,cs),
(29,977,o),
(66,966,o),
(81,966,cs),
(102,966,o),
(115,973,o),
(118,999,c),
(123,1064,o),
(153,1320,o),
(267,1320,cs),
(521,1320,l),
(520,182,ls),
(520,108,o),
(409,93,o),
(315,88,c),
(289,85,o),
(282,72,o),
(282,51,cs),
(282,36,o),
(293,0,o),
(316,0,cs)
);
}
);
width = 1267;
},
{
anchors = (
{
name = bottom;
pos = (709,0);
},
{
name = top;
pos = (709,1419);
}
);
layerId = "62CA62AF-CD91-478A-AB8B-28A62CC47DA0";
shapes = (
{
closed = 1;
nodes = (
(1145,576,l),
(1159,582,o),
(1169,624,o),
(1169,649,cs),
(1169,665,o),
(1161,682,o),
(1145,683,c),
(277,683,l),
(263,677,o),
(253,655,o),
(253,630,cs),
(253,614,o),
(261,577,o),
(277,576,c)
);
},
{
closed = 1;
nodes = (
(1091,0,ls),
(1114,0,o),
(1125,36,o),
(1125,51,cs),
(1125,81,o),
(1117,85,o),
(1089,88,c),
(1008,93,o),
(887,99,o),
(887,185,cs),
(887,1320,l),
(1124,1320,ls),
(1239,1320,o),
(1271,1064,o),
(1278,999,cs),
(1281,973,o),
(1314,966,o),
(1335,966,cs),
(1350,966,o),
(1386,977,o),
(1386,1000,c),
(1382,1131,o),
(1371,1419,o),
(1356,1419,cs),
(69,1419,ls),
(54,1419,o),
(43,1131,o),
(39,1000,c),
(39,977,o),
(75,966,o),
(90,966,cs),
(111,966,o),
(144,973,o),
(147,999,c),
(152,1064,o),
(187,1320,o),
(301,1320,cs),
(551,1320,l),
(551,182,ls),
(551,108,o),
(439,93,o),
(345,88,c),
(319,85,o),
(312,72,o),
(312,51,cs,{
name = hr00;
}),
(312,36,o),
(323,0,o),
(346,0,cs)
);
}
);
width = 1401;
}
);
unicode = 358;
}
{
glyphname = longs;
layers = (
{
anchors = (
{
name = bottom;
pos = (316,0);
},
{
name = top;
pos = (355,1421);
}
);
layerId = "DD6F9F34-BC40-4E8F-B1D3-DF3B42A9710F";
shapes = (
{
closed = 1;
nodes = (
(562,0,ls),
(585,0,o),
(596,26,o),
(596,41,cs),
(596,71,o),
(588,75,o),
(560,78,cs),
(495,85,o),
(398,89,o),
(398,175,c),
(398,1107,l),
(398,1421,o),
(473,1463,o),
(547,1475,c),
(656,1312,l),
(658,1310,o),
(663,1309,o),
(668,1309,cs),
(704,1309,o),
(794,1363,o),
(785,1441,cs),
(777,1509,o),
(711,1573,o),
(583,1573,cs),
(341,1573,o),
(212,1330,o),
(212,1075,c),
(212,142,l),
(212,98,o),
(145,84,o),
(96,78,cs),
(70,75,o),
(63,62,o),
(63,41,cs),
(63,26,o),
(74,0,o),
(97,0,cs)
);
}
);
width = 613;
},
{
anchors = (
{
name = bottom;
pos = (384,0);
},
{
name = top;
pos = (404,1419);
}
);
layerId = "62CA62AF-CD91-478A-AB8B-28A62CC47DA0";
shapes = (
{
closed = 1;
nodes = (
(679,0,ls),
(702,0,o),
(713,26,o),
(713,41,cs),
(713,71,o),
(705,75,o),
(677,78,c),
(612,82,o),
(515,88,o),
(515,165,c),
(515,1107,l),
(515,1396,o),
(552,1449,o),
(605,1449,c),
(753,1278,l),
(753,1276,o),
(764,1275,o),
(764,1275,c),
(829,1274,o),
(882,1334,o),
(882,1416,cs),
(882,1494,o),
(816,1563,o),
(633,1563,cs),
(339,1563,o),
(199,1331,o),
(199,1076,c),
(199,132,l),
(199,95,o),
(132,82,o),
(83,78,c),
(57,75,o),
(50,62,o),
(50,41,cs,{
name = hr00;
}),
(50,26,o),
(61,0,o),
(84,0,cs)
);
}
);
width = 723;
}
);
unicode = 383;
}
{
glyphname = btopbar;
layers = (
{
anchors = (
{
name = bottom;
pos = (567,0);
},
{
name = top;
pos = (782,950);
}
);
layerId = "DD6F9F34-BC40-4E8F-B1D3-DF3B42A9710F";
shapes = (
{
closed = 1;
nodes = (
(222,-32,o),
(277,20,o),
(311,74,c),
(367,-5,o),
(480,-30,o),
(603,-30,cs),
(912,-30,o),
(1055,223,o),
(1055,492,cs),
(1055,762,o),
(933,1013,o),
(625,1013,cs),
(525,1013,o),
(399,958,o),
(331,875,c),
(341,1104,l),
(341,1518,l),
(338,1550,o),
(318,1552,o),
(307,1552,cs),
(250,1552,o),
(129,1551,o),
(-4,1549,cs,{
name = L;
}),
(-20,1549,o),
(-28,1520,o),
(-28,1504,cs),
(-28,1479,o),
(-18,1470,o),
(-4,1464,c),
(50,1450,o),
(155,1463,o),
(155,1339,cs),
(155,12,ls),
(155,-17,o),
(162,-32,o),
(190,-32,cs)
);
},
{
closed = 1;
nodes = (
(455,65,o),
(379,99,o),
(341,170,c),
(341,808,l),
(385,867,o),
(485,918,o),
(562,918,cs),
(777,918,o),
(840,732,o),
(840,492,cs),
(840,252,o),
(781,65,o),
(566,65,cs)
);
},
{
closed = 1;
nodes = (
(861,1426,l),
(861,1552,l),
(307,1552,l),
(307,1426,l)
);
}
);
width = 1147;
},
{
anchors = (
{
name = bottom;
pos = (655,0);
},
{
name = top;
pos = (887,994);
}
);
layerId = "62CA62AF-CD91-478A-AB8B-28A62CC47DA0";
shapes = (
{
closed = 1;
nodes = (
(238,-32,o),
(214,-23,o),
(316,40,c),
(437,-21,o),
(606,-29,o),
(720,-29,cs),
(1064,-29,o),
(1230,224,o),
(1230,493,cs),
(1230,763,o),
(1111,1014,o),
(782,1014,cs),
(666,1014,o),
(516,970,o),
(453,877,c),
(458,1015,l),
(458,1502,l),
(465,1512,o),
(454,1550,o),
(433,1550,cs,{
name = L;
}),
(344,1550,o),
(79,1540,o),
(-1,1534,cs),
(-17,1533,o),
(-25,1506,o),
(-25,1490,cs),
(-25,1465,o),
(-15,1456,o),
(-1,1450,c),
(50,1436,o),
(148,1455,o),
(148,1331,cs),
(148,25,ls,{
name = hr00;
}),
(148,-4,o),
(155,-32,o),
(183,-32,cs)
);
},
{
closed = 1;
nodes = (
(560,76,o),
(475,135,o),
(458,164,c),
(458,776,l),
(492,838,o),
(578,869,o),
(639,869,cs),
(829,869,o),
(893,722,o),
(893,493,cs),
(893,235,o),
(829,76,o),
(623,76,cs)
);
},
{
closed = 1;
nodes = (
(1027,1404,l),
(1027,1550,l),
(433,1550,l),
(443,1404,l,{
name = hr00;
})
);
}
);
width = 1322;
}
);
unicode = 387;
}
{
color = 9;
glyphname = Oopen;
layers = (
{
anchors = (
{
name = bottom;
pos = (593,0);
},
{
name = top;
pos = (563,1419);
}
);
layerId = "DD6F9F34-BC40-4E8F-B1D3-DF3B42A9710F";
shapes = (
{
closed = 1;
nodes = (
(872,-30,o),
(1250,184,o),
(1250,713,cs),
(1250,1275,o),
(914,1449,o),
(583,1449,cs),
(335,1449,o),
(140,1339,o),
(137,1311,cs),
(105,1037,l),
(105,1014,o),
(150,1003,o),
(166,1003,cs),
(188,1003,o),
(198,1010,o),
(203,1036,cs),
(236,1209,o),
(357,1354,o),
(584,1354,cs),
(753,1354,o),
(993,1267,o),
(993,713,cs),
(993,130,o),
(757,66,o),
(586,66,cs),
(355,66,o),
(243,215,o),
(196,383,c),
(193,405,o),
(178,412,o),
(161,412,cs),
(157,412,o),
(154,411,o),
(150,411,cs),
(134,411,o),
(101,394,o),
(104,371,c),
(126,58,l),
(197,27,o),
(319,-30,o),
(584,-30,cs)
);
}
);
width = 1315;
},
{
anchors = (
{
name = bottom;
pos = (660,0);
},
{
name = top;
pos = (606,1419);
}
);
layerId = "62CA62AF-CD91-478A-AB8B-28A62CC47DA0";
shapes = (
{
closed = 1;
nodes = (
(949,-30,o),
(1387,184,o),
(1387,713,cs,{
name = hr00;
}),
(1387,1275,o),
(977,1449,o),
(576,1449,cs),
(338,1449,o),
(137,1339,o),
(134,1311,cs),
(106,1007,l),
(106,984,o),
(161,973,o),
(177,973,cs),
(199,973,o),
(220,980,o),
(225,1006,cs),
(260,1188,o),
(374,1354,o),
(577,1354,cs),
(737,1354,o),
(998,1267,o),
(998,713,cs),
(998,130,o),
(762,66,o),
(599,66,cs),
(371,66,o),
(295,219,o),
(264,390,cs),
(260,412,o),
(215,419,o),
(187,419,cs),
(181,419,o),
(177,418,o),
(173,418,cs),
(156,418,o),
(104,401,o),
(107,378,c),
(124,58,l),
(178,59,o),
(272,-30,o),
(597,-30,cs)
);
}
);
width = 1465;
}
);
metricLeft = "=|C";
metricRight = "=|C";
unicode = 390;
}
{
glyphname = florin;
kernLeft = florin;
kernRight = florin;
layers = (
{
layerId = "DD6F9F34-BC40-4E8F-B1D3-DF3B42A9710F";
shapes = (
{
closed = 1;
nodes = (
(298,-460,o),
(423,-216,o),
(463,38,cs),
(537,509,l),
(844,509,l),
(858,515,o),
(868,537,o),
(868,562,cs),
(868,578,o),
(860,595,o),
(844,596,c),
(550,596,l),
(590,851,ls),
(642,1182,o),
(704,1221,o),
(790,1225,c),
(909,1076,l),
(948,1076,o),
(1021,1105,o),
(1021,1178,cs),
(1021,1247,o),
(953,1317,o),
(825,1317,cs),
(569,1317,o),
(444,1073,o),
(404,819,cs),
(369,596,l),
(195,596,l),
(181,590,o),
(171,568,o),
(171,543,cs),
(171,527,o),
(179,510,o),
(195,509,c),
(356,509,l),
(277,6,ls),
(229,-297,o),
(163,-364,o),
(77,-368,c),
(-42,-219,l),
(-81,-219,o),
(-154,-248,o),
(-154,-321,cs),
(-154,-390,o),
(-86,-460,o),
(42,-460,cs)
);
}
);
width = 1063;
},
{
layerId = "62CA62AF-CD91-478A-AB8B-28A62CC47DA0";
shapes = (
{
closed = 1;
nodes = (
(379,-448,o),
(519,-224,o),
(558,30,cs),
(634,522,l),
(867,522,l),
(881,528,o),
(891,570,o),
(891,595,cs),
(891,611,o),
(883,628,o),
(867,629,c),
(650,629,l),
(685,851,ls),
(726,1112,o),
(772,1242,o),
(815,1199,cs),
(1059,956,l),
(1122,955,o),
(1174,1039,o),
(1174,1127,cs),
(1174,1244,o),
(1034,1317,o),
(908,1317,cs),
(554,1317,o),
(409,1073,o),
(369,819,cs),
(339,629,l),
(166,612,l),
(152,606,o),
(141,591,o),
(141,566,cs),
(141,550,o),
(149,523,o),
(165,522,c),
(323,522,l),
(242,-2,ls,{
name = "❌";
}),
(216,-168,o),
(180,-338,o),
(130,-338,c),
(-65,-147,l,{
name = hr01;
}),
(-129,-146,o),
(-190,-215,o),
(-190,-292,cs),
(-190,-394,o),
(-94,-448,o),
(39,-448,cs)
);
}
);
width = 1186;
}
);
unicode = 402;
}
{
color = 9;
glyphname = Khook;
layers = (
{
anchors = (
{
name = bottom;
pos = (771,0);
},
{
name = top;
pos = (760,1419);
}
);
layerId = "DD6F9F34-BC40-4E8F-B1D3-DF3B42A9710F";
shapes = (
{
closed = 1;
nodes = (
(1389,0,ls),
(1411,0,o),
(1423,17,o),
(1423,32,cs),
(1423,62,o),
(1415,86,o),
(1387,89,cs),
(1338,94,o),
(1250,157,o),
(1201,222,cs),
(1080,383,o),
(878,715,o),
(754,799,c),
(1085,1194,ls),
(1154,1276,o),
(1217,1314,o),
(1278,1314,c),
(1278,1155,l),
(1414,1155,o),
(1487,1222,o),
(1487,1302,cs),
(1487,1373,o),
(1442,1447,o),
(1315,1447,cs),
(1232,1447,o),
(1108,1417,o),
(995,1276,cs),
(531,701,l),
(674,683,o),
(877,265,o),
(1006,83,cs),
(1054,15,o),
(1090,0,o),
(1113,0,cs)
);
},
{
closed = 1;
nodes = (
(634,0,ls),
(657,0,o),
(668,36,o),
(668,51,cs),
(668,81,o),
(660,85,o),
(632,88,cs),
(571,95,o),
(490,99,o),
(490,185,cs),
(491,1267,ls),
(491,1311,o),
(562,1326,o),
(626,1331,cs),
(652,1334,o),
(659,1347,o),
(659,1368,cs),
(659,1383,o),
(648,1419,o),
(625,1419,cs),
(130,1419,ls),
(107,1419,o),
(96,1383,o),
(96,1368,cs),
(96,1338,o),
(104,1334,o),
(132,1331,cs),
(193,1324,o),
(284,1320,o),
(284,1234,cs),
(283,152,ls),
(283,108,o),
(202,93,o),
(138,88,cs),
(112,85,o),
(105,72,o),
(105,51,cs),
(105,36,o),
(116,0,o),
(139,0,cs)
);
}
);
width = 1403;
},
{
anchors = (
{
name = bottom;
pos = (915,0);
},
{
name = top;
pos = (913,1419);
}
);
layerId = "62CA62AF-CD91-478A-AB8B-28A62CC47DA0";
shapes = (
{
closed = 1;
nodes = (
(1598,0,ls),
(1620,0,o),
(1632,31,o),
(1632,46,cs),
(1632,76,o),
(1624,86,o),
(1596,89,cs),
(1547,94,o),
(1474,156,o),
(1377,293,cs),
(1251,472,o),
(1075,814,o),
(970,861,c),
(1230,1143,ls),
(1318,1239,o),
(1385,1284,o),
(1460,1284,c),
(1460,1116,l),
(1647,1136,o),
(1701,1204,o),
(1701,1301,cs),
(1701,1396,o),
(1625,1448,o),
(1531,1448,cs),
(1332,1448,o),
(1226,1341,o),
(1118,1222,cs),
(640,697,l),
(803,709,o),
(940,336,o),
(1074,122,cs),
(1119,50,o),
(1158,0,o),
(1215,0,cs)
);
},
{
closed = 1;
nodes = (
(769,0,ls),
(792,0,o),
(803,36,o),
(803,51,cs),
(803,81,o),
(795,85,o),
(767,88,cs),
(706,95,o),
(625,99,o),
(625,185,cs),
(626,1267,ls),
(626,1311,o),
(707,1327,o),
(761,1331,cs),
(787,1333,o),
(794,1347,o),
(794,1368,cs),
(794,1383,o),
(783,1419,o),
(760,1419,cs),
(135,1419,ls),
(112,1419,o),
(101,1383,o),
(101,1368,cs),
(101,1338,o),
(109,1334,o),
(137,1331,cs),
(198,1324,o),
(289,1320,o),
(289,1234,cs),
(288,162,ls),
(288,118,o),
(207,93,o),
(143,88,cs),
(117,85,o),
(110,72,o),
(110,51,cs,{
name = hr00;
}),
(110,36,o),
(121,0,o),
(144,0,cs)
);
}
);
width = 1620;
}
);
metricLeft = H;
metricRight = f;
unicode = 408;
}
{
color = 1;
glyphname = Mturned;
layers = (
{
anchors = (
{
name = bottom;
pos = (1049,0);
},
{
name = top;
pos = (1049,1419);
}
);
layerId = "DD6F9F34-BC40-4E8F-B1D3-DF3B42A9710F";
shapes = (
{
closed = 1;
nodes = (
(1538,1419,ls),
(1516,1419,o),
(1504,1393,o),
(1504,1378,cs),
(1504,1348,o),
(1512,1344,o),
(1540,1341,cs),
(1589,1336,o),
(1652,1330,o),
(1652,1244,cs),
(1652,215,l),
(1597,164,o),
(1490,90,o),
(1353,90,cs),
(1177,90,o),
(1146,198,o),
(1146,288,cs),
(1146,1277,ls),
(1146,1315,o),
(1210,1338,o),
(1252,1341,cs),
(1278,1343,o),
(1283,1357,o),
(1283,1378,cs),
(1283,1393,o),
(1272,1419,o),
(1249,1419,cs),
(822,1419,ls),
(799,1419,o),
(788,1393,o),
(788,1378,cs),
(788,1349,o),
(799,1344,o),
(821,1341,cs),
(871,1334,o),
(948,1340,o),
(948,1244,c),
(948,245,l),
(948,236,o),
(948,225,o),
(948,215,c),
(890,164,o),
(787,90,o),
(661,90,cs),
(503,90,o),
(442,157,o),
(442,282,cs),
(442,1277,ls),
(442,1315,o),
(506,1338,o),
(548,1341,cs),
(574,1343,o),
(579,1357,o),
(579,1378,cs),
(579,1393,o),
(568,1419,o),
(545,1419,cs),
(108,1419,ls),
(85,1419,o),
(74,1393,o),
(74,1378,cs),
(74,1349,o),
(85,1344,o),
(107,1341,cs),
(157,1334,o),
(244,1340,o),
(244,1244,cs),
(244,304,ls),
(244,12,o),
(403,-28,o),
(586,-28,cs),
(778,-28,o),
(920,93,o),
(960,136,c),
(991,21,o),
(1111,-28,o),
(1304,-28,cs),
(1487,-28,o),
(1627,106,o),
(1662,141,c),
(1662,29,l),
(1665,-3,o),
(1681,-11,o),
(1692,-11,cs),
(1747,-11,o),
(1870,-10,o),
(1999,-2,cs,{
name = "❌";
}),
(2015,-1,o),
(2023,27,o),
(2023,43,cs),
(2023,68,o),
(2013,77,o),
(1999,83,c),
(1949,97,o),
(1850,84,o),
(1850,208,cs),
(1850,1277,ls),
(1850,1321,o),
(1917,1335,o),
(1966,1341,cs),
(1992,1344,o),
(1999,1357,o),
(1999,1378,cs),
(1999,1393,o),
(1988,1419,o),
(1965,1419,cs)
);
}
);
width = 2131;
},
{
anchors = (
{
name = bottom;
pos = (1204,0);
},
{
name = top;
pos = (1204,1419);
}
);
layerId = "62CA62AF-CD91-478A-AB8B-28A62CC47DA0";
shapes = (
{
closed = 1;
nodes = (
(1731,1419,ls),
(1709,1419,o),
(1697,1393,o),
(1697,1378,cs),
(1697,1348,o),
(1705,1344,o),
(1733,1341,cs),
(1782,1337,o),
(1835,1331,o),
(1835,1254,cs),
(1835,257,l),
(1778,206,o),
(1672,132,o),
(1558,132,cs),
(1414,132,o),
(1365,206,o),
(1365,328,cs),
(1365,1287,ls),
(1365,1319,o),
(1427,1338,o),
(1469,1341,c),
(1495,1344,o),
(1500,1357,o),
(1500,1378,cs),
(1500,1393,o),
(1489,1419,o),
(1466,1419,cs),
(920,1419,ls),
(897,1419,o),
(886,1393,o),
(886,1378,cs),
(886,1349,o),
(897,1344,o),
(919,1341,cs),
(969,1335,o),
(1028,1340,o),
(1028,1254,cs),
(1028,278,ls),
(1028,263,o),
(1029,249,o),
(1030,235,c),
(970,186,o),
(884,132,o),
(731,132,cs),
(592,132,o),
(561,234,o),
(561,328,cs),
(561,1287,ls),
(561,1319,o),
(615,1338,o),
(657,1341,c),
(683,1344,o),
(688,1357,o),
(688,1378,cs),
(688,1393,o),
(677,1419,o),
(654,1419,cs),
(98,1419,ls),
(75,1419,o),
(64,1393,o),
(64,1378,cs),
(64,1349,o),
(75,1344,o),
(97,1341,cs),
(147,1335,o),
(224,1340,o),
(224,1254,cs),
(224,354,ls),
(224,30,o),
(432,-20,o),
(616,-20,cs),
(821,-20,o),
(984,85,o),
(1049,134,c),
(1093,10,o),
(1227,-20,o),
(1338,-20,cs),
(1625,-20,o),
(1803,104,o),
(1845,149,c),
(1845,37,l,{
name = hr02;
}),
(1848,5,o),
(1864,-3,o),
(1875,-3,cs),
(1953,-2,o),
(2137,3,o),
(2321,11,cs),
(2337,12,o),
(2345,39,o),
(2345,55,cs),
(2345,80,o),
(2335,89,o),
(2321,95,c),
(2271,109,o),
(2172,92,o),
(2172,216,cs),
(2172,1287,ls),
(2172,1324,o),
(2229,1337,o),
(2278,1341,c),
(2304,1344,o),
(2311,1357,o),
(2311,1378,cs,{
name = hr01;
}),
(2311,1393,o),
(2300,1419,o),
(2277,1419,cs)
);
}
);
width = 2445;
}
);
metricLeft = U;
metricRight = I;
unicode = 412;
}
{
glyphname = Nhookleft;
layers = (
{
anchors = (
{
name = bottom;
pos = (754,0);
},
{
name = top;
pos = (798,1419);
}
);
layerId = "DD6F9F34-BC40-4E8F-B1D3-DF3B42A9710F";
shapes = (
{
closed = 1;
nodes = (
(274,-449,o),
(347,-234,o),
(347,16,cs),
(349,1154,l),
(366,1154,l),
(1205,-8,l),
(1215,-20,o),
(1238,-30,o),
(1259,-30,cs),
(1287,-30,o),
(1323,-16,o),
(1319,40,cs),
(1316,78,o),
(1313,88,o),
(1313,113,cs),
(1313,1234,ls),
(1313,1320,o),
(1427,1324,o),
(1488,1331,cs),
(1514,1334,o),
(1521,1347,o),
(1521,1368,cs),
(1521,1383,o),
(1510,1419,o),
(1487,1419,cs),
(1032,1419,ls),
(1009,1419,o),
(998,1383,o),
(998,1368,cs),
(998,1338,o),
(1006,1334,o),
(1034,1331,cs),
(1095,1324,o),
(1214,1320,o),
(1214,1234,cs),
(1214,313,l),
(1202,313,l),
(425,1419,l),
(87,1419,ls),
(64,1419,o),
(53,1383,o),
(53,1368,cs),
(53,1338,o),
(61,1334,o),
(89,1331,cs),
(150,1324,o),
(250,1320,o),
(250,1234,cs),
(249,-16,ls),
(249,-234,o),
(148,-343,o),
(81,-347,c),
(27,-247,o),
(25,-199,o),
(-15,-199,cs),
(-53,-199,o),
(-122,-235,o),
(-122,-310,cs),
(-122,-379,o),
(-82,-449,o),
(46,-449,cs)
);
}
);
width = 1571;
},
{
anchors = (
{
name = bottom;
pos = (860,0);
},
{
name = top;
pos = (883,1419);
}
);
layerId = "62CA62AF-CD91-478A-AB8B-28A62CC47DA0";
shapes = (
{
closed = 1;
nodes = (
(290,-449,o),
(393,-187,o),
(393,88,cs),
(394,1090,l),
(411,1090,l),
(1343,-8,ls,{
name = hr02;
}),
(1353,-20,o),
(1376,-30,o),
(1397,-30,cs),
(1438,-30,o),
(1511,-12,o),
(1507,40,cs),
(1504,78,o),
(1501,88,o),
(1501,113,cs),
(1501,1239,ls),
(1501,1306,o),
(1615,1324,o),
(1676,1331,cs),
(1702,1334,o),
(1709,1347,o),
(1709,1368,cs),
(1709,1383,o),
(1698,1419,o),
(1675,1419,cs),
(1200,1419,ls),
(1177,1419,o),
(1166,1383,o),
(1166,1368,cs),
(1166,1338,o),
(1174,1334,o),
(1202,1331,cs),
(1263,1324,o),
(1384,1320,o),
(1384,1234,cs),
(1384,467,l),
(1372,467,l),
(562,1419,l),
(74,1419,ls),
(51,1419,o),
(40,1383,o),
(40,1368,cs),
(40,1338,o),
(48,1334,o),
(76,1331,cs),
(137,1324,o),
(267,1266,o),
(267,1180,cs),
(267,-57,ls),
(267,-268,o),
(117,-347,o),
(27,-347,c),
(-93,-140,o),
(-98,-116,o),
(-158,-116,cs,{
name = hr00;
}),
(-227,-116,o),
(-286,-180,o),
(-286,-254,cs),
(-286,-336,o),
(-184,-449,o),
(-11,-449,cs)
);
}
);
width = 1719;
}
);
metricRight = N;
metricWidth = N;
unicode = 413;
}
{
color = 4;
glyphname = Esh;
layers = (
{
anchors = (
{
name = bottom;
pos = (476,0);
},
{
name = top;
pos = (515,1421);
}
);
layerId = "DD6F9F34-BC40-4E8F-B1D3-DF3B42A9710F";
shapes = (
{
closed = 1;
nodes = (
(482,-28,o),
(595,148,o),
(595,403,cs),
(595,1051,ls),
(595,1365,o),
(703,1352,o),
(778,1352,c),
(887,1189,l),
(889,1187,o),
(893,1186,o),
(898,1186,cs),
(933,1186,o),
(1006,1238,o),
(1006,1318,cs),
(1006,1389,o),
(942,1450,o),
(814,1450,cs),
(567,1450,o),
(391,1274,o),
(391,1019,cs),
(391,371,ls),
(391,57,o),
(283,70,o),
(208,70,c),
(99,233,l),
(97,235,o),
(93,236,o),
(88,236,cs),
(53,236,o),
(-20,184,o),
(-20,104,cs),
(-20,33,o),
(74,-28,o),
(202,-28,cs)
);
}
);
width = 986;
},
{
anchors = (
{
name = bottom;
pos = (520,0);
},
{
name = top;
pos = (540,1419);
}
);
layerId = "62CA62AF-CD91-478A-AB8B-28A62CC47DA0";
shapes = (
{
closed = 1;
nodes = (
(533,-30,o),
(694,202,o),
(694,457,cs),
(694,993,ls),
(694,1282,o),
(731,1335,o),
(814,1335,c),
(942,1164,l),
(942,1162,o),
(953,1161,o),
(953,1161,c),
(1018,1160,o),
(1071,1220,o),
(1071,1302,cs),
(1071,1380,o),
(995,1449,o),
(842,1449,cs),
(518,1449,o),
(357,1217,o),
(357,962,cs),
(357,426,ls),
(357,137,o),
(320,84,o),
(237,84,c),
(109,255,l),
(109,257,o),
(98,258,o),
(98,258,c),
(33,259,o),
(-20,199,o),
(-20,117,cs),
(-20,39,o),
(86,-30,o),
(229,-30,cs)
);
}
);
width = 1051;
}
);
unicode = (425,643);
}
{
glyphname = Uhorn;
kernLeft = U;
kernRight = U;
layers = (
{
anchors = (
{
name = bottom;
pos = (775,0);
},
{
name = ogonek;
pos = (1394,10);
},
{
name = top;
pos = (826,1419);
},
{
name = topright;
pos = (1521,1419);
}
);
layerId = "DD6F9F34-BC40-4E8F-B1D3-DF3B42A9710F";
shapes = (
{
closed = 1;
nodes = (
(1378,1322,l),
(1550,1322,o),
(1659,1478,o),
(1669,1633,cs),
(1670,1648,o),
(1667,1663,o),
(1664,1680,c),
(1491,1680,l),
(1492,1671,o),
(1492,1659,o),
(1492,1644,cs),
(1492,1564,o),
(1468,1417,o),
(1309,1414,c)
);
},
{
closed = 1;
nodes = (
(1296,1294,o),
(1319,1322,o),
(1378,1322,cs),
(1404,1322,o),
(1491,1362,o),
(1491,1383,cs),
(1491,1398,o),
(1493,1419,o),
(1470,1419,cs),
(1005,1419,ls),
(982,1419,o),
(971,1383,o),
(971,1368,cs),
(971,1338,o),
(979,1334,o),
(1007,1331,cs),
(1062,1325,o),
(1183,1311,o),
(1183,1244,cs),
(1183,514,ls),
(1183,250,o),
(1100,65,o),
(785,65,cs),
(577,65,o),
(459,212,o),
(459,524,cs),
(460,1267,ls),
(460,1311,o),
(546,1326,o),
(615,1331,cs),
(641,1333,o),
(648,1347,o),
(648,1368,cs),
(648,1383,o),
(637,1419,o),
(614,1419,cs),
(108,1419,ls),
(85,1419,o),
(74,1383,o),
(74,1368,cs),
(74,1338,o),
(82,1334,o),
(110,1331,cs),
(171,1326,o),
(252,1320,o),
(252,1234,cs),
(251,516,ls),
(251,194,o),
(419,-29,o),
(781,-29,cs),
(1101,-29,o),
(1293,154,o),
(1294,516,cs),
(1296,1230,ls)
);
}
);
width = 1549;
},
{
anchors = (
{
name = bottom;
pos = (853,0);
},
{
name = ogonek;
pos = (1535,10);
},
{
name = top;
pos = (953,1419);
},
{
name = topright;
pos = (1668,1419);
}
);
layerId = "62CA62AF-CD91-478A-AB8B-28A62CC47DA0";
shapes = (
{
closed = 1;
nodes = (
(1600,1329,l),
(1659,1329,o),
(1817,1421,o),
(1817,1627,cs),
(1817,1645,o),
(1814,1717,o),
(1811,1738,c),
(1595,1738,l),
(1597,1729,o),
(1597,1702,o),
(1597,1655,cs),
(1597,1554,o),
(1586,1419,o),
(1396,1419,c)
);
},
{
closed = 1;
nodes = (
(1445,1294,o),
(1497,1325,o),
(1600,1329,cs),
(1626,1330,o),
(1644,1347,o),
(1644,1368,cs),
(1644,1383,o),
(1633,1419,o),
(1610,1419,cs),
(1143,1419,ls),
(1120,1419,o),
(1109,1383,o),
(1109,1368,cs),
(1109,1338,o),
(1117,1334,o),
(1145,1331,cs),
(1200,1325,o),
(1322,1311,o),
(1322,1244,cs),
(1322,514,ls),
(1322,286,o),
(1201,65,o),
(905,65,cs),
(684,65,o),
(577,186,o),
(577,524,cs),
(578,1267,ls),
(578,1311,o),
(664,1326,o),
(733,1331,cs),
(759,1333,o),
(766,1347,o),
(766,1368,cs),
(766,1383,o),
(755,1419,o),
(732,1419,cs),
(98,1419,ls),
(75,1419,o),
(64,1383,o),
(64,1368,cs),
(64,1338,o),
(72,1334,o),
(100,1331,cs),
(161,1326,o),
(242,1320,o),
(242,1234,cs),
(241,548,ls),
(240,107,o),
(524,-29,o),
(901,-29,cs),
(1242,-29,o),
(1442,186,o),
(1443,516,cs),
(1445,1230,ls)
);
}
);
width = 1706;
}
);
unicode = 431;
}
{
glyphname = "Upsilon-latin";
layers = (
{
anchors = (
{
name = bottom;
pos = (798,0);
},
{
name = top;
pos = (798,1419);
}
);
layerId = "DD6F9F34-BC40-4E8F-B1D3-DF3B42A9710F";
shapes = (
{
closed = 1;
nodes = (
(891,1419,l),
(881,1419,o),
(861,1364,o),
(861,1321,c),
(1066,1203,o),
(1241,878,o),
(1241,567,cs),
(1241,248,o),
(1039,86,o),
(799,86,cs),
(796,86,ls),
(556,86,o),
(354,248,o),
(354,567,cs),
(354,900,o),
(529,1203,o),
(734,1321,c),
(734,1364,o),
(714,1419,o),
(704,1419,c),
(119,1419,l),
(66,1048,ls),
(63,1025,o),
(94,1014,o),
(109,1014,cs),
(130,1014,o),
(146,1023,o),
(154,1047,c),
(204,1156,o),
(265,1249,o),
(359,1256,cs),
(535,1269,l),
(358,1122,o),
(148,861,o),
(148,574,cs),
(148,203,o),
(413,-26,o),
(797,-26,cs),
(1182,-26,o),
(1447,203,o),
(1447,574,cs),
(1447,861,o),
(1237,1122,o),
(1060,1269,c),
(1236,1256,ls),
(1330,1249,o),
(1391,1156,o),
(1441,1047,c),
(1449,1023,o),
(1465,1014,o),
(1486,1014,cs),
(1501,1014,o),
(1532,1025,o),
(1529,1048,cs),
(1476,1419,l)
);
}
);
width = 1595;
},
{
anchors = (
{
name = bottom;
pos = (896,0);
},
{
name = top;
pos = (896,1419);
}
);
layerId = "62CA62AF-CD91-478A-AB8B-28A62CC47DA0";
shapes = (
{
closed = 1;
nodes = (
(1004,1419,ls),
(992,1419,o),
(980,1355,o),
(980,1320,c),
(1034,1254,o),
(1258,1188,o),
(1258,566,cs),
(1258,188,o),
(1095,87,o),
(896,87,cs),
(893,87,ls),
(698,87,o),
(547,188,o),
(547,566,cs),
(547,1158,o),
(777,1255,o),
(821,1316,c),
(821,1349,o),
(801,1419,o),
(787,1419,cs),
(132,1419,l),
(69,1048,ls),
(65,1025,o),
(97,1014,o),
(112,1014,cs),
(133,1014,o),
(149,1023,o),
(157,1047,c),
(207,1156,o),
(258,1249,o),
(351,1249,cs),
(622,1249,l),
(445,1145,o),
(161,908,o),
(161,577,cs),
(161,218,o),
(456,-25,o),
(894,-25,cs),
(1333,-25,o),
(1630,202,o),
(1630,561,cs),
(1630,891,o),
(1362,1145,o),
(1203,1249,c),
(1440,1249,ls),
(1533,1249,o),
(1584,1156,o),
(1634,1047,c),
(1642,1023,o),
(1658,1014,o),
(1679,1014,cs),
(1694,1014,o),
(1726,1025,o),
(1722,1048,cs),
(1659,1419,l,{
name = hr00;
})
);
}
);
width = 1791;
}
);
unicode = 433;
}
{
color = 9;
glyphname = Yhook;
layers = (
{
anchors = (
{
name = bottom;
pos = (640,0);
},
{
name = top;
pos = (713,1419);
},
{
name = topleft;
pos = (10,1419);
}
);
layerId = "DD6F9F34-BC40-4E8F-B1D3-DF3B42A9710F";
shapes = (
{
closed = 1;
nodes = (
(935,0,ls),
(957,0,o),
(969,36,o),
(969,51,cs),
(969,81,o),
(951,85,o),
(923,88,cs),
(856,95,o),
(741,79,o),
(741,165,cs),
(741,567,l),
(1058,1148,ls),
(1102,1229,o),
(1177,1314,o),
(1229,1314,c),
(1229,1155,l),
(1371,1155,o),
(1438,1222,o),
(1438,1302,cs),
(1438,1373,o),
(1394,1447,o),
(1267,1447,cs),
(1130,1447,o),
(1038,1366,o),
(970,1233,cs),
(678,655,l),
(365,1287,ls),
(362,1293,o),
(361,1298,o),
(361,1302,cs),
(361,1333,o),
(434,1337,o),
(513,1341,cs),
(539,1344,o),
(546,1357,o),
(546,1378,cs),
(546,1393,o),
(535,1419,o),
(512,1419,cs),
(-10,1419,ls),
(-32,1419,o),
(-44,1393,o),
(-44,1378,cs),
(-44,1348,o),
(-36,1344,o),
(-8,1341,cs),
(41,1336,o),
(98,1337,o),
(143,1254,cs),
(534,534,l),
(534,152,ls),
(534,81,o),
(426,93,o),
(359,88,cs),
(334,85,o),
(316,72,o),
(316,51,cs),
(316,36,o),
(327,0,o),
(350,0,cs)
);
}
);
width = 1468;
},
{
anchors = (
{
name = bottom;
pos = (828,0);
},
{
name = top;
pos = (884,1419);
},
{
name = topleft;
pos = (25,1419);
}
);
layerId = "62CA62AF-CD91-478A-AB8B-28A62CC47DA0";
shapes = (
{
closed = 1;
nodes = (
(1145,0,ls),
(1167,0,o),
(1179,36,o),
(1179,51,cs),
(1179,81,o),
(1161,85,o),
(1133,87,cs),
(1056,93,o),
(941,79,o),
(941,165,cs),
(941,535,l),
(1273,1125,ls),
(1337,1238,o),
(1385,1281,o),
(1460,1281,c),
(1460,1116,l),
(1649,1115,o),
(1701,1204,o),
(1701,1301,cs),
(1701,1402,o),
(1625,1448,o),
(1518,1448,cs),
(1362,1448,o),
(1269,1349,o),
(1175,1181,cs),
(878,649,l),
(546,1262,ls),
(544,1266,o),
(527,1292,o),
(527,1301,cs),
(527,1334,o),
(576,1334,o),
(706,1341,c),
(732,1344,o),
(739,1357,o),
(739,1378,cs),
(739,1393,o),
(728,1419,o),
(705,1419,cs),
(0,1419,ls),
(-22,1419,o),
(-34,1393,o),
(-34,1378,cs),
(-34,1348,o),
(-26,1344,o),
(2,1341,cs),
(51,1336,o),
(112,1334,o),
(161,1254,cs),
(604,525,l),
(604,152,ls),
(604,81,o),
(506,93,o),
(429,87,cs),
(404,85,o),
(386,72,o),
(386,51,cs,{
name = hr00;
}),
(386,36,o),
(397,0,o),
(420,0,cs)
);
}
);
width = 1711;
}
);
metricLeft = Y;
unicode = 435;
}
{
glyphname = ezhreversed;
layers = (
{
anchors = (
{
name = bottom;
pos = (528,-433);
},
{
name = top;
pos = (496,986);
}
);
layerId = "DD6F9F34-BC40-4E8F-B1D3-DF3B42A9710F";
shapes = (
{
closed = 1;
nodes = (
(760,-421,o),
(1017,-330,o),
(1017,-95,cs),
(1017,-5,o),
(950,63,o),
(888,63,cs),
(849,63,o),
(794,32,o),
(794,-21,c),
(841,-193,l),
(815,-253,o),
(752,-326,o),
(599,-326,cs),
(409,-326,o),
(251,-232,o),
(251,-7,cs),
(251,312,o),
(489,303,o),
(592,303,cs),
(655,303,ls),
(681,303,o),
(681,341,o),
(681,360,cs),
(681,379,o),
(675,395,o),
(655,417,c),
(431,768,l),
(320,903,l),
(681,903,ls),
(769,903,o),
(882,695,o),
(888,646,cs),
(891,620,o),
(904,613,o),
(925,613,cs),
(940,613,o),
(958,624,o),
(956,647,cs),
(927,945,l),
(915,972,o),
(900,986,o),
(880,986,cs),
(78,986,ls),
(62,986,o),
(54,981,o),
(54,962,cs),
(54,935,ls),
(54,924,o),
(57,917,o),
(64,907,cs),
(446,368,l),
(266,366,o),
(54,292,o),
(54,10,cs),
(54,-264,o),
(290,-421,o),
(584,-421,cs)
);
}
);
width = 1050;
},
{
anchors = (
{
name = bottom;
pos = (558,-403);
},
{
name = top;
pos = (520,994);
}
);
layerId = "62CA62AF-CD91-478A-AB8B-28A62CC47DA0";
shapes = (
{
closed = 1;
nodes = (
(827,-446,o),
(1048,-331,o),
(1048,-132,cs,{
name = hr01;
}),
(1048,-5,o),
(947,63,o),
(895,63,cs),
(805,63,o),
(778,24,o),
(767,-8,c),
(828,-251,l),
(834,-251,o),
(758,-351,o),
(589,-351,cs),
(413,-351,o),
(371,-239,o),
(371,-38,cs),
(371,228,o),
(455,269,o),
(637,269,cs),
(728,269,ls),
(740,269,o),
(749,277,o),
(749,325,cs),
(749,350,o),
(736,360,o),
(728,381,c),
(469,780,l),
(379,911,l),
(709,911,ls),
(787,911,o),
(856,743,o),
(895,594,cs),
(902,567,o),
(911,561,o),
(929,561,cs),
(943,561,o),
(990,572,o),
(991,595,c),
(965,953,l),
(953,983,o),
(938,994,o),
(922,994,cs),
(52,994,ls),
(38,994,o),
(19,987,o),
(19,968,cs),
(19,952,ls),
(19,943,o),
(21,926,o),
(28,915,cs),
(391,332,l),
(160,330,o),
(-1,223,o),
(-1,-11,cs),
(-1,-265,o),
(162,-446,o),
(582,-446,cs)
);
}
);
width = 1117;
}
);
unicode = 441;
}
{
color = 1;
glyphname = Gstroke;
layers = (
{
anchors = (
{
name = bottom;
pos = (785,0);
},
{
name = top;
pos = (789,1419);
}
);
layerId = "DD6F9F34-BC40-4E8F-B1D3-DF3B42A9710F";
shapes = (
{
closed = 1;
nodes = (
(1078,-30,o),
(1250,79,o),
(1282,123,c),
(1275,489,l),
(1275,533,o),
(1348,548,o),
(1407,553,cs),
(1433,555,o),
(1440,569,o),
(1440,590,cs),
(1440,605,o),
(1429,641,o),
(1406,641,cs),
(891,641,ls),
(868,641,o),
(857,605,o),
(857,590,cs),
(857,560,o),
(865,556,o),
(893,553,c),
(970,548,o),
(1072,542,o),
(1072,456,cs),
(1072,199,ls),
(1072,135,o),
(1008,65,o),
(800,65,cs),
(630,65,o),
(333,217,o),
(333,706,cs),
(333,1260,o),
(629,1354,o),
(781,1353,cs),
(1010,1351,o),
(1132,1207,o),
(1179,1039,c),
(1182,1017,o),
(1198,1010,o),
(1216,1010,cs),
(1220,1010,o),
(1223,1011,o),
(1227,1011,cs),
(1243,1011,o),
(1266,1028,o),
(1263,1051,c),
(1241,1361,l),
(1170,1392,o),
(1041,1449,o),
(783,1449,cs),
(487,1449,o),
(84,1256,o),
(84,706,cs),
(84,153,o),
(482,-30,o),
(754,-30,cs)
);
},
{
closed = 1;
nodes = (
(1417,306,l),
(1431,312,o),
(1441,354,o),
(1441,379,cs),
(1441,395,o),
(1433,412,o),
(1417,413,c),
(865,413,l),
(851,407,o),
(841,385,o),
(841,360,cs),
(841,344,o),
(849,307,o),
(865,306,c)
);
}
);
width = 1485;
},
{
anchors = (
{
name = bottom;
pos = (890,0);
},
{
name = top;
pos = (894,1419);
}
);
layerId = "62CA62AF-CD91-478A-AB8B-28A62CC47DA0";
shapes = (
{
closed = 1;
nodes = (
(1200,-30,o),
(1422,79,o),
(1452,123,c),
(1451,489,ls),
(1451,533,o),
(1501,546,o),
(1560,553,cs),
(1586,556,o),
(1593,569,o),
(1593,590,cs),
(1593,605,o),
(1582,641,o),
(1559,641,cs),
(934,641,ls),
(911,641,o),
(900,605,o),
(900,590,cs),
(900,560,o),
(908,555,o),
(936,553,cs),
(1013,547,o),
(1122,542,o),
(1122,456,cs),
(1122,184,ls),
(1122,121,o),
(1089,65,o),
(903,65,cs),
(736,65,o),
(456,217,o),
(456,706,cs),
(456,1260,o),
(750,1353,o),
(894,1353,cs),
(1138,1353,o),
(1238,1207,o),
(1284,1039,c),
(1288,1017,o),
(1330,1010,o),
(1356,1010,cs),
(1362,1010,o),
(1366,1011,o),
(1370,1011,cs),
(1387,1011,o),
(1428,1028,o),
(1426,1051,cs),
(1404,1361,l),
(1334,1392,o),
(1156,1449,o),
(896,1449,cs),
(552,1449,o),
(77,1256,o),
(77,706,cs,{
name = hr00;
}),
(77,153,o),
(570,-30,o),
(886,-30,cs)
);
},
{
closed = 1;
nodes = (
(1578,288,l),
(1592,294,o),
(1602,326,o),
(1602,347,cs),
(1602,363,o),
(1594,384,o),
(1578,385,c),
(919,385,l),
(905,379,o),
(895,357,o),
(895,332,cs),
(895,306,o),
(903,289,o),
(919,288,c)
);
}
);
width = 1653;
}
);
unicode = 484;
}
{
glyphname = Aringacute;
kernLeft = A;
kernRight = A;
layers = (
{
anchors = (
{
name = bottom;
pos = (678,0);
},
{
name = ogonek;
pos = (1222,10);
},
{
name = top;
pos = (682,1419);
}
);
layerId = "DD6F9F34-BC40-4E8F-B1D3-DF3B42A9710F";
shapes = (
{
closed = 1;
nodes = (
(430,0,ls),
(453,0,o),
(464,36,o),
(464,51,cs),
(464,72,o),
(457,85,o),
(431,88,c),
(349,93,o),
(285,86,o),
(285,120,cs),
(285,123,o),
(285,127,o),
(287,132,cs),
(423,537,l),
(364,494,l),
(935,494,l),
(875,537,l),
(1010,132,ls),
(1012,127,o),
(1013,122,o),
(1013,118,cs),
(1013,87,o),
(957,92,o),
(876,88,c),
(850,85,o),
(843,72,o),
(843,51,cs),
(843,36,o),
(854,0,o),
(877,0,cs),
(1378,0,ls),
(1400,0,o),
(1412,36,o),
(1412,51,cs),
(1412,81,o),
(1404,85,o),
(1376,88,cs),
(1327,93,o),
(1256,77,o),
(1225,165,cs),
(780,1441,l),
(620,1441,l),
(162,165,ls),
(130,76,o),
(58,93,o),
(9,88,cs),
(-19,85,o),
(-27,81,o),
(-27,51,cs),
(-27,24,o),
(-15,0,o),
(7,0,cs)
);
},
{
closed = 1;
nodes = (
(659,1187,l),
(875,537,l),
(905,580,l),
(393,580,l),
(424,537,l)
);
},
{
closed = 1;
nodes = (
(857,1407,o),
(984,1504,o),
(984,1662,cs),
(984,1820,o),
(857,1922,o),
(702,1922,cs),
(546,1922,o),
(420,1823,o),
(420,1665,cs),
(420,1507,o),
(546,1407,o),
(702,1407,cs,{
name = hr00;
})
);
},
{
closed = 1;
nodes = (
(588,1512,o),
(544,1581,o),
(544,1664,cs),
(544,1747,o),
(588,1818,o),
(702,1818,cs),
(816,1818,o),
(861,1749,o),
(861,1666,cs),
(861,1583,o),
(816,1512,o),
(702,1512,cs)
);
},
{
closed = 1;
nodes = (
(1010,1818,o),
(1106,1854,o),
(1131,1878,cs),
(1149,1895,o),
(1162,1919,o),
(1162,1945,cs),
(1162,1963,o),
(1155,1981,o),
(1139,1999,cs),
(1121,2019,o),
(1099,2026,o),
(1080,2026,cs),
(1053,2026,o),
(1027,2013,o),
(1010,1997,cs),
(985,1973,o),
(961,1924,o),
(871,1810,c),
(917,1763,l)
);
}
);
width = 1374;
},
{
anchors = (
{
name = bottom;
pos = (750,0);
},
{
name = ogonek;
pos = (1351,10);
},
{
name = top;
pos = (763,1419);
}
);
layerId = "62CA62AF-CD91-478A-AB8B-28A62CC47DA0";
shapes = (
{
closed = 1;
nodes = (
(446,0,ls),
(469,0,o),
(480,36,o),
(480,51,cs),
(480,72,o),
(473,85,o),
(447,88,c),
(366,92,o),
(300,87,o),
(300,119,cs),
(300,123,o),
(301,127,o),
(303,132,cs),
(443,522,l),
(393,478,l),
(943,477,l),
(893,512,l),
(1031,132,ls),
(1033,126,o),
(1034,121,o),
(1034,116,cs),
(1034,87,o),
(986,92,o),
(907,88,c),
(881,85,o),
(874,72,o),
(874,51,cs),
(874,36,o),
(885,0,o),
(908,0,cs),
(1530,0,ls),
(1552,0,o),
(1564,36,o),
(1564,51,cs),
(1564,81,o),
(1556,85,o),
(1528,88,cs),
(1479,93,o),
(1400,75,o),
(1367,165,cs),
(892,1441,l),
(658,1441,l),
(178,165,ls),
(146,79,o),
(74,93,o),
(25,88,cs),
(-3,85,o),
(-11,81,o),
(-11,51,cs),
(-11,24,o),
(1,0,o),
(23,0,cs)
);
},
{
closed = 1;
nodes = (
(910,563,l),
(435,563,l),
(452,555,l),
(688,1190,l),
(879,554,l)
);
},
{
closed = 1;
nodes = (
(943,1402,o),
(1083,1509,o),
(1083,1683,cs),
(1083,1853,o),
(943,1969,o),
(773,1969,cs),
(601,1969,o),
(463,1860,o),
(463,1686,cs),
(463,1512,o),
(601,1402,o),
(773,1402,cs,{
name = hr00;
})
);
},
{
closed = 1;
nodes = (
(660,1548,o),
(621,1610,o),
(621,1685,cs),
(621,1760,o),
(660,1824,o),
(763,1824,cs),
(866,1824,o),
(906,1762,o),
(906,1687,cs),
(906,1612,o),
(866,1548,o),
(763,1548,cs)
);
},
{
closed = 1;
nodes = (
(1164,1813,o),
(1273,1846,o),
(1302,1871,cs),
(1320,1887,o),
(1331,1917,o),
(1331,1948,cs),
(1331,1975,o),
(1323,2002,o),
(1302,2023,cs),
(1282,2043,o),
(1257,2052,o),
(1231,2052,cs),
(1197,2052,o),
(1163,2038,o),
(1145,2020,cs),
(1118,1993,o),
(1070,1918,o),
(960,1813,c),
(1017,1723,l,{
name = hr00;
})
);
}
);
width = 1553;
}
);
metricLeft = A;
metricRight = A;
unicode = 506;
}
{
color = 9;
glyphname = Cstroke;
layers = (
{
anchors = (
{
name = bottom;
pos = (722,0);
},
{
name = top;
pos = (752,1419);
}
);
layerId = "DD6F9F34-BC40-4E8F-B1D3-DF3B42A9710F";
shapes = (
{
closed = 1;
nodes = (
(1000,-30,o),
(1175,80,o),
(1178,108,cs),
(1210,382,l),
(1210,405,o),
(1165,416,o),
(1149,416,cs),
(1127,416,o),
(1117,409,o),
(1112,383,cs),
(1079,210,o),
(978,65,o),
(751,65,cs),
(592,65,o),
(322,152,o),
(322,706,cs),
(322,1289,o),
(558,1353,o),
(729,1353,cs),
(960,1353,o),
(1072,1204,o),
(1119,1036,c),
(1122,1014,o),
(1137,1007,o),
(1154,1007,cs),
(1158,1007,o),
(1161,1008,o),
(1165,1008,cs),
(1181,1008,o),
(1214,1025,o),
(1211,1048,c),
(1189,1361,l),
(1118,1392,o),
(996,1449,o),
(731,1449,cs),
(443,1449,o),
(65,1235,o),
(65,706,cs),
(65,144,o),
(431,-30,o),
(752,-30,cs)
);
},
{
closed = 1;
nodes = (
(192,-114,l,{
name = hr00;
}),
(190,-129,o),
(203,-148,o),
(225,-162,cs),
(233,-167,o),
(246,-171,o),
(257,-171,cs),
(264,-171,o),
(270,-169,o),
(274,-164,c),
(1128,1525,l),
(1130,1540,o),
(1108,1566,o),
(1087,1578,cs),
(1080,1582,o),
(1072,1584,o),
(1065,1584,cs),
(1057,1584,o),
(1050,1582,o),
(1045,1575,c)
);
}
);
width = 1315;
},
{
anchors = (
{
name = bottom;
pos = (805,0);
},
{
name = top;
pos = (859,1419);
}
);
layerId = "62CA62AF-CD91-478A-AB8B-28A62CC47DA0";
shapes = (
{
closed = 1;
nodes = (
(1127,-30,o),
(1328,80,o),
(1331,108,cs),
(1359,412,l),
(1359,435,o),
(1304,446,o),
(1288,446,cs),
(1266,446,o),
(1245,439,o),
(1240,413,cs),
(1205,231,o),
(1091,65,o),
(888,65,cs),
(728,65,o),
(467,152,o),
(467,706,cs),
(467,1289,o),
(703,1353,o),
(866,1353,cs),
(1094,1353,o),
(1170,1200,o),
(1201,1029,cs),
(1205,1007,o),
(1250,1000,o),
(1278,1000,cs),
(1284,1000,o),
(1288,1001,o),
(1292,1001,cs),
(1309,1001,o),
(1361,1018,o),
(1358,1041,c),
(1341,1361,l),
(1287,1360,o),
(1193,1449,o),
(868,1449,cs),
(516,1449,o),
(78,1235,o),
(78,706,cs,{
name = hr00;
}),
(78,144,o),
(488,-30,o),
(889,-30,cs)
);
},
{
closed = 1;
nodes = (
(185,-114,l,{
name = hr00;
}),
(183,-129,o),
(196,-148,o),
(218,-162,cs),
(226,-167,o),
(239,-171,o),
(250,-171,cs),
(257,-171,o),
(263,-169,o),
(267,-164,c),
(1243,1525,l),
(1245,1540,o),
(1223,1566,o),
(1202,1578,cs),
(1195,1582,o),
(1187,1584,o),
(1180,1584,cs),
(1172,1584,o),
(1165,1582,o),
(1160,1575,c)
);
}
);
width = 1465;
}
);
unicode = 571;
}
{
color = 9;
glyphname = Tdiagonalstroke;
layers = (
{
anchors = (
{
name = bottom;
pos = (628,0);
},
{
name = center;
pos = (634,710);
},
{
name = top;
pos = (624,1419);
}
);
layerId = "DD6F9F34-BC40-4E8F-B1D3-DF3B42A9710F";
shapes = (
{
closed = 1;
nodes = (
(941,0,ls),
(964,0,o),
(975,36,o),
(975,51,cs),
(975,81,o),
(967,85,o),
(939,88,c),
(858,93,o),
(737,99,o),
(737,185,cs),
(738,1320,l),
(991,1320,ls),
(1105,1320,o),
(1134,1064,o),
(1139,999,c),
(1142,973,o),
(1155,966,o),
(1176,966,cs),
(1191,966,o),
(1227,977,o),
(1227,1000,c),
(1223,1131,o),
(1208,1419,o),
(1193,1419,cs),
(75,1419,ls),
(60,1419,o),
(46,1131,o),
(40,1000,cs),
(39,977,o),
(76,966,o),
(91,966,cs),
(112,966,o),
(125,973,o),
(128,999,c),
(133,1064,o),
(163,1320,o),
(277,1320,cs),
(531,1320,l),
(530,182,ls),
(530,108,o),
(419,93,o),
(325,88,c),
(299,85,o),
(292,72,o),
(292,51,cs),
(292,36,o),
(303,0,o),
(326,0,cs)
);
},
{
closed = 1;
nodes = (
(192,-114,l,{
name = hr00;
}),
(190,-129,o),
(203,-148,o),
(225,-162,cs),
(233,-167,o),
(246,-171,o),
(257,-171,cs),
(264,-171,o),
(270,-169,o),
(274,-164,c),
(1128,1525,l),
(1130,1540,o),
(1108,1566,o),
(1087,1578,cs),
(1080,1582,o),
(1072,1584,o),
(1065,1584,cs),
(1057,1584,o),
(1050,1582,o),
(1045,1575,c)
);
}
);
width = 1267;
},
{
anchors = (
{
name = bottom;
pos = (717,0);
},
{
name = center;
pos = (717,710);
},
{
name = top;
pos = (717,1419);
}
);
layerId = "62CA62AF-CD91-478A-AB8B-28A62CC47DA0";
shapes = (
{
closed = 1;
nodes = (
(1079,0,ls),
(1102,0,o),
(1113,36,o),
(1113,51,cs),
(1113,81,o),
(1105,85,o),
(1077,88,c),
(996,93,o),
(875,99,o),
(875,185,cs),
(875,1320,l),
(1112,1320,ls),
(1227,1320,o),
(1259,1064,o),
(1266,999,cs),
(1269,973,o),
(1302,966,o),
(1323,966,cs),
(1338,966,o),
(1374,977,o),
(1374,1000,c),
(1370,1131,o),
(1359,1419,o),
(1344,1419,cs),
(57,1419,ls),
(42,1419,o),
(31,1131,o),
(27,1000,c),
(27,977,o),
(63,966,o),
(78,966,cs),
(99,966,o),
(132,973,o),
(135,999,c),
(140,1064,o),
(175,1320,o),
(289,1320,cs),
(539,1320,l),
(539,182,ls),
(539,108,o),
(427,93,o),
(333,88,c),
(307,85,o),
(300,72,o),
(300,51,cs,{
name = hr00;
}),
(300,36,o),
(311,0,o),
(334,0,cs)
);
},
{
closed = 1;
nodes = (
(185,-114,l,{
name = hr00;
}),
(183,-129,o),
(196,-148,o),
(218,-162,cs),
(226,-167,o),
(239,-171,o),
(250,-171,cs),
(257,-171,o),
(263,-169,o),
(267,-164,c),
(1243,1525,l),
(1245,1540,o),
(1223,1566,o),
(1202,1578,cs),
(1195,1582,o),
(1187,1584,o),
(1180,1584,cs),
(1172,1584,o),
(1165,1582,o),
(1160,1575,c)
);
}
);
width = 1401;
}
);
unicode = 574;
}
{
color = 4;
glyphname = Glottalstopsmall;
layers = (
{
layerId = "DD6F9F34-BC40-4E8F-B1D3-DF3B42A9710F";
shapes = (
{
closed = 1;
nodes = (
(774,0,ls),
(797,0,o),
(808,36,o),
(808,51,cs),
(808,81,o),
(800,86,o),
(772,88,cs),
(681,95,o),
(580,99,o),
(580,185,cs),
(581,628,l),
(724,662,o),
(997,783,o),
(997,1089,cs),
(997,1287,o),
(847,1458,o),
(514,1458,cs),
(252,1458,o),
(10,1285,o),
(10,1060,cs),
(10,956,o),
(78,914,o),
(128,914,cs),
(183,914,o),
(206,924,o),
(215,960,c),
(263,1239,l),
(263,1239,o),
(329,1355,o),
(494,1355,cs),
(648,1355,o),
(775,1265,o),
(775,1075,cs),
(775,806,o),
(640,736,o),
(374,655,c),
(373,152,ls),
(373,108,o),
(252,93,o),
(188,88,cs),
(162,86,o),
(155,72,o),
(155,51,cs),
(155,36,o),
(166,0,o),
(189,0,cs)
);
}
);
width = 1037;
},
{
layerId = "62CA62AF-CD91-478A-AB8B-28A62CC47DA0";
shapes = (
{
closed = 1;
nodes = (
(936,0,ls),
(959,0,o),
(970,36,o),
(970,51,cs),
(970,81,o),
(962,85,o),
(934,87,cs),
(853,93,o),
(761,99,o),
(762,185,cs),
(766,579,l),
(887,627,o),
(1177,795,o),
(1177,1055,cs),
(1177,1336,o),
(969,1438,o),
(594,1438,cs),
(333,1438,o),
(10,1304,o),
(10,1001,cs),
(10,872,o),
(103,800,o),
(159,800,cs),
(252,800,o),
(281,811,o),
(297,851,c),
(344,1223,l),
(344,1223,o),
(404,1324,o),
(577,1324,cs),
(733,1324,o),
(813,1236,o),
(813,1030,cs),
(813,861,o),
(670,666,o),
(426,610,c),
(425,152,ls),
(425,108,o),
(344,93,o),
(250,87,cs),
(224,85,o),
(217,72,o),
(217,51,cs,{
name = hr00;
}),
(217,36,o),
(228,0,o),
(251,0,cs)
);
}
);
width = 1217;
}
);
unicode = 577;
}
{
glyphname = glottalstopsmall;
layers = (
{
layerId = "DD6F9F34-BC40-4E8F-B1D3-DF3B42A9710F";
shapes = (
{
closed = 1;
nodes = (
(532,0,l),
(532,41,l),
(532,220,o),
(936,348,o),
(936,622,cs),
(936,806,o),
(824,1009,o),
(519,1009,cs),
(294,1009,o),
(156,883,o),
(112,765,cs),
(99,732,o),
(94,704,o),
(94,680,cs),
(94,594,o),
(159,560,o),
(200,560,cs),
(241,560,o),
(260,568,o),
(267,598,c),
(307,828,l),
(307,828,o),
(366,924,o),
(503,924,cs),
(693,924,o),
(735,747,o),
(735,622,cs),
(735,322,o),
(420,273,o),
(420,70,c),
(420,0,l)
);
}
);
width = 1005;
},
{
layerId = "62CA62AF-CD91-478A-AB8B-28A62CC47DA0";
shapes = (
{
closed = 1;
nodes = (
(620,0,l),
(620,62,l),
(622,272,o),
(1038,310,o),
(1040,640,cs),
(1040,851,o),
(876,1008,o),
(555,1008,cs),
(337,1008,o),
(157,882,o),
(112,764,c),
(100,733,o),
(95,705,o),
(95,680,cs),
(95,583,o),
(165,529,o),
(207,529,cs),
(277,529,o),
(314,537,o),
(326,567,c),
(346,847,l),
(346,847,o),
(406,923,o),
(529,923,cs),
(713,923,o),
(736,737,o),
(736,612,cs),
(736,312,o),
(458,344,o),
(458,72,cs),
(458,0,l,{
name = hr00;
})
);
}
);
width = 1095;
}
);
metricLeft = glottalstop;
metricRight = glottalstop;
unicode = 578;
}
{
glyphname = aturned;
layers = (
{
anchors = (
{
name = bottom;
pos = (535,-8);
},
{
name = ogonekabove;
pos = (176,976);
},
{
name = top;
pos = (535,986);
}
);
layerId = "DD6F9F34-BC40-4E8F-B1D3-DF3B42A9710F";
shapes = (
{
closed = 1;
nodes = (
(935,936,o),
(776,1007,o),
(655,1007,cs),
(515,1007,o),
(421,958,o),
(334,867,c),
(334,887,ls),
(334,986,o),
(299,1005,o),
(230,1005,cs),
(147,1005,o),
(73,969,o),
(38,943,cs),
(34,940,o),
(32,934,o),
(32,927,cs),
(32,907,o),
(49,877,o),
(72,884,cs),
(96,891,o),
(106,892,o),
(125,892,cs),
(147,892,o),
(163,837,o),
(163,785,cs),
(163,297,ls),
(163,138,o),
(213,-28,o),
(514,-28,cs),
(764,-28,o),
(923,86,o),
(923,205,cs),
(923,292,o),
(851,321,o),
(776,321,c),
(656,79,l),
(639,71,o),
(615,62,o),
(558,62,cs),
(399,62,o),
(352,159,o),
(352,233,c),
(352,387,l),
(620,415,o),
(935,478,o),
(935,743,cs,{
name = hr00;
})
);
},
{
closed = 1;
nodes = (
(726,530,o),
(569,491,o),
(353,458,c),
(353,810,l),
(393,850,o),
(473,896,o),
(583,896,cs),
(671,896,o),
(726,822,o),
(726,738,cs)
);
}
);
width = 1032;
},
{
anchors = (
{
name = bottom;
pos = (611,0);
},
{
name = ogonekabove;
pos = (231,984);
},
{
name = top;
pos = (611,994);
}
);
layerId = "62CA62AF-CD91-478A-AB8B-28A62CC47DA0";
shapes = (
{
closed = 1;
nodes = (
(1123,944,o),
(946,1018,o),
(825,1018,cs),
(685,1018,o),
(560,973,o),
(473,870,c),
(473,885,ls),
(473,994,o),
(445,1019,o),
(321,1019,cs),
(158,1019,o),
(43,965,o),
(21,950,cs),
(17,947,o),
(15,940,o),
(15,932,cs),
(15,908,o),
(22,875,o),
(45,875,cs),
(53,875,o),
(107,888,o),
(126,888,cs),
(148,888,o),
(164,848,o),
(164,796,cs),
(164,258,ls),
(164,99,o),
(293,-20,o),
(598,-20,cs),
(784,-20,o),
(1076,46,o),
(1076,218,cs),
(1076,301,o),
(1009,359,o),
(906,359,c),
(747,92,l),
(734,84,o),
(708,75,o),
(641,75,cs),
(552,75,o),
(490,104,o),
(490,231,cs),
(490,396,l),
(759,424,o),
(1123,486,o),
(1123,752,cs,{
name = hr00;
})
);
},
{
closed = 1;
nodes = (
(784,534,o),
(625,496,o),
(490,476,c),
(490,798,l),
(516,830,o),
(568,874,o),
(653,874,cs),
(741,874,o),
(784,809,o),
(784,742,cs)
);
}
);
width = 1220;
}
);
unicode = 592;
}
{
glyphname = "alpha-latin";
layers = (
{
anchors = (
{
name = bottom;
pos = (588,0);
},
{
name = top;
pos = (588,986);
}
);
layerId = "DD6F9F34-BC40-4E8F-B1D3-DF3B42A9710F";
shapes = (
{
closed = 1;
nodes = (
(620,-29,o),
(739,21,o),
(809,97,c),
(808,34,o),
(810,0,o),
(885,0,cs),
(1109,0,ls),
(1131,0,o),
(1143,26,o),
(1143,41,cs),
(1143,71,o),
(1135,75,o),
(1107,78,cs),
(1058,83,o),
(995,89,o),
(995,175,cs),
(995,992,ls),
(995,1003,o),
(989,1006,o),
(981,1006,cs),
(889,1006,o),
(844,956,o),
(819,904,c),
(782,968,o),
(686,1014,o),
(577,1014,cs),
(261,1014,o),
(92,761,o),
(92,492,cs),
(92,222,o),
(210,-29,o),
(525,-29,cs)
);
},
{
closed = 1;
nodes = (
(365,66,o),
(306,253,o),
(306,492,cs),
(306,736,o),
(361,919,o),
(584,919,cs),
(695,919,o),
(771,885,o),
(809,814,c),
(809,176,l),
(765,117,o),
(665,66,o),
(588,66,cs)
);
}
);
width = 1176;
},
{
anchors = (
{
name = bottom;
pos = (679,0);
},
{
name = top;
pos = (679,994);
}
);
layerId = "62CA62AF-CD91-478A-AB8B-28A62CC47DA0";
shapes = (
{
closed = 1;
nodes = (
(659,-29,o),
(804,15,o),
(872,108,c),
(871,37,o),
(868,0,o),
(948,0,cs,{
name = hr02;
}),
(1292,0,ls),
(1314,0,o),
(1326,26,o),
(1326,41,cs),
(1326,71,o),
(1318,75,o),
(1290,78,cs),
(1241,83,o),
(1178,89,o),
(1178,175,cs),
(1178,994,ls),
(1178,1007,o),
(1173,1012,o),
(1159,1012,cs),
(1083,1012,o),
(948,1006,o),
(873,937,c),
(824,1002,o),
(753,1014,o),
(646,1014,cs),
(302,1014,o),
(96,761,o),
(96,492,cs,{
name = hr01;
}),
(96,222,o),
(215,-29,o),
(544,-29,cs)
);
},
{
closed = 1;
nodes = (
(497,116,o),
(433,273,o),
(433,492,cs),
(433,740,o),
(517,909,o),
(723,909,cs),
(786,909,o),
(841,860,o),
(864,801,c),
(864,209,l),
(829,147,o),
(748,116,o),
(687,116,cs)
);
}
);
width = 1358;
}
);
unicode = 593;
}
{
color = 1;
glyphname = "iota-latin";
layers = (
{
anchors = (
{
name = bottom;
pos = (299,0);
},
{
name = ogonek;
pos = (413,10);
},
{
name = top;
pos = (309,994);
}
);
layerId = "DD6F9F34-BC40-4E8F-B1D3-DF3B42A9710F";
shapes = (
{
closed = 1;
nodes = (
(386,0,ls),
(571,0,o),
(588,69,o),
(588,104,cs),
(588,134,o),
(564,156,o),
(543,140,cs),
(527,128,o),
(507,113,o),
(456,113,cs),
(415,113,o),
(405,156,o),
(405,237,cs),
(405,957,l),
(402,989,o),
(386,997,o),
(375,997,cs),
(318,997,o),
(203,995,o),
(70,987,cs,{
name = L;
}),
(54,986,o),
(46,959,o),
(46,943,cs),
(46,918,o),
(56,909,o),
(70,903,c),
(124,889,o),
(219,902,o),
(219,778,cs),
(218,145,ls),
(218,84,o),
(241,0,o),
(361,0,cs)
);
}
);
width = 600;
},
{
anchors = (
{
name = bottom;
pos = (299,0);
},
{
name = ogonek;
pos = (413,10);
},
{
name = top;
pos = (309,994);
}
);
background = {
anchors = (
{
name = bottom;
pos = (299,0);
},
{
name = ogonek;
pos = (413,10);
},
{
name = top;
pos = (309,994);
}
);
shapes = (
{
ref = idotless;
},
{
closed = 1;
nodes = (
(386,0,ls),
(571,0,o),
(588,69,o),
(588,104,cs),
(588,134,o),
(564,156,o),
(543,140,cs),
(527,128,o),
(507,113,o),
(456,113,cs),
(415,113,o),
(405,156,o),
(405,237,cs),
(405,957,l),
(402,989,o),
(386,997,o),
(375,997,cs),
(318,997,o),
(203,995,o),
(70,987,cs,{
name = L;
}),
(54,986,o),
(46,959,o),
(46,943,cs),
(46,918,o),
(56,909,o),
(70,903,c),
(124,889,o),
(219,902,o),
(219,778,cs),
(218,145,ls),
(218,84,o),
(241,0,o),
(361,0,cs)
);
}
);
};
layerId = "62CA62AF-CD91-478A-AB8B-28A62CC47DA0";
shapes = (
{
closed = 1;
nodes = (
(518,0,ls),
(703,0,o),
(720,69,o),
(720,104,cs),
(720,134,o),
(696,156,o),
(675,140,cs),
(659,128,o),
(639,113,o),
(588,113,cs),
(547,113,o),
(537,156,o),
(537,237,cs),
(537,957,l),
(534,989,o),
(518,997,o),
(507,997,cs),
(450,997,o),
(203,995,o),
(70,987,cs,{
name = L;
}),
(54,986,o),
(46,959,o),
(46,943,cs),
(46,918,o),
(56,909,o),
(70,903,c),
(124,889,o),
(219,902,o),
(219,778,cs),
(218,145,ls),
(218,84,o),
(241,0,o),
(361,0,cs)
);
}
);
width = 724;
}
);
metricWidth = i;
unicode = 617;
}
{
glyphname = nhookleft;
layers = (
{
layerId = "DD6F9F34-BC40-4E8F-B1D3-DF3B42A9710F";
shapes = (
{
closed = 1;
nodes = (
(330,-449,o),
(403,-234,o),
(403,16,cs),
(404,771,l),
(459,822,o),
(577,896,o),
(702,896,cs),
(820,896,o),
(831,829,o),
(831,795,cs),
(831,142,ls),
(831,104,o),
(767,81,o),
(725,78,cs),
(699,76,o),
(694,62,o),
(694,41,cs),
(694,26,o),
(705,0,o),
(728,0,cs),
(1155,0,ls),
(1178,0,o),
(1189,26,o),
(1189,41,cs),
(1189,70,o),
(1178,75,o),
(1156,78,cs),
(1106,85,o),
(1019,79,o),
(1019,175,cs),
(1019,766,ls),
(1019,974,o),
(909,1014,o),
(779,1014,cs),
(591,1014,o),
(429,880,o),
(394,845,c),
(394,957,l),
(391,989,o),
(375,997,o),
(364,997,cs),
(309,997,o),
(198,996,o),
(69,988,cs,{
name = "❌";
}),
(53,987,o),
(45,959,o),
(45,943,cs),
(45,918,o),
(55,909,o),
(69,903,c),
(119,889,o),
(218,902,o),
(218,778,cs),
(217,-16,ls),
(217,-234,o),
(204,-343,o),
(137,-347,c),
(83,-247,o),
(81,-199,o),
(41,-199,cs),
(3,-199,o),
(-66,-235,o),
(-66,-310,cs),
(-66,-379,o),
(-26,-449,o),
(102,-449,cs)
);
}
);
width = 1210;
},
{
layerId = "62CA62AF-CD91-478A-AB8B-28A62CC47DA0";
shapes = (
{
closed = 1;
nodes = (
(467,-449,o),
(524,-187,o),
(524,88,cs),
(525,738,l),
(573,789,o),
(689,862,o),
(796,862,cs),
(915,862,o),
(915,770,o),
(915,711,cs),
(915,142,ls),
(915,104,o),
(856,83,o),
(814,78,cs),
(787,75,o),
(783,62,o),
(783,41,cs),
(783,26,o),
(794,0,o),
(817,0,cs),
(1359,0,ls),
(1382,0,o),
(1393,26,o),
(1393,41,cs),
(1393,70,o),
(1382,75,o),
(1360,78,cs),
(1310,85,o),
(1233,79,o),
(1233,175,cs),
(1233,716,ls),
(1233,964,o),
(1081,1014,o),
(911,1014,cs),
(733,1014,o),
(552,890,o),
(514,845,c),
(514,957,l,{
name = hr02;
}),
(511,989,o),
(495,997,o),
(484,997,cs),
(406,997,o),
(245,994,o),
(61,983,cs),
(45,982,o),
(37,955,o),
(37,939,cs),
(37,914,o),
(47,905,o),
(61,899,c),
(111,885,o),
(210,902,o),
(210,778,cs),
(209,-57,ls),
(209,-268,o),
(169,-347,o),
(119,-347,c),
(-1,-140,o),
(-6,-116,o),
(-66,-116,cs,{
name = hr00;
}),
(-135,-116,o),
(-194,-180,o),
(-194,-254,cs),
(-194,-336,o),
(-92,-449,o),
(81,-449,cs)
);
}
);
width = 1413;
}
);
metricRight = n;
metricWidth = n;
unicode = 626;
}
{
color = 4;
glyphname = glottalstop;
layers = (
{
anchors = (
{
name = bottom;
pos = (435,0);
},
{
name = top;
pos = (435,1419);
}
);
layerId = "DD6F9F34-BC40-4E8F-B1D3-DF3B42A9710F";
shapes = (
{
closed = 1;
nodes = (
(646,0,ls),
(670,0,o),
(685,20,o),
(685,44,cs),
(685,67,o),
(677,75,o),
(649,78,cs),
(600,83,o),
(527,89,o),
(527,175,cs),
(527,460,l),
(527,739,o),
(895,867,o),
(895,1141,cs),
(895,1325,o),
(783,1528,o),
(478,1528,cs),
(277,1528,o),
(53,1384,o),
(53,1199,cs),
(53,1113,o),
(118,1079,o),
(159,1079,cs),
(200,1079,o),
(219,1087,o),
(226,1117,c),
(266,1347,l),
(266,1347,o),
(325,1443,o),
(462,1443,cs),
(652,1443,o),
(694,1266,o),
(694,1141,cs),
(694,841,o),
(342,792,o),
(342,489,c),
(342,142,ls),
(342,98,o),
(274,83,o),
(225,78,cs),
(199,75,o),
(192,62,o),
(192,41,cs),
(192,19,o),
(207,0,o),
(229,0,cs)
);
}
);
width = 987;
},
{
anchors = (
{
name = bottom;
pos = (532,0);
},
{
name = top;
pos = (532,1419);
}
);
layerId = "62CA62AF-CD91-478A-AB8B-28A62CC47DA0";
shapes = (
{
closed = 1;
nodes = (
(809,0,ls),
(832,0,o),
(843,26,o),
(843,41,cs),
(843,71,o),
(835,75,o),
(807,78,cs),
(758,83,o),
(685,88,o),
(685,165,cs),
(685,532,l),
(687,792,o),
(1031,830,o),
(1033,1160,cs),
(1033,1371,o),
(869,1528,o),
(548,1528,cs),
(338,1528,o),
(88,1393,o),
(88,1200,cs),
(88,1103,o),
(158,1049,o),
(200,1049,cs),
(270,1049,o),
(307,1057,o),
(319,1087,c),
(339,1367,l),
(339,1367,o),
(399,1443,o),
(522,1443,cs),
(706,1443,o),
(729,1257,o),
(729,1132,cs),
(729,832,o),
(378,864,o),
(378,542,cs),
(378,132,ls,{
name = hr00;
}),
(378,95,o),
(312,82,o),
(263,78,cs),
(237,76,o),
(230,62,o),
(230,41,cs,{
name = hr00;
}),
(230,26,o),
(241,0,o),
(264,0,cs)
);
}
);
width = 1114;
}
);
metricLeft = "=|c";
metricRight = p;
unicode = 660;
}
{
color = 4;
glyphname = glottalstopreversed;
layers = (
{
layerId = "DD6F9F34-BC40-4E8F-B1D3-DF3B42A9710F";
shapes = (
{
closed = 1;
nodes = (
(583,489,l),
(583,792,o),
(268,841,o),
(268,1141,cs),
(268,1266,o),
(310,1443,o),
(500,1443,cs),
(637,1443,o),
(696,1347,o),
(696,1347,c),
(736,1117,l),
(743,1087,o),
(762,1079,o),
(803,1079,cs),
(844,1079,o),
(909,1113,o),
(909,1199,cs),
(909,1223,o),
(904,1251,o),
(891,1284,cs),
(847,1402,o),
(709,1528,o),
(484,1528,cs),
(179,1528,o),
(67,1325,o),
(67,1141,cs),
(67,867,o),
(471,739,o),
(471,460,c),
(471,0,l),
(583,0,l)
);
}
);
width = 980;
},
{
layerId = "62CA62AF-CD91-478A-AB8B-28A62CC47DA0";
shapes = (
{
closed = 1;
nodes = (
(672,542,ls),
(672,864,o),
(394,832,o),
(394,1132,cs),
(394,1257,o),
(417,1443,o),
(601,1443,cs),
(724,1443,o),
(784,1367,o),
(784,1367,c),
(804,1087,l),
(816,1057,o),
(853,1049,o),
(923,1049,cs),
(965,1049,o),
(1035,1103,o),
(1035,1200,cs),
(1035,1225,o),
(1030,1253,o),
(1018,1284,c),
(973,1402,o),
(793,1528,o),
(575,1528,cs),
(254,1528,o),
(90,1371,o),
(90,1160,cs),
(92,830,o),
(508,792,o),
(510,532,c),
(510,0,l),
(672,0,l,{
name = hr00;
})
);
}
);
width = 1123;
}
);
unicode = 661;
}
{
glyphname = apostrophemod;
layers = (
{
layerId = "DD6F9F34-BC40-4E8F-B1D3-DF3B42A9710F";
shapes = (
{
closed = 1;
nodes = (
(252,1092,o),
(395,1288,o),
(395,1446,cs),
(395,1581,o),
(313,1617,o),
(249,1617,cs),
(177,1617,o),
(118,1563,o),
(118,1493,cs),
(118,1386,o),
(226,1373,o),
(228,1362,cs),
(229,1358,o),
(229,1352,o),
(229,1346,cs),
(229,1293,o),
(205,1182,o),
(135,1105,c),
(129,1095,o),
(126,1086,o),
(126,1078,cs),
(126,1057,o),
(146,1045,o),
(168,1045,cs),
(177,1045,o),
(186,1047,o),
(194,1051,c,{
name = hr00;
})
);
}
);
width = 464;
},
{
layerId = "62CA62AF-CD91-478A-AB8B-28A62CC47DA0";
shapes = (
{
closed = 1;
nodes = (
(287,1036,o),
(455,1266,o),
(455,1452,cs),
(455,1612,o),
(359,1654,o),
(284,1654,cs),
(198,1654,o),
(130,1590,o),
(130,1508,cs),
(130,1382,o),
(257,1366,o),
(260,1354,cs),
(261,1348,o),
(262,1340,o),
(262,1331,cs),
(262,1268,o),
(231,1140,o),
(149,1052,c),
(142,1041,o),
(139,1030,o),
(139,1021,cs),
(139,996,o),
(163,981,o),
(189,981,cs),
(199,981,o),
(210,984,o),
(219,988,c,{
name = hr00;
})
);
}
);
width = 550;
}
);
unicode = 700;
}
{
glyphname = ringhalfleft;
kernLeft = ring;
kernRight = ring;
layers = (
{
anchors = (
{
name = _top;
pos = (2,994);
},
{
name = top;
pos = (2,1657);
}
);
layerId = "DD6F9F34-BC40-4E8F-B1D3-DF3B42A9710F";
shapes = (
{
closed = 1;
nodes = (
(-1,1247,l),
(-113,1248,o),
(-156,1317,o),
(-156,1399,cs),
(-156,1481,o),
(-113,1551,o),
(-3,1553,c),
(-3,1657,l),
(-157,1655,o),
(-280,1556,o),
(-280,1400,cs),
(-280,1243,o),
(-155,1143,o),
(-1,1142,c)
);
}
);
width = 0;
},
{
anchors = (
{
name = _top;
pos = (2,994);
},
{
name = top;
pos = (2,1657);
}
);
layerId = "62CA62AF-CD91-478A-AB8B-28A62CC47DA0";
shapes = (
{
closed = 1;
nodes = (
(-1,1262,l),
(-102,1263,o),
(-140,1325,o),
(-140,1399,cs),
(-140,1472,o),
(-103,1535,o),
(-5,1538,c),
(-5,1683,l),
(-174,1680,o),
(-308,1571,o),
(-308,1400,cs),
(-308,1227,o),
(-172,1117,o),
(-1,1116,c)
);
}
);
width = 0;
}
);
unicode = 703;
}
{
color = 4;
glyphname = glottalstopmod;
layers = (
{
layerId = "DD6F9F34-BC40-4E8F-B1D3-DF3B42A9710F";
shapes = (
{
closed = 1;
nodes = (
(357,918,l),
(357,968,l),
(357,1071,o),
(609,1067,o),
(609,1312,cs),
(609,1444,o),
(484,1516,o),
(304,1516,cs),
(186,1516,o),
(10,1429,o),
(10,1300,cs),
(10,1229,o),
(53,1178,o),
(103,1178,cs),
(139,1178,o),
(160,1189,o),
(176,1203,c),
(191,1384,l),
(216,1411,o),
(244,1420,o),
(284,1420,cs),
(359,1420,o),
(376,1370,o),
(376,1287,cs),
(376,1090,o),
(232,1126,o),
(232,981,c),
(232,918,l)
);
}
);
userData = {
RMXScaler = {
height = 50;
weight = 40;
width = 70;
};
};
width = 619;
},
{
layerId = "62CA62AF-CD91-478A-AB8B-28A62CC47DA0";
shapes = (
{
closed = 1;
nodes = (
(466,918,l),
(466,930,ls),
(466,1052,o),
(745,1075,o),
(745,1298,cs),
(745,1434,o),
(614,1515,o),
(379,1515,cs),
(206,1515,o),
(12,1419,o),
(12,1286,cs),
(12,1210,o),
(60,1150,o),
(120,1150,cs),
(155,1150,o),
(206,1152,o),
(245,1187,c),
(261,1345,l),
(275,1376,o),
(308,1393,o),
(345,1393,cs),
(418,1393,o),
(444,1352,o),
(444,1273,cs),
(444,1121,o),
(275,1133,o),
(275,953,cs),
(275,918,l)
);
}
);
userData = {
RMXScaler = {
height = 50;
weight = 40;
width = 70;
};
};
width = 757;
}
);
unicode = 704;
userData = {
RMXScaler = {
source = question;
};
};
}
{
glyphname = verticallinemod;
layers = (
{
layerId = "DD6F9F34-BC40-4E8F-B1D3-DF3B42A9710F";
shapes = (
{
closed = 1;
nodes = (
(235,992,l),
(361,992,l),
(361,1549,l),
(235,1549,l)
);
}
);
width = 600;
},
{
layerId = "62CA62AF-CD91-478A-AB8B-28A62CC47DA0";
shapes = (
{
closed = 1;
nodes = (
(237,923,l),
(383,923,l),
(383,1549,l),
(237,1549,l,{
name = hr00;
})
);
}
);
width = 600;
}
);
unicode = 712;
}
{
glyphname = dotaccent;
kernLeft = dotaccent;
kernRight = dotaccent;
layers = (
{
layerId = "DD6F9F34-BC40-4E8F-B1D3-DF3B42A9710F";
shapes = (
{
closed = 1;
nodes = (
(578,1240,o),
(626,1301,o),
(626,1379,cs),
(626,1457,o),
(578,1518,o),
(505,1518,cs),
(431,1518,o),
(384,1457,o),
(384,1379,cs),
(384,1301,o),
(431,1240,o),
(505,1240,cs)
);
}
);
width = 1024;
},
{
layerId = "62CA62AF-CD91-478A-AB8B-28A62CC47DA0";
shapes = (
{
closed = 1;
nodes = (
(647,1180,o),
(722,1263,o),
(722,1363,cs),
(722,1464,o),
(647,1547,o),
(533,1547,cs,{
name = L;
}),
(418,1547,o),
(345,1464,o),
(345,1363,cs),
(345,1263,o),
(418,1180,o),
(533,1180,cs,{
name = hr00;
})
);
}
);
width = 1024;
}
);
unicode = 729;
}
{
glyphname = ring;
kernLeft = ring;
kernRight = ring;
layers = (
{
layerId = "DD6F9F34-BC40-4E8F-B1D3-DF3B42A9710F";
shapes = (
{
closed = 1;
nodes = (
(672,1114,o),
(794,1207,o),
(794,1359,cs),
(794,1511,o),
(672,1609,o),
(524,1609,cs),
(375,1609,o),
(254,1514,o),
(254,1362,cs),
(254,1210,o),
(375,1114,o),
(524,1114,cs)
);
},
{
closed = 1;
nodes = (
(410,1209,o),
(366,1278,o),
(366,1361,cs),
(366,1444,o),
(410,1515,o),
(524,1515,cs),
(638,1515,o),
(683,1446,o),
(683,1363,cs),
(683,1280,o),
(638,1209,o),
(524,1209,cs)
);
}
);
width = 1024;
},
{
layerId = "62CA62AF-CD91-478A-AB8B-28A62CC47DA0";
shapes = (
{
closed = 1;
nodes = (
(670,1142,o),
(797,1239,o),
(797,1397,cs),
(797,1555,o),
(670,1657,o),
(515,1657,cs),
(359,1657,o),
(233,1558,o),
(233,1400,cs),
(233,1242,o),
(359,1142,o),
(515,1142,cs,{
name = hr00;
})
);
},
{
closed = 1;
nodes = (
(401,1247,o),
(357,1316,o),
(357,1399,cs),
(357,1482,o),
(401,1553,o),
(515,1553,cs),
(629,1553,o),
(674,1484,o),
(674,1401,cs),
(674,1318,o),
(629,1247,o),
(515,1247,cs)
);
}
);
width = 1024;
}
);
unicode = 730;
}
{
glyphname = acutecomb;
kernLeft = acutecomb;
kernRight = acutecomb;
layers = (
{
anchors = (
{
name = _top;
pos = (414,994);
},
{
name = top;
pos = (414,1461);
}
);
layerId = "DD6F9F34-BC40-4E8F-B1D3-DF3B42A9710F";
shapes = (
{
closed = 1;
nodes = (
(516,1277,o),
(662,1348,o),
(693,1379,cs),
(714,1400,o),
(731,1429,o),
(731,1461,cs),
(731,1483,o),
(723,1505,o),
(703,1527,cs),
(682,1551,o),
(655,1560,o),
(631,1560,cs),
(598,1560,o),
(567,1544,o),
(546,1524,cs),
(515,1494,o),
(420,1341,o),
(256,1152,c),
(312,1094,l)
);
}
);
width = 1024;
},
{
anchors = (
{
name = _top;
pos = (382,994);
},
{
name = top;
pos = (382,1448);
}
);
layerId = "62CA62AF-CD91-478A-AB8B-28A62CC47DA0";
shapes = (
{
closed = 1;
nodes = (
(480,1264,o),
(640,1343,o),
(671,1373,cs),
(691,1392,o),
(704,1425,o),
(704,1460,cs),
(704,1490,o),
(695,1520,o),
(672,1544,cs),
(650,1567,o),
(621,1577,o),
(591,1577,cs),
(553,1577,o),
(515,1561,o),
(494,1541,cs),
(463,1511,o),
(374,1358,o),
(220,1169,c),
(276,1111,l,{
name = hr00;
})
);
}
);
width = 1024;
}
);
unicode = 769;
}
{
glyphname = circumflexcomb;
kernLeft = circumflex;
kernRight = circumflex;
layers = (
{
anchors = (
{
name = _top;
pos = (527,994);
},
{
name = top;
pos = (527,1549);
}
);
layerId = "DD6F9F34-BC40-4E8F-B1D3-DF3B42A9710F";
shapes = (
{
closed = 1;
nodes = (
(305,1110,l),
(527,1371,l),
(754,1110,l),
(867,1110,l),
(622,1489,l),
(600,1522,o),
(576,1549,o),
(527,1549,cs),
(479,1549,o),
(454,1526,o),
(432,1498,c),
(187,1110,l)
);
}
);
width = 1024;
},
{
anchors = (
{
name = _top;
pos = (500,994);
},
{
name = top;
pos = (500,1559);
}
);
layerId = "62CA62AF-CD91-478A-AB8B-28A62CC47DA0";
shapes = (
{
closed = 1;
nodes = (
(278,1140,l),
(500,1351,l),
(727,1140,l),
(870,1140,l),
(627,1499,ls),
(605,1531,o),
(569,1559,o),
(500,1559,cs),
(432,1559,o),
(397,1537,o),
(377,1508,cs),
(130,1140,l,{
name = hr00;
})
);
}
);
width = 1024;
}
);
unicode = 770;
}
{
glyphname = tildecomb;
kernLeft = tildecomb;
kernRight = tildecomb;
layers = (
{
anchors = (
{
name = _top;
pos = (0,994);
},
{
name = top;
pos = (0,1331);
}
);
background = {
shapes = (
{
closed = 1;
nodes = (
(241,1174,o),
(298,1248,o),
(354,1355,cs),
(357,1361,o),
(360,1368,o),
(360,1375,cs),
(360,1383,o),
(358,1390,o),
(353,1397,cs),
(342,1412,o),
(333,1416,o),
(322,1416,cs),
(318,1416,o),
(314,1416,o),
(310,1415,c),
(272,1400,o),
(242,1321,o),
(170,1321,cs),
(142,1321,o),
(108,1332,o),
(66,1363,cs),
(2,1409,o),
(-55,1464,o),
(-102,1464,cs),
(-220,1464,o),
(-264,1415,o),
(-336,1299,cs),
(-340,1293,o),
(-342,1286,o),
(-342,1279,cs),
(-342,1271,o),
(-340,1264,o),
(-335,1257,cs),
(-324,1242,o),
(-315,1238,o),
(-304,1238,cs),
(-300,1238,o),
(-296,1238,o),
(-292,1239,c),
(-256,1254,o),
(-230,1320,o),
(-165,1320,cs),
(-137,1320,o),
(-102,1308,o),
(-56,1275,cs),
(8,1229,o),
(64,1174,o),
(112,1174,cs)
);
}
);
};
layerId = "DD6F9F34-BC40-4E8F-B1D3-DF3B42A9710F";
shapes = (
{
closed = 1;
nodes = (
(221,1117,o),
(319,1249,o),
(319,1306,cs),
(319,1338,o),
(291,1369,o),
(269,1369,c),
(248,1369,o),
(212,1272,o),
(149,1272,cs),
(62,1272,o),
(-14,1405,o),
(-99,1405,cs,{
name = hr03;
}),
(-219,1405,o),
(-314,1273,o),
(-314,1216,cs),
(-314,1184,o),
(-289,1153,o),
(-267,1153,cs),
(-245,1153,o),
(-210,1250,o),
(-147,1250,cs),
(-73,1250,o),
(-2,1117,o),
(101,1117,cs,{
name = hr03;
})
);
}
);
width = 0;
},
{
anchors = (
{
name = _top;
pos = (0,1004);
},
{
name = top;
pos = (0,1344);
}
);
layerId = "62CA62AF-CD91-478A-AB8B-28A62CC47DA0";
shapes = (
{
closed = 1;
nodes = (
(241,1128,o),
(336,1247,o),
(336,1324,cs),
(336,1358,o),
(309,1396,o),
(287,1396,cs),
(243,1396,o),
(240,1302,o),
(145,1302,cs),
(43,1302,o),
(-11,1441,o),
(-124,1441,cs,{
name = hr03;
}),
(-251,1441,o),
(-340,1308,o),
(-340,1245,cs),
(-340,1211,o),
(-313,1173,o),
(-291,1173,cs),
(-247,1173,o),
(-246,1267,o),
(-154,1267,cs),
(-59,1267,o),
(8,1130,o),
(123,1129,cs,{
name = hr02;
})
);
}
);
width = 0;
}
);
unicode = 771;
}
{
glyphname = brevecomb;
kernLeft = brevecomb;
kernRight = brevecomb;
layers = (
{
anchors = (
{
name = _top;
pos = (0,994);
},
{
name = top;
pos = (0,1547);
}
);
layerId = "DD6F9F34-BC40-4E8F-B1D3-DF3B42A9710F";
shapes = (
{
closed = 1;
nodes = (
(118,1134,o),
(326,1185,o),
(333,1497,c),
(220,1497,l),
(214,1399,o),
(144,1282,o),
(0,1282,cs),
(-144,1282,o),
(-214,1399,o),
(-220,1497,c),
(-333,1497,l),
(-326,1185,o),
(-118,1134,o),
(0,1134,cs)
);
}
);
width = 0;
},
{
anchors = (
{
name = _top;
pos = (0,994);
},
{
name = top;
pos = (0,1553);
}
);
layerId = "62CA62AF-CD91-478A-AB8B-28A62CC47DA0";
shapes = (
{
closed = 1;
nodes = (
(168,1140,o),
(366,1211,o),
(353,1513,c),
(220,1513,l),
(214,1395,o),
(144,1338,o),
(0,1338,cs),
(-144,1338,o),
(-214,1395,o),
(-220,1513,c),
(-353,1513,l),
(-366,1211,o),
(-168,1140,o),
(0,1140,cs,{
name = hr00;
})
);
}
);
width = 0;
}
);
unicode = 774;
}
{
glyphname = dotaccentcomb;
kernLeft = dotaccentcomb;
kernRight = dotaccentcomb;
layers = (
{
anchors = (
{
name = _top;
pos = (0,994);
},
{
name = top;
pos = (0,1388);
}
);
layerId = "DD6F9F34-BC40-4E8F-B1D3-DF3B42A9710F";
shapes = (
{
closed = 1;
nodes = (
(73,1173,o),
(121,1234,o),
(121,1312,cs),
(121,1390,o),
(73,1451,o),
(0,1451,cs),
(-74,1451,o),
(-121,1390,o),
(-121,1312,cs),
(-121,1234,o),
(-74,1173,o),
(0,1173,cs)
);
}
);
width = 0;
},
{
anchors = (
{
name = _top;
pos = (0,994);
},
{
name = top;
pos = (0,1473);
}
);
background = {
shapes = (
{
closed = 1;
nodes = (
(114,1180,o),
(188,1263,o),
(188,1363,cs),
(188,1464,o),
(114,1547,o),
(0,1547,cs),
(-115,1547,o),
(-188,1464,o),
(-188,1363,cs),
(-188,1263,o),
(-115,1180,o),
(0,1180,cs,{
name = hr00;
})
);
}
);
};
layerId = "62CA62AF-CD91-478A-AB8B-28A62CC47DA0";
shapes = (
{
closed = 1;
nodes = (
(103,1150,o),
(188,1225,o),
(188,1333,cs),
(188,1441,o),
(103,1517,o),
(0,1517,cs),
(-104,1517,o),
(-188,1441,o),
(-188,1333,cs),
(-188,1225,o),
(-104,1150,o),
(0,1150,cs)
);
}
);
width = 0;
}
);
unicode = 775;
}
{
glyphname = dieresiscomb;
kernLeft = dieresiscomb;
kernRight = dieresiscomb;
layers = (
{
anchors = (
{
name = _top;
pos = (-1,994);
},
{
name = top;
pos = (0,1369);
}
);
layerId = "DD6F9F34-BC40-4E8F-B1D3-DF3B42A9710F";
shapes = (
{
closed = 1;
nodes = (
(284,1182,o),
(322,1238,o),
(322,1316,cs),
(322,1394,o),
(284,1450,o),
(211,1450,cs),
(137,1450,o),
(100,1394,o),
(100,1316,cs),
(100,1238,o),
(137,1182,o),
(211,1182,cs)
);
},
{
closed = 1;
nodes = (
(-140,1182,o),
(-102,1238,o),
(-102,1316,cs),
(-102,1394,o),
(-140,1450,o),
(-213,1450,cs),
(-287,1450,o),
(-324,1394,o),
(-324,1316,cs),
(-324,1238,o),
(-287,1182,o),
(-213,1182,cs)
);
}
);
width = 0;
},
{
anchors = (
{
name = _top;
pos = (0,994);
},
{
name = top;
pos = (0,1452);
}
);
layerId = "62CA62AF-CD91-478A-AB8B-28A62CC47DA0";
shapes = (
{
closed = 1;
nodes = (
(340,1180,o),
(407,1263,o),
(407,1363,cs),
(407,1464,o),
(340,1547,o),
(238,1547,cs),
(135,1547,o),
(70,1464,o),
(70,1363,cs),
(70,1263,o),
(135,1180,o),
(238,1180,cs,{
name = hr00;
})
);
},
{
closed = 1;
nodes = (
(-137,1180,o),
(-70,1263,o),
(-70,1363,cs),
(-70,1464,o),
(-137,1547,o),
(-239,1547,cs),
(-342,1547,o),
(-407,1464,o),
(-407,1363,cs),
(-407,1263,o),
(-342,1180,o),
(-239,1180,cs)
);
}
);
width = 0;
}
);
unicode = 776;
}
{
glyphname = ringcomb;
kernLeft = ring;
kernRight = ring;
layers = (
{
anchors = (
{
name = _top;
pos = (2,994);
},
{
name = top;
pos = (284,1325);
}
);
layerId = "DD6F9F34-BC40-4E8F-B1D3-DF3B42A9710F";
shapes = (
{
closed = 1;
nodes = (
(157,1122,o),
(284,1219,o),
(284,1377,cs),
(284,1535,o),
(157,1637,o),
(2,1637,cs),
(-154,1637,o),
(-280,1538,o),
(-280,1380,cs),
(-280,1222,o),
(-154,1122,o),
(2,1122,cs,{
name = hr00;
})
);
},
{
closed = 1;
nodes = (
(-112,1227,o),
(-156,1296,o),
(-156,1379,cs),
(-156,1462,o),
(-112,1533,o),
(2,1533,cs),
(116,1533,o),
(161,1464,o),
(161,1381,cs),
(161,1298,o),
(116,1227,o),
(2,1227,cs)
);
}
);
width = 0;
},
{
anchors = (
{
name = _top;
pos = (2,994);
},
{
name = top;
pos = (259,1349);
}
);
layerId = "62CA62AF-CD91-478A-AB8B-28A62CC47DA0";
shapes = (
{
closed = 1;
nodes = (
(172,1116,o),
(312,1223,o),
(312,1397,cs),
(312,1567,o),
(172,1683,o),
(2,1683,cs),
(-170,1683,o),
(-308,1574,o),
(-308,1400,cs),
(-308,1226,o),
(-170,1116,o),
(2,1116,cs,{
name = hr00;
})
);
},
{
closed = 1;
nodes = (
(-101,1262,o),
(-140,1324,o),
(-140,1399,cs),
(-140,1474,o),
(-101,1538,o),
(2,1538,cs),
(105,1538,o),
(145,1476,o),
(145,1401,cs),
(145,1326,o),
(105,1262,o),
(2,1262,cs)
);
}
);
width = 0;
}
);
unicode = 778;
}
{
glyphname = breveinvertedcomb;
kernLeft = brevecomb;
kernRight = brevecomb;
layers = (
{
anchors = (
{
name = _top;
pos = (0,994);
}
);
layerId = "DD6F9F34-BC40-4E8F-B1D3-DF3B42A9710F";
shapes = (
{
closed = 1;
nodes = (
(-118,1527,o),
(-326,1476,o),
(-333,1164,c),
(-220,1164,l),
(-214,1272,o),
(-144,1389,o),
(0,1389,cs),
(144,1389,o),
(214,1272,o),
(220,1164,c),
(333,1164,l),
(326,1476,o),
(118,1527,o),
(0,1527,cs)
);
}
);
width = 0;
},
{
anchors = (
{
name = _top;
pos = (0,994);
}
);
layerId = "62CA62AF-CD91-478A-AB8B-28A62CC47DA0";
shapes = (
{
closed = 1;
nodes = (
(-168,1533,o),
(-366,1462,o),
(-353,1160,c),
(-220,1160,l),
(-214,1288,o),
(-144,1345,o),
(0,1345,cs),
(144,1345,o),
(214,1288,o),
(220,1160,c),
(353,1160,l),
(366,1462,o),
(168,1533,o),
(0,1533,cs,{
name = hr00;
})
);
}
);
width = 0;
}
);
unicode = 785;
}
{
glyphname = commaturnedabovecomb;
kernLeft = commaturnedabovecomb;
kernRight = commaturnedabovecomb;
layers = (
{
anchors = (
{
name = _top;
pos = (-1,994);
},
{
name = top;
pos = (-1,1567);
}
);
background = {
shapes = (
{
closed = 1;
nodes = (
(75,1155,o),
(138,1195,o),
(138,1283,cs),
(138,1392,o),
(38,1381,o),
(36,1392,cs),
(34,1402,o),
(32,1420,o),
(32,1443,cs),
(32,1499,o),
(44,1583,o),
(98,1639,cs),
(113,1654,o),
(119,1667,o),
(119,1678,cs),
(119,1698,o),
(98,1710,o),
(78,1710,cs),
(70,1710,o),
(61,1707,o),
(55,1703,cs),
(1,1666,o),
(-127,1485,o),
(-127,1339,cs),
(-127,1193,o),
(-56,1155,o),
(1,1155,c)
);
},
{
closed = 1;
nodes = (
(80,1152,o),
(138,1200,o),
(138,1283,cs,{
name = hr00;
}),
(138,1352,o),
(78,1411,o),
(-13,1407,c),
(3,1375,l),
(12,1468,o),
(57,1519,o),
(136,1546,c),
(106,1604,l),
(-55,1551,o),
(-127,1436,o),
(-127,1318,cs),
(-127,1209,o),
(-67,1152,o),
(15,1152,cs)
);
}
);
};
layerId = "DD6F9F34-BC40-4E8F-B1D3-DF3B42A9710F";
shapes = (
{
closed = 1;
nodes = (
(80,1154,o),
(138,1201,o),
(138,1283,cs,{
name = hr00;
}),
(138,1351,o),
(78,1410,o),
(-13,1406,c),
(3,1375,l),
(3,1462,o),
(55,1512,o),
(130,1569,c),
(100,1627,l),
(-51,1560,o),
(-127,1436,o),
(-127,1318,cs),
(-127,1220,o),
(-67,1154,o),
(15,1154,cs)
);
}
);
width = 0;
},
{
anchors = (
{
name = _top;
pos = (-1,994);
},
{
name = top;
pos = (-1,1567);
}
);
background = {
shapes = (
{
closed = 1;
nodes = (
(94,1160,o),
(161,1214,o),
(161,1317,cs,{
name = hr00;
}),
(161,1407,o),
(90,1448,o),
(31,1448,c),
(28,1466,o),
(27,1483,o),
(27,1500,cs),
(27,1571,o),
(89,1653,o),
(116,1679,cs),
(129,1692,o),
(134,1703,o),
(134,1712,cs),
(134,1731,o),
(111,1742,o),
(90,1742,cs),
(82,1742,o),
(74,1741,o),
(68,1737,cs),
(-18,1685,o),
(-140,1517,o),
(-140,1345,cs),
(-140,1211,o),
(-77,1160,o),
(6,1160,cs)
);
},
{
closed = 1;
nodes = (
(95,1160,o),
(155,1220,o),
(155,1294,cs,{
name = hr00;
}),
(155,1375,o),
(103,1431,o),
(-11,1434,c),
(6,1401,l),
(8,1497,o),
(59,1540,o),
(142,1561,c),
(106,1632,l),
(-68,1604,o),
(-143,1467,o),
(-143,1348,cs),
(-143,1224,o),
(-73,1160,o),
(20,1160,cs)
);
}
);
};
layerId = "62CA62AF-CD91-478A-AB8B-28A62CC47DA0";
shapes = (
{
closed = 1;
nodes = (
(95,1160,o),
(155,1220,o),
(155,1294,cs,{
name = hr00;
}),
(155,1375,o),
(101,1431,o),
(-13,1434,c),
(6,1401,l),
(1,1504,o),
(43,1577,o),
(142,1620,c),
(106,1691,l),
(-68,1620,o),
(-143,1477,o),
(-143,1348,cs),
(-143,1234,o),
(-73,1160,o),
(20,1160,cs)
);
}
);
width = 0;
}
);
unicode = 786;
}
{
color = 4;
glyphname = commaabovecomb;
layers = (
{
anchors = (
{
name = _top;
pos = (7,986);
},
{
name = top;
pos = (7,1697);
}
);
layerId = "DD6F9F34-BC40-4E8F-B1D3-DF3B42A9710F";
shapes = (
{
closed = 1;
nodes = (
(-68,1697,o),
(-126,1650,o),
(-126,1568,cs,{
name = hr00;
}),
(-126,1500,o),
(-66,1441,o),
(25,1445,c),
(9,1476,l),
(9,1389,o),
(-43,1339,o),
(-118,1282,c),
(-88,1224,l),
(63,1291,o),
(139,1415,o),
(139,1533,cs),
(139,1631,o),
(79,1697,o),
(-3,1697,cs)
);
}
);
width = 600;
},
{
anchors = (
{
name = _top;
pos = (6,994);
},
{
name = top;
pos = (6,1691);
}
);
layerId = "62CA62AF-CD91-478A-AB8B-28A62CC47DA0";
shapes = (
{
closed = 1;
nodes = (
(-83,1691,o),
(-143,1631,o),
(-143,1557,cs,{
name = hr00;
}),
(-143,1476,o),
(-89,1420,o),
(25,1417,c),
(6,1450,l),
(11,1347,o),
(-31,1274,o),
(-130,1231,c),
(-94,1160,l),
(80,1231,o),
(155,1374,o),
(155,1503,cs),
(155,1617,o),
(85,1691,o),
(-8,1691,cs)
);
}
);
width = 0;
}
);
unicode = 787;
}
{
glyphname = commaaboverightcomb;
layers = (
{
anchors = (
{
name = _top;
pos = (6,986);
},
{
name = top;
pos = (6,1627);
}
);
layerId = "DD6F9F34-BC40-4E8F-B1D3-DF3B42A9710F";
shapes = (
{
closed = 1;
nodes = (
(-69,1627,o),
(-127,1580,o),
(-127,1498,cs,{
name = hr00;
}),
(-127,1430,o),
(-67,1371,o),
(24,1375,c),
(8,1406,l),
(8,1319,o),
(-44,1269,o),
(-119,1212,c),
(-89,1154,l),
(62,1221,o),
(138,1345,o),
(138,1463,cs),
(138,1561,o),
(78,1627,o),
(-4,1627,cs)
);
}
);
width = 0;
},
{
anchors = (
{
name = _top;
pos = (6,994);
},
{
name = top;
pos = (6,1691);
}
);
layerId = "62CA62AF-CD91-478A-AB8B-28A62CC47DA0";
shapes = (
{
closed = 1;
nodes = (
(-83,1691,o),
(-143,1631,o),
(-143,1557,cs,{
name = hr00;
}),
(-143,1476,o),
(-89,1420,o),
(25,1417,c),
(6,1450,l),
(11,1347,o),
(-31,1274,o),
(-130,1231,c),
(-94,1160,l),
(80,1231,o),
(155,1374,o),
(155,1503,cs),
(155,1617,o),
(85,1691,o),
(-8,1691,cs)
);
}
);
width = 0;
}
);
unicode = 789;
}
{
glyphname = horncomb;
kernLeft = horncomb;
kernRight = horncomb;
layers = (
{
layerId = "DD6F9F34-BC40-4E8F-B1D3-DF3B42A9710F";
shapes = (
{
closed = 1;
nodes = (
(292,1322,o),
(524,1398,o),
(524,1633,cs),
(524,1648,o),
(522,1663,o),
(519,1680,c),
(346,1680,l),
(347,1671,o),
(347,1659,o),
(347,1644,cs),
(347,1499,o),
(231,1401,o),
(72,1398,c),
(183,1322,l)
);
}
);
width = 600;
},
{
layerId = "62CA62AF-CD91-478A-AB8B-28A62CC47DA0";
shapes = (
{
closed = 1;
nodes = (
(324,1329,o),
(482,1421,o),
(482,1627,cs),
(482,1645,o),
(479,1717,o),
(476,1738,c),
(260,1738,l),
(262,1729,o),
(262,1702,o),
(262,1655,cs),
(262,1554,o),
(251,1413,o),
(61,1413,c),
(265,1329,l)
);
}
);
width = 600;
}
);
unicode = 795;
}
{
glyphname = ringbelowcomb;
layers = (
{
anchors = (
{
name = _bottom;
pos = (302,0);
},
{
name = bottom;
pos = (302,-620);
}
);
layerId = "DD6F9F34-BC40-4E8F-B1D3-DF3B42A9710F";
shapes = (
{
closed = 1;
nodes = (
(457,-620,o),
(584,-523,o),
(584,-365,cs),
(584,-207,o),
(457,-105,o),
(302,-105,cs),
(146,-105,o),
(20,-204,o),
(20,-362,cs),
(20,-520,o),
(146,-620,o),
(302,-620,cs,{
name = hr00;
})
);
},
{
closed = 1;
nodes = (
(188,-515,o),
(144,-446,o),
(144,-363,cs),
(144,-280,o),
(188,-209,o),
(302,-209,cs),
(416,-209,o),
(461,-278,o),
(461,-361,cs),
(461,-444,o),
(416,-515,o),
(302,-515,cs)
);
}
);
width = 604;
},
{
anchors = (
{
name = _bottom;
pos = (330,0);
},
{
name = bottom;
pos = (330,-626);
}
);
layerId = "62CA62AF-CD91-478A-AB8B-28A62CC47DA0";
shapes = (
{
closed = 1;
nodes = (
(500,-626,o),
(640,-519,o),
(640,-345,cs),
(640,-175,o),
(500,-59,o),
(330,-59,cs),
(158,-59,o),
(20,-168,o),
(20,-342,cs),
(20,-516,o),
(158,-626,o),
(330,-626,cs,{
name = hr00;
})
);
},
{
closed = 1;
nodes = (
(227,-480,o),
(188,-418,o),
(188,-343,cs),
(188,-268,o),
(227,-204,o),
(330,-204,cs),
(433,-204,o),
(473,-266,o),
(473,-341,cs),
(473,-416,o),
(433,-480,o),
(330,-480,cs)
);
}
);
width = 660;
}
);
metricRight = "=|";
unicode = 805;
}
{
glyphname = commaaccentcomb;
kernLeft = commaaccent;
kernRight = commaaccent;
layers = (
{
anchors = (
{
name = _bottom;
pos = (161,0);
},
{
name = bottom;
pos = (161,-563);
}
);
background = {
shapes = (
{
closed = 1;
nodes = (
(93,-151,o),
(30,-190,o),
(30,-282,cs,{
name = hr00;
}),
(30,-363,o),
(90,-410,o),
(143,-410,c),
(143,-486,o),
(116,-550,o),
(90,-578,cs),
(80,-589,o),
(76,-599,o),
(76,-607,cs),
(76,-625,o),
(98,-635,o),
(118,-635,cs),
(127,-635,o),
(134,-633,o),
(140,-630,cs),
(219,-585,o),
(295,-455,o),
(295,-326,cs),
(295,-208,o),
(235,-151,o),
(163,-151,cs)
);
},
{
closed = 1;
nodes = (
(88,-131,o),
(18,-174,o),
(18,-277,cs,{
name = hr00;
}),
(18,-367,o),
(85,-419,o),
(144,-419,c),
(144,-503,o),
(114,-574,o),
(85,-605,cs),
(74,-617,o),
(69,-628,o),
(69,-637,cs),
(69,-658,o),
(94,-669,o),
(116,-669,cs),
(125,-669,o),
(134,-667,o),
(140,-663,cs),
(224,-607,o),
(312,-471,o),
(312,-329,cs),
(312,-195,o),
(247,-131,o),
(166,-131,cs)
);
},
{
closed = 1;
nodes = (
(93,-151,o),
(30,-190,o),
(30,-282,cs,{
name = hr00;
}),
(30,-363,o),
(90,-410,o),
(143,-410,c),
(143,-486,o),
(116,-550,o),
(90,-578,cs),
(80,-589,o),
(76,-599,o),
(76,-607,cs),
(76,-625,o),
(98,-635,o),
(118,-635,cs),
(127,-635,o),
(134,-633,o),
(140,-630,cs),
(219,-585,o),
(295,-455,o),
(295,-326,cs),
(295,-208,o),
(235,-151,o),
(163,-151,cs)
);
},
{
closed = 1;
nodes = (
(76,-140,o),
(16,-200,o),
(16,-274,cs,{
name = hr00;
}),
(16,-355,o),
(68,-411,o),
(182,-414,c),
(165,-381,l),
(163,-477,o),
(112,-520,o),
(29,-541,c),
(65,-612,l),
(239,-584,o),
(314,-447,o),
(314,-328,cs),
(314,-204,o),
(244,-140,o),
(151,-140,cs)
);
}
);
};
layerId = "DD6F9F34-BC40-4E8F-B1D3-DF3B42A9710F";
shapes = (
{
closed = 1;
nodes = (
(88,-151,o),
(30,-199,o),
(30,-282,cs,{
name = hr00;
}),
(30,-351,o),
(90,-410,o),
(181,-406,c),
(165,-374,l),
(156,-467,o),
(111,-518,o),
(32,-545,c),
(62,-603,l),
(223,-550,o),
(295,-435,o),
(295,-317,cs),
(295,-208,o),
(235,-151,o),
(153,-151,cs)
);
}
);
width = 325;
},
{
anchors = (
{
name = _bottom;
pos = (177,0);
},
{
name = bottom;
pos = (177,-563);
}
);
background = {
shapes = (
{
closed = 1;
nodes = (
(572,-306,o),
(676,-296,o),
(686,-303,c),
(694,-319,o),
(678,-375,o),
(666,-390,cs),
(650,-410,o),
(643,-422,o),
(643,-434,cs),
(643,-455,o),
(655,-478,o),
(705,-478,cs),
(714,-478,o),
(723,-475,o),
(730,-472,cs),
(825,-431,o),
(893,-344,o),
(893,-234,cs),
(893,-108,o),
(816,-79,o),
(741,-79,cs),
(640,-79,o),
(572,-108,o),
(572,-185,cs,{
name = hr00;
})
);
},
{
closed = 1;
nodes = (
(100,-121,o),
(30,-164,o),
(30,-267,cs,{
name = hr00;
}),
(30,-357,o),
(97,-409,o),
(156,-409,c),
(156,-493,o),
(126,-564,o),
(97,-595,cs),
(86,-607,o),
(81,-618,o),
(81,-627,cs),
(81,-648,o),
(106,-659,o),
(128,-659,cs),
(137,-659,o),
(146,-657,o),
(152,-653,cs),
(238,-601,o),
(324,-461,o),
(324,-319,cs),
(324,-185,o),
(259,-121,o),
(178,-121,cs)
);
},
{
closed = 1;
nodes = (
(88,-125,o),
(28,-182,o),
(28,-262,cs,{
name = hr00;
}),
(28,-346,o),
(81,-402,o),
(189,-405,c),
(167,-372,l),
(181,-466,o),
(153,-523,o),
(73,-575,c),
(128,-633,l),
(268,-559,o),
(324,-421,o),
(324,-319,cs),
(324,-192,o),
(257,-125,o),
(166,-125,cs)
);
},
{
closed = 1;
nodes = (
(90,-129,o),
(31,-185,o),
(31,-263,cs,{
name = hr00;
}),
(31,-344,o),
(83,-400,o),
(195,-403,c),
(175,-370,l),
(182,-466,o),
(148,-535,o),
(59,-578,c),
(114,-636,l),
(252,-573,o),
(327,-436,o),
(327,-317,cs),
(327,-193,o),
(259,-129,o),
(166,-129,cs)
);
},
{
closed = 1;
nodes = (
(299,-450,o),
(459,-371,o),
(490,-341,cs),
(510,-322,o),
(523,-289,o),
(523,-254,cs),
(523,-224,o),
(514,-194,o),
(491,-170,cs),
(469,-147,o),
(440,-137,o),
(410,-137,cs),
(372,-137,o),
(334,-153,o),
(313,-173,cs),
(282,-203,o),
(193,-356,o),
(39,-545,c),
(95,-603,l,{
name = hr00;
})
);
},
{
closed = 1;
nodes = (
(90,-129,o),
(31,-185,o),
(31,-263,cs,{
name = hr00;
}),
(31,-344,o),
(83,-400,o),
(195,-403,c),
(175,-370,l),
(185,-475,o),
(127,-520,o),
(42,-530,c),
(78,-601,l),
(252,-573,o),
(327,-436,o),
(327,-317,cs),
(327,-193,o),
(259,-129,o),
(166,-129,cs)
);
},
{
closed = 1;
nodes = (
(89,-129,o),
(29,-189,o),
(29,-263,cs,{
name = hr00;
}),
(29,-344,o),
(81,-400,o),
(195,-403,c),
(175,-370,l),
(185,-468,o),
(127,-515,o),
(42,-530,c),
(78,-601,l),
(252,-573,o),
(327,-436,o),
(327,-317,cs),
(327,-193,o),
(257,-129,o),
(164,-129,cs)
);
}
);
};
layerId = "62CA62AF-CD91-478A-AB8B-28A62CC47DA0";
shapes = (
{
closed = 1;
nodes = (
(89,-129,o),
(29,-189,o),
(29,-263,cs,{
name = hr00;
}),
(29,-344,o),
(81,-400,o),
(195,-403,c),
(178,-370,l),
(176,-466,o),
(125,-509,o),
(42,-530,c),
(78,-601,l),
(252,-573,o),
(327,-436,o),
(327,-317,cs),
(327,-193,o),
(257,-129,o),
(164,-129,cs)
);
}
);
width = 354;
}
);
unicode = 806;
}
{
glyphname = cedillacomb;
kernLeft = cedilla;
kernRight = cedilla;
layers = (
{
anchors = (
{
name = _bottom;
}
);
background = {
shapes = (
{
closed = 1;
nodes = (
(165,-488,o),
(249,-387,o),
(249,-292,cs),
(249,-206,o),
(173,-134,o),
(40,-121,c,{
name = hr03;
}),
(78,18,l),
(-39,18,l,{
name = hr01;
}),
(-74,-182,l),
(32,-183,o),
(82,-232,o),
(82,-281,cs,{
name = hr02;
}),
(82,-339,o),
(32,-374,o),
(-35,-374,cs),
(-97,-374,o),
(-135,-357,o),
(-157,-349,cs),
(-168,-345,o),
(-174,-346,o),
(-179,-356,cs),
(-187,-371,o),
(-201,-394,o),
(-211,-417,cs),
(-214,-425,o),
(-215,-433,o),
(-206,-439,cs),
(-170,-463,o),
(-106,-488,o),
(-21,-488,cs)
);
}
);
};
layerId = "DD6F9F34-BC40-4E8F-B1D3-DF3B42A9710F";
shapes = (
{
alignment = -1;
pos = (-223,0);
ref = cedilla;
}
);
width = 0;
},
{
anchors = (
{
name = _bottom;
pos = (253,0);
}
);
background = {
shapes = (
{
closed = 1;
nodes = (
(442,-498,o),
(533,-404,o),
(533,-289,cs),
(533,-195,o),
(457,-105,o),
(309,-91,c,{
name = hr03;
}),
(339,18,l),
(182,18,l,{
name = hr01;
}),
(149,-192,l),
(230,-192,o),
(298,-220,o),
(298,-284,cs,{
name = hr02;
}),
(298,-344,o),
(245,-374,o),
(179,-374,cs),
(148,-374,o),
(114,-370,o),
(66,-361,cs),
(40,-356,o),
(24,-402,o),
(15,-434,cs),
(11,-448,o),
(20,-457,o),
(35,-462,cs),
(71,-474,o),
(133,-498,o),
(242,-498,cs)
);
},
{
closed = 1;
nodes = (
(426,-498,o),
(531,-411,o),
(531,-284,cs),
(531,-184,o),
(446,-108,o),
(296,-100,c,{
name = hr03;
}),
(333,18,l),
(186,18,l,{
name = hr01;
}),
(148,-192,l),
(287,-194,o),
(326,-230,o),
(326,-279,cs,{
name = hr02;
}),
(326,-335,o),
(279,-374,o),
(201,-374,cs),
(146,-374,o),
(98,-357,o),
(59,-342,cs),
(49,-340,o),
(44,-342,o),
(41,-350,cs),
(33,-368,o),
(18,-405,o),
(12,-417,cs),
(8,-426,o),
(10,-434,o),
(17,-437,cs),
(59,-463,o),
(131,-498,o),
(240,-498,cs)
);
}
);
};
layerId = "62CA62AF-CD91-478A-AB8B-28A62CC47DA0";
shapes = (
{
ref = cedilla;
}
);
width = 521;
}
);
unicode = 807;
}
{
glyphname = ogonekcomb;
kernLeft = ogonekcomb;
kernRight = ogonekcomb;
layers = (
{
layerId = "DD6F9F34-BC40-4E8F-B1D3-DF3B42A9710F";
shapes = (
{
closed = 1;
nodes = (
(-31,19,l),
(-235,-36,o),
(-344,-145,o),
(-344,-276,cs),
(-344,-367,o),
(-268,-466,o),
(-111,-466,cs),
(-36,-466,o),
(31,-442,o),
(74,-409,cs),
(91,-396,o),
(98,-378,o),
(98,-360,cs),
(98,-329,o),
(87,-312,o),
(77,-317,cs),
(31,-340,o),
(11,-343,o),
(-25,-343,cs),
(-129,-343,o),
(-163,-282,o),
(-163,-205,cs),
(-163,-116,o),
(-89,-36,o),
(48,30,c),
(26,80,l)
);
}
);
width = 0;
},
{
layerId = "62CA62AF-CD91-478A-AB8B-28A62CC47DA0";
shapes = (
{
closed = 1;
nodes = (
(56,25,l),
(-162,-20,o),
(-334,-160,o),
(-334,-302,cs),
(-334,-411,o),
(-243,-500,o),
(-51,-500,cs),
(31,-500,o),
(123,-474,o),
(170,-438,cs),
(188,-424,o),
(196,-405,o),
(196,-385,cs),
(196,-352,o),
(176,-323,o),
(165,-329,cs),
(118,-355,o),
(96,-356,o),
(58,-356,cs),
(-11,-356,o),
(-91,-302,o),
(-91,-222,cs),
(-91,-120,o),
(-17,-35,o),
(131,37,c),
(106,51,l)
);
}
);
width = 0;
}
);
unicode = 808;
}
{
glyphname = breveinvertedbelowcomb;
layers = (
{
anchors = (
{
name = _bottom;
pos = (343,0);
},
{
name = bottom;
pos = (343,-430);
}
);
layerId = "DD6F9F34-BC40-4E8F-B1D3-DF3B42A9710F";
shapes = (
{
closed = 1;
nodes = (
(225,-67,o),
(17,-118,o),
(10,-430,c),
(123,-430,l),
(129,-332,o),
(199,-215,o),
(343,-215,cs),
(487,-215,o),
(557,-332,o),
(563,-430,c),
(676,-430,l),
(669,-118,o),
(461,-67,o),
(343,-67,cs)
);
}
);
width = 686;
},
{
anchors = (
{
name = _bottom;
pos = (364,0);
},
{
name = bottom;
pos = (364,-434);
}
);
layerId = "62CA62AF-CD91-478A-AB8B-28A62CC47DA0";
shapes = (
{
closed = 1;
nodes = (
(196,-61,o),
(-2,-132,o),
(11,-434,c),
(144,-434,l),
(150,-316,o),
(220,-259,o),
(364,-259,cs),
(508,-259,o),
(578,-316,o),
(584,-434,c),
(717,-434,l),
(730,-132,o),
(532,-61,o),
(364,-61,cs,{
name = hr00;
})
);
}
);
width = 728;
}
);
metricRight = "=|";
unicode = 815;
}
{
glyphname = tildebelowcomb;
layers = (
{
anchors = (
{
name = _bottom;
pos = (423,0);
},
{
name = bottom;
pos = (423,-401);
}
);
layerId = "DD6F9F34-BC40-4E8F-B1D3-DF3B42A9710F";
shapes = (
{
closed = 1;
nodes = (
(641,-411,o),
(739,-279,o),
(739,-222,cs),
(739,-190,o),
(711,-159,o),
(689,-159,c),
(668,-159,o),
(632,-256,o),
(569,-256,cs),
(482,-256,o),
(406,-123,o),
(321,-123,cs,{
name = hr03;
}),
(201,-123,o),
(106,-255,o),
(106,-312,cs),
(106,-344,o),
(131,-375,o),
(153,-375,cs),
(175,-375,o),
(210,-278,o),
(273,-278,cs),
(347,-278,o),
(418,-411,o),
(521,-411,cs,{
name = hr03;
})
);
}
);
width = 845;
},
{
anchors = (
{
name = _bottom;
pos = (434,0);
},
{
name = bottom;
pos = (434,-389);
}
);
layerId = "62CA62AF-CD91-478A-AB8B-28A62CC47DA0";
shapes = (
{
closed = 1;
nodes = (
(677,-430,o),
(772,-311,o),
(772,-234,cs),
(772,-200,o),
(745,-162,o),
(723,-162,cs),
(679,-162,o),
(676,-256,o),
(581,-256,cs),
(479,-256,o),
(425,-117,o),
(312,-117,cs,{
name = hr03;
}),
(185,-117,o),
(96,-250,o),
(96,-313,cs),
(96,-347,o),
(123,-385,o),
(145,-385,cs),
(189,-385,o),
(190,-291,o),
(282,-291,cs),
(377,-291,o),
(444,-428,o),
(559,-429,cs,{
name = hr02;
})
);
}
);
width = 868;
}
);
metricLeft = hyphen;
metricRight = hyphen;
unicode = 816;
}
{
glyphname = lowlinecomb;
layers = (
{
anchors = (
{
name = _bottom;
pos = (400,0);
}
);
layerId = "DD6F9F34-BC40-4E8F-B1D3-DF3B42A9710F";
shapes = (
{
closed = 1;
nodes = (
(694,-317,l),
(694,-176,l),
(106,-176,l),
(106,-317,l)
);
}
);
width = 800;
},
{
anchors = (
{
name = _bottom;
pos = (388,0);
}
);
layerId = "62CA62AF-CD91-478A-AB8B-28A62CC47DA0";
shapes = (
{
closed = 1;
nodes = (
(683,-328,l),
(683,-177,l),
(96,-177,l),
(96,-328,l,{
name = hr00;
})
);
}
);
width = 779;
}
);
metricLeft = hyphen;
metricRight = hyphen;
unicode = 818;
}
{
glyphname = Delta;
layers = (
{
layerId = "DD6F9F34-BC40-4E8F-B1D3-DF3B42A9710F";
shapes = (
{
closed = 1;
nodes = (
(1314,0,l),
(1330,27,l),
(661,1508,l),
(629,1508,l),
(23,22,l,{
name = hr01;
}),
(37,0,l,{
name = hr02;
})
);
},
{
closed = 1;
nodes = (
(628,1171,l),
(1054,119,l),
(193,119,l)
);
}
);
width = 1353;
},
{
layerId = "62CA62AF-CD91-478A-AB8B-28A62CC47DA0";
shapes = (
{
closed = 1;
nodes = (
(1434,0,l),
(1450,27,l),
(741,1508,l),
(709,1508,l),
(64,22,l,{
name = hr01;
}),
(78,0,l,{
name = hr02;
})
);
},
{
closed = 1;
nodes = (
(638,1017,l),
(1055,119,l),
(233,119,l)
);
}
);
width = 1514;
}
);
unicode = 916;
}
